<?xml version="1.0" standalone="no"?>
<!DOCTYPE svg PUBLIC "-//W3C//DTD SVG 1.1//EN" "http://www.w3.org/Graphics/SVG/1.1/DTD/svg11.dtd" >
<svg>
<metadata>
Created by FontForge 20090914 at Tue Apr 17 20:54:31 2018
 By www-data
Copyright 2011 The Quicksand Project Authors (https://github.com/andrew-paglinawan/QuicksandFamily), with Reserved Font Name &#226;&#128;&#156;Quicksand&#226;&#128;&#157;.
</metadata>
<defs>
<font id="Quicksand-Bold" horiz-adv-x="0" >
  <font-face 
    font-family="Quicksand"
    font-weight="700"
    font-stretch="normal"
    units-per-em="1000"
    panose-1="0 0 8 0 0 0 0 0 0 0"
    ascent="800"
    descent="-200"
    x-height="524.999"
    cap-height="700"
    bbox="-477.996 -303.004 1328 1183"
    underline-thickness="50"
    underline-position="-50"
    unicode-range="U+000D-U+FB02"
  />
<missing-glyph horiz-adv-x="584" 
d="M75 700h434c23.333 0 35 -11.667 35 -35v-630c0 -23.333 -11.667 -35 -35 -35h-434c-23.333 0 -35 11.667 -35 35v630c0 23.333 11.667 35 35 35zM91 668c-0.666992 -1.33301 -0.332031 -2.66699 1.00098 -4l416 -599c1.33301 -2 2.66602 -2.83301 3.99902 -2.5
s2 1.83301 2 4.5v598c0 3.33301 -1.66699 5 -5 5h-414c-2 0 -3.33301 -0.666992 -4 -2zM75.002 29.999l412.998 0.000976562c2 0 3.33301 0.666992 4 2s0.333984 2.66602 -0.999023 3.99902l-415 599c-1.33301 2 -2.66602 2.83301 -3.99902 2.5s-2 -1.83301 -2 -4.5v-598
c0 -3.33301 1.66699 -5 5 -5z" />
    <glyph glyph-name="fi" unicode="fi" horiz-adv-x="653" 
d="M274 614.5c-9.33301 -13 -14.0029 -27.167 -14.0029 -42.5v-47h91c16 0 29.333 -5.16699 40 -15.5s16 -23.5 16 -39.5s-5.33301 -29.167 -16 -39.5s-24 -15.5 -40 -15.5h-91v-354c0 -17.333 -5.66699 -31.833 -17 -43.5s-25.666 -17.5 -42.999 -17.5
s-31.666 5.83301 -42.999 17.5s-17 26.167 -17 43.5v354h-54c-16 0 -29.333 5.16699 -40 15.5s-16 23.5 -16 39.5s5.33301 29.167 16 39.5s24 15.5 40 15.5h54v46c0 50 17.167 90.667 51.5 122s83.833 47 148.5 47c24.667 0 46.167 -5 64.5 -15s27.5 -25.333 27.5 -46
c0 -16 -4.66699 -29 -14 -39s-20.666 -15 -33.999 -15c-3.33301 0 -6.83301 0.333008 -10.5 1l-11.5 2c-16 4 -29.333 6 -40 6c-22.667 0 -38.667 -6.5 -48 -19.5zM577.997 17.5c-11.333 -11.667 -25.666 -17.5 -42.999 -17.5s-31.666 5.83301 -42.999 17.5
s-17 26.167 -17 43.5v413c0 17.333 5.66699 31.833 17 43.5s25.666 17.5 42.999 17.5s31.666 -5.83301 42.999 -17.5s17 -26.167 17 -43.5v-413c0 -17.333 -5.66699 -31.833 -17 -43.5zM485.997 611c-9.33301 7.33301 -13.999 20.333 -13.999 39v19c0 18.667 5 31.667 15 39
s26 11 48 11c23.333 0 39.666 -3.66699 48.999 -11s14 -20.333 14 -39v-19c0 -19.333 -4.83301 -32.5 -14.5 -39.5s-26.167 -10.5 -49.5 -10.5c-22.667 0 -38.667 3.66699 -48 11z" />
    <glyph glyph-name="fl" unicode="fl" horiz-adv-x="687" 
d="M274 614.5c-9.33301 -13 -14.0029 -27.167 -14.0029 -42.5v-47h91c16 0 29.333 -5.16699 40 -15.5s16 -23.5 16 -39.5s-5.33301 -29.167 -16 -39.5s-24 -15.5 -40 -15.5h-91v-354c0 -17.333 -5.66699 -31.833 -17 -43.5s-25.666 -17.5 -42.999 -17.5
s-31.666 5.83301 -42.999 17.5s-17 26.167 -17 43.5v354h-54c-16 0 -29.333 5.16699 -40 15.5s-16 23.5 -16 39.5s5.33301 29.167 16 39.5s24 15.5 40 15.5h54v46c0 50 17.167 90.667 51.5 122s83.833 47 148.5 47c24.667 0 46.167 -5 64.5 -15s27.5 -25.333 27.5 -46
c0 -16 -4.66699 -29 -14 -39s-20.666 -15 -33.999 -15c-3.33301 0 -6.83301 0.333008 -10.5 1l-11.5 2c-16 4 -29.333 6 -40 6c-22.667 0 -38.667 -6.5 -48 -19.5zM594.497 17.5c-11.667 -11.667 -26.167 -17.5 -43.5 -17.5c-16.667 -0 -30.667 5.83301 -42 17.5
s-17 26.167 -17 43.5v618c0 17.333 5.83301 31.833 17.5 43.5s26.167 17.5 43.5 17.5c16.667 0 30.667 -5.83301 42 -17.5s17 -26.167 17 -43.5v-618c0 -17.333 -5.83301 -31.833 -17.5 -43.5z" />
    <glyph glyph-name="f_f" unicode="ff" horiz-adv-x="834" 
d="M274 614.5c-9.33301 -13 -14.0029 -27.167 -14.0029 -42.5v-47h91c16 0 29.333 -5.16699 40 -15.5s16 -23.5 16 -39.5s-5.33301 -29.167 -16 -39.5s-24 -15.5 -40 -15.5h-91v-354c0 -17.333 -5.66699 -31.833 -17 -43.5s-25.666 -17.5 -42.999 -17.5
s-31.666 5.83301 -42.999 17.5s-17 26.167 -17 43.5v354h-54c-16 0 -29.333 5.16699 -40 15.5s-16 23.5 -16 39.5s5.33301 29.167 16 39.5s24 15.5 40 15.5h54v46c0 50 17.167 90.667 51.5 122s83.833 47 148.5 47c24.667 0 46.167 -5 64.5 -15s27.5 -25.333 27.5 -46
c0 -16 -4.66699 -29 -14 -39s-20.666 -15 -33.999 -15c-3.33301 0 -6.83301 0.333008 -10.5 1l-11.5 2c-16 4 -29.333 6 -40 6c-22.667 0 -38.667 -6.5 -48 -19.5zM690.997 614.5c-9.33301 -13 -14.0029 -27.167 -14.0029 -42.5v-47h91c16 0 29.333 -5.16699 40 -15.5
s16 -23.5 16 -39.5s-5.33301 -29.167 -16 -39.5s-24 -15.5 -40 -15.5h-91v-354c0 -17.333 -5.66699 -31.833 -17 -43.5s-25.666 -17.5 -42.999 -17.5s-31.666 5.83301 -42.999 17.5s-17 26.167 -17 43.5v354h-54c-16 0 -29.333 5.16699 -40 15.5s-16 23.5 -16 39.5
s5.33301 29.167 16 39.5s24 15.5 40 15.5h54v46c0 50 17.167 90.667 51.5 122s83.833 47 148.5 47c24.667 0 46.167 -5 64.5 -15s27.5 -25.333 27.5 -46c0 -16 -4.66699 -29 -14 -39s-20.666 -15 -33.999 -15c-3.33301 0 -6.83301 0.333008 -10.5 1l-11.5 2
c-16 4 -29.333 6 -40 6c-22.667 0 -38.667 -6.5 -48 -19.5z" />
    <glyph glyph-name="f_f_i" unicode="ffi" horiz-adv-x="1070" 
d="M274 614.5c-9.33301 -13 -14.0029 -27.167 -14.0029 -42.5v-47h91c16 0 29.333 -5.16699 40 -15.5s16 -23.5 16 -39.5s-5.33301 -29.167 -16 -39.5s-24 -15.5 -40 -15.5h-91v-354c0 -17.333 -5.66699 -31.833 -17 -43.5s-25.666 -17.5 -42.999 -17.5
s-31.666 5.83301 -42.999 17.5s-17 26.167 -17 43.5v354h-54c-16 0 -29.333 5.16699 -40 15.5s-16 23.5 -16 39.5s5.33301 29.167 16 39.5s24 15.5 40 15.5h54v46c0 50 17.167 90.667 51.5 122s83.833 47 148.5 47c24.667 0 46.167 -5 64.5 -15s27.5 -25.333 27.5 -46
c0 -16 -4.66699 -29 -14 -39s-20.666 -15 -33.999 -15c-3.33301 0 -6.83301 0.333008 -10.5 1l-11.5 2c-16 4 -29.333 6 -40 6c-22.667 0 -38.667 -6.5 -48 -19.5zM690.997 614.5c-9.33301 -13 -14.0029 -27.167 -14.0029 -42.5v-47h91c16 0 29.333 -5.16699 40 -15.5
s16 -23.5 16 -39.5s-5.33301 -29.167 -16 -39.5s-24 -15.5 -40 -15.5h-91v-354c0 -17.333 -5.66699 -31.833 -17 -43.5s-25.666 -17.5 -42.999 -17.5s-31.666 5.83301 -42.999 17.5s-17 26.167 -17 43.5v354h-54c-16 0 -29.333 5.16699 -40 15.5s-16 23.5 -16 39.5
s5.33301 29.167 16 39.5s24 15.5 40 15.5h54v46c0 50 17.167 90.667 51.5 122s83.833 47 148.5 47c24.667 0 46.167 -5 64.5 -15s27.5 -25.333 27.5 -46c0 -16 -4.66699 -29 -14 -39s-20.666 -15 -33.999 -15c-3.33301 0 -6.83301 0.333008 -10.5 1l-11.5 2
c-16 4 -29.333 6 -40 6c-22.667 0 -38.667 -6.5 -48 -19.5zM994.994 17.5c-11.333 -11.667 -25.666 -17.5 -42.999 -17.5s-31.666 5.83301 -42.999 17.5s-17 26.167 -17 43.5v413c0 17.333 5.66699 31.833 17 43.5s25.666 17.5 42.999 17.5s31.666 -5.83301 42.999 -17.5
s17 -26.167 17 -43.5v-413c0 -17.333 -5.66699 -31.833 -17 -43.5zM902.994 611c-9.33301 7.33301 -13.999 20.333 -13.999 39v19c0 18.667 5 31.667 15 39s26 11 48 11c23.333 0 39.666 -3.66699 48.999 -11s14 -20.333 14 -39v-19c0 -19.333 -4.83301 -32.5 -14.5 -39.5
s-26.167 -10.5 -49.5 -10.5c-22.667 0 -38.667 3.66699 -48 11z" />
    <glyph glyph-name="f_f_l" unicode="ffl" horiz-adv-x="1104" 
d="M274 614.5c-9.33301 -13 -14.0029 -27.167 -14.0029 -42.5v-47h91c16 0 29.333 -5.16699 40 -15.5s16 -23.5 16 -39.5s-5.33301 -29.167 -16 -39.5s-24 -15.5 -40 -15.5h-91v-354c0 -17.333 -5.66699 -31.833 -17 -43.5s-25.666 -17.5 -42.999 -17.5
s-31.666 5.83301 -42.999 17.5s-17 26.167 -17 43.5v354h-54c-16 0 -29.333 5.16699 -40 15.5s-16 23.5 -16 39.5s5.33301 29.167 16 39.5s24 15.5 40 15.5h54v46c0 50 17.167 90.667 51.5 122s83.833 47 148.5 47c24.667 0 46.167 -5 64.5 -15s27.5 -25.333 27.5 -46
c0 -16 -4.66699 -29 -14 -39s-20.666 -15 -33.999 -15c-3.33301 0 -6.83301 0.333008 -10.5 1l-11.5 2c-16 4 -29.333 6 -40 6c-22.667 0 -38.667 -6.5 -48 -19.5zM690.997 614.5c-9.33301 -13 -14.0029 -27.167 -14.0029 -42.5v-47h91c16 0 29.333 -5.16699 40 -15.5
s16 -23.5 16 -39.5s-5.33301 -29.167 -16 -39.5s-24 -15.5 -40 -15.5h-91v-354c0 -17.333 -5.66699 -31.833 -17 -43.5s-25.666 -17.5 -42.999 -17.5s-31.666 5.83301 -42.999 17.5s-17 26.167 -17 43.5v354h-54c-16 0 -29.333 5.16699 -40 15.5s-16 23.5 -16 39.5
s5.33301 29.167 16 39.5s24 15.5 40 15.5h54v46c0 50 17.167 90.667 51.5 122s83.833 47 148.5 47c24.667 0 46.167 -5 64.5 -15s27.5 -25.333 27.5 -46c0 -16 -4.66699 -29 -14 -39s-20.666 -15 -33.999 -15c-3.33301 0 -6.83301 0.333008 -10.5 1l-11.5 2
c-16 4 -29.333 6 -40 6c-22.667 0 -38.667 -6.5 -48 -19.5zM1011.49 17.5c-11.667 -11.667 -26.167 -17.5 -43.5 -17.5c-16.667 -0 -30.667 5.83301 -42 17.5s-17 26.167 -17 43.5v618c0 17.333 5.83301 31.833 17.5 43.5s26.167 17.5 43.5 17.5
c16.667 0 30.667 -5.83301 42 -17.5s17 -26.167 17 -43.5v-618c0 -17.333 -5.83301 -31.833 -17.5 -43.5z" />
    <glyph glyph-name=".notdef" horiz-adv-x="584" 
d="M75 700h434c23.333 0 35 -11.667 35 -35v-630c0 -23.333 -11.667 -35 -35 -35h-434c-23.333 0 -35 11.667 -35 35v630c0 23.333 11.667 35 35 35zM91 668c-0.666992 -1.33301 -0.332031 -2.66699 1.00098 -4l416 -599c1.33301 -2 2.66602 -2.83301 3.99902 -2.5
s2 1.83301 2 4.5v598c0 3.33301 -1.66699 5 -5 5h-414c-2 0 -3.33301 -0.666992 -4 -2zM75.002 29.999l412.998 0.000976562c2 0 3.33301 0.666992 4 2s0.333984 2.66602 -0.999023 3.99902l-415 599c-1.33301 2 -2.66602 2.83301 -3.99902 2.5s-2 -1.83301 -2 -4.5v-598
c0 -3.33301 1.66699 -5 5 -5z" />
    <glyph glyph-name="NULL" 
 />
    <glyph glyph-name="NULL" 
 />
    <glyph glyph-name="nonmarkingreturn" unicode="&#xd;" horiz-adv-x="280" 
 />
    <glyph glyph-name="space" unicode=" " horiz-adv-x="280" 
 />
    <glyph glyph-name="exclam" unicode="!" horiz-adv-x="267" 
d="M97 259l-29 368c-1.33301 20.667 4.16699 38 16.5 52s28.5 21 48.5 21s36.333 -7 49 -21s18 -31.333 16 -52l-28 -368c-2 -25.333 -14 -38 -36 -38c-22.667 0 -35 12.667 -37 38zM82.5 15.5c-10.333 10.333 -15.5 25.166 -15.5 44.499v17
c0 19.333 5.16699 34.166 15.5 44.499s25.166 15.5 44.499 15.5h13c19.333 0 34.166 -5.16699 44.499 -15.5s15.5 -25.166 15.5 -44.499v-17c0 -19.333 -5.16699 -34.166 -15.5 -44.499s-25.166 -15.5 -44.499 -15.5h-13c-19.333 0 -34.166 5.16699 -44.499 15.5z" />
    <glyph glyph-name="quotedbl" unicode="&#x22;" horiz-adv-x="430" 
d="M102 700h28.999c14.667 0 25.834 -3.33301 33.501 -10s11.5 -15.667 11.5 -27c0 -6 -1 -12.667 -3 -20l-68 -209c-8 -22 -22 -33 -42 -33c-10.667 0 -18.5 3.5 -23.5 10.5s-6.83301 17.167 -5.5 30.5l16 210c2.66699 32 20 48 52 48zM321.999 700l29 -0.000976562
c14.667 0 25.834 -3.16699 33.501 -9.5s11.5 -15.166 11.5 -26.499c0 -6.66699 -1.33301 -13.667 -4 -21l-68 -209c-8 -22 -22 -33 -42 -33c-21.333 0 -31 14 -29 42l17 209c3.33301 32 20.666 48 51.999 48z" />
    <glyph glyph-name="numbersign" unicode="#" horiz-adv-x="693" 
d="M550 439l-30 -174h47c15.333 0 28.166 -5.16699 38.499 -15.5s15.5 -23.166 15.5 -38.499c0 -14.667 -5.16699 -26.667 -15.5 -36s-23.166 -14 -38.499 -14h-65l-20 -118c-2 -12.667 -7.5 -23 -16.5 -31s-20.167 -12 -33.5 -12c-16 0 -28.833 5 -38.5 15
s-14.5 23 -14.5 39c0 6 0.333008 10.333 1 13l16 94h-164l-20 -118c-2 -13.333 -7.66699 -23.833 -17 -31.5s-20.666 -11.5 -33.999 -11.5c-15.333 0 -27.833 5.16699 -37.5 15.5s-14.5 23.5 -14.5 39.5c0 5.33301 0.333008 9.33301 1 12l16 94h-36
c-15.333 0 -28.166 5.16699 -38.499 15.5s-15.5 23.166 -15.5 38.499c0 14.667 5.16699 26.667 15.5 36s23.166 14 38.499 14h54l30 174h-47c-15.333 0 -28.166 5.16699 -38.499 15.5s-15.5 23.166 -15.5 38.499c0 14.667 5.16699 26.667 15.5 36s23.166 14 38.499 14h64
l20 114c2 12.667 7.5 23 16.5 31s20.167 12 33.5 12c16 0 28.833 -5 38.5 -15s14.5 -23 14.5 -39c0 -6 -0.333008 -10.333 -1 -13l-15 -90h163l20 114c2 13.333 7.66699 23.833 17 31.5s20.666 11.5 33.999 11.5c15.333 0 27.833 -5.16699 37.5 -15.5s14.5 -23.5 14.5 -39.5
c0 -5.33301 -0.333008 -9.33301 -1 -12l-15 -90h35c15.333 0 28.166 -5.16699 38.499 -15.5s15.5 -23.166 15.5 -38.499c0 -14.667 -5.16699 -26.667 -15.5 -36s-23.166 -14 -38.499 -14h-53zM414 265l30 174h-164l-30 -174h164z" />
    <glyph glyph-name="dollar" unicode="$" horiz-adv-x="597" 
d="M505 69c-34.667 -35.333 -79.002 -59 -133.002 -71v-62c0 -17.333 -5.83301 -31.833 -17.5 -43.5s-26.167 -17.5 -43.5 -17.5c-16.667 0 -30.667 5.83301 -42 17.5s-17 26.167 -17 43.5v56c-36 3.33301 -68.833 11 -98.5 23s-58.5 30 -86.5 54c-18 16 -27 33.667 -27 53
c0 15.333 5.66699 28.833 17 40.5s25 17.5 41 17.5c12.667 0 24 -4 34 -12c20.667 -16.667 40.334 -29.834 59.001 -39.501s39 -16.167 61 -19.5v195c-134 24.667 -201 91.667 -201 201c0 55.333 18.667 100.833 56 136.5s85.666 57.5 144.999 65.5v33
c0 17.333 5.83301 31.833 17.5 43.5s26.167 17.5 43.5 17.5c16.667 0 30.667 -5.83301 42 -17.5s17 -26.167 17 -43.5v-37c56.667 -10 103.334 -30.667 140.001 -62c19.333 -15.333 29 -33 29 -53c0 -15.333 -5.66699 -28.833 -17 -40.5s-24.666 -17.5 -39.999 -17.5
c-10 0 -19 3 -27 9c-20 16.667 -48.333 31 -85 43v-185c64.667 -15.333 111.667 -37.833 141 -67.5s44 -73.167 44 -130.5c0 -51.333 -17.333 -94.666 -52 -129.999zM189.998 456.5c14 -13.667 34.667 -24.5 62 -32.5v166c-27.333 -5.33301 -48 -15 -62 -29s-21 -31 -21 -51
c0 -22 7 -39.833 21 -53.5zM418.998 149.5c12 13 18 27.166 18 42.499c0 18.667 -5.33301 34.834 -16 48.501s-27 25.167 -49 34.5v-157c19.333 8 35 18.5 47 31.5z" />
    <glyph glyph-name="percent" unicode="%" horiz-adv-x="816" 
d="M109.5 345.5c-25 17 -44.501 40.333 -58.501 70s-21 62.5 -21 98.5c0 36.667 7 69.834 21 99.501s33.333 53 58 70s53 25.5 85 25.5s60.333 -8.5 85 -25.5s43.834 -40.333 57.501 -70s20.5 -62.834 20.5 -99.501c0 -36 -7.16699 -68.833 -21.5 -98.5s-34 -53 -59 -70
s-52.5 -25.5 -82.5 -25.5c-31.333 0 -59.5 8.5 -84.5 25.5zM170.999 12c-11.333 9.33301 -17 21 -17 35c0 8.66699 3.33301 18.667 10 30l398 601c12 16 25.667 24 41 24c12 0 23.667 -4.66699 35 -14s17 -21 17 -35c0 -8.66699 -3.33301 -18.667 -10 -30l-398 -601
c-12 -16 -25.667 -24 -41 -24c-12 0 -23.667 4.66699 -35 14zM239.999 438.5c11.333 19.667 17.001 44.8359 17.001 75.5029c0 31.333 -5.5 56.666 -16.5 75.999s-26.5 29 -46.5 29c-19.333 0 -34.833 -9.83301 -46.5 -29.5s-17.5 -44.834 -17.5 -75.501
s5.66699 -55.834 17 -75.501s27 -29.5 47 -29.5c19.333 0 34.666 9.83301 45.999 29.5zM540.5 15.502c-25 17 -44.834 40.333 -59.501 70s-22 62.5 -22 98.5c0 36.667 7 69.834 21 99.501s33.333 53 58 70s53 25.5 85 25.5s60.333 -8.5 85 -25.5s43.834 -40.333 57.501 -70
s20.5 -62.834 20.5 -99.501c0 -36 -7.16699 -68.833 -21.5 -98.5s-34 -53 -59 -70s-52.5 -25.5 -82.5 -25.5s-57.5 8.5 -82.5 25.5zM668.999 108.502c11.333 19.667 17.001 44.8359 17.001 75.5029c0 31.333 -5.5 56.666 -16.5 75.999s-26.5 29 -46.5 29
c-19.333 0 -34.833 -9.83301 -46.5 -29.5s-17.5 -44.834 -17.5 -75.501s5.66699 -55.834 17 -75.501s27 -29.5 47 -29.5c19.333 0 34.666 9.83301 45.999 29.5z" />
    <glyph glyph-name="ampersand" unicode="&#x26;" horiz-adv-x="709" 
d="M678 77c4 -8 6.00293 -17.332 6.00293 -27.999c0 -11.333 -4.33301 -22.666 -13 -33.999s-20.667 -17 -36 -17c-14.667 0 -26 3.33301 -34 10l-55 47l-32 28c-62 -62 -140.333 -93 -235 -93c-46 0 -88.167 10.167 -126.5 30.5s-68.333 47.333 -90 81
s-32.5 69.5 -32.5 107.5c0 98.667 49 169.667 147 213c-12.667 17.333 -22.334 34 -29.001 50s-10 33 -10 51c0 33.333 9 64.166 27 92.499s43.5 51.166 76.5 68.499s71.167 26 114.5 26c46 0 87.5 -7.83301 124.5 -23.5s61.833 -35.834 74.5 -60.501c6 -12 9 -25 9 -39
c0 -13.333 -4.83301 -24.5 -14.5 -33.5s-22.167 -13.5 -37.5 -13.5c-17.333 0 -30.333 6 -39 18c-14 18.667 -30.5 32 -49.5 40s-41.5 12 -67.5 12c-28.667 0 -51.167 -7.66699 -67.5 -23s-24.5 -34.666 -24.5 -57.999c0 -21.333 8.16699 -42.833 24.5 -64.5
s38.833 -46.5 67.5 -74.5l28 -28c21.333 -23.333 59 -60.666 113 -111.999c13.333 30 22.666 63 27.999 99c1.33301 11.333 5.66602 19.833 12.999 25.5s19 8.5 35 8.5c15.333 0 28 -5.83301 38 -17.5s15 -25.834 15 -42.501l-1 -10c-7.33301 -50 -22.333 -96.667 -45 -140
l78 -71c9.33301 -8.66699 16 -17 20 -25zM432.003 155.001c-66.667 60 -122 115.335 -166 166.002l-18 21c-36 -10.667 -61 -25.334 -75 -44.001s-21 -42.334 -21 -71.001c0 -34 12.5 -63.167 37.5 -87.5s64.167 -36.5 117.5 -36.5c47.333 0 89 17.333 125 52z" />
    <glyph glyph-name="quotesingle" unicode="'" horiz-adv-x="212" 
d="M102 700l30.999 -0.000976562c14.667 0 25.834 -3.16699 33.501 -9.5s11.5 -15.166 11.5 -26.499c0 -6.66699 -1.33301 -13.667 -4 -21l-68 -209c-8 -22 -22.333 -33 -43 -33c-10.667 0 -18.5 3.5 -23.5 10.5s-6.83301 17.167 -5.5 30.5l16 210c2.66699 32 20 48 52 48z
" />
    <glyph glyph-name="parenleft" unicode="(" horiz-adv-x="357" 
d="M265 -174c-76 50.667 -134.167 113.499 -174.5 188.499s-60.5 156.5 -60.5 244.5s20.167 169.5 60.5 244.5s98.5 137.833 174.5 188.5c8 5.33301 17 8 27 8c14.667 0 26.667 -5.66699 36 -17s14 -23 14 -35c0 -15.333 -7 -28.666 -21 -39.999
c-56.667 -44 -99.167 -96 -127.5 -156s-42.5 -124.333 -42.5 -193c0 -70 14 -135.5 42 -196.5s70.667 -111.833 128 -152.5c14 -10 21 -23.333 21 -40c0 -12.667 -5 -24.5 -15 -35.5s-21.667 -16.5 -35 -16.5c-10 0 -19 2.66699 -27 8z" />
    <glyph glyph-name="parenright" unicode=")" horiz-adv-x="357" 
d="M29 -165c-9.33301 11.333 -14 23.001 -14 35.001c0 15.333 7 28.666 21 39.999c56.667 44 99.167 96 127.5 156s42.5 124.333 42.5 193c0 70 -14 135.5 -42 196.5s-70.667 111.833 -128 152.5c-14 10 -21 23.333 -21 40c0 12.667 5 24.5 15 35.5s21.667 16.5 35 16.5
c10 0 19 -2.66699 27 -8c76 -50.667 134.167 -113.5 174.5 -188.5s60.5 -156.5 60.5 -244.5s-20.167 -169.5 -60.5 -244.5s-98.5 -137.833 -174.5 -188.5c-8 -5.33301 -17 -8 -27 -8c-14.667 0 -26.667 5.66699 -36 17z" />
    <glyph glyph-name="asterisk" unicode="*" horiz-adv-x="363" 
d="M158.5 392c-5.66699 6.66699 -8.16699 15 -7.5 25l9 79c0.666992 2 0.333984 3.33301 -0.999023 4s-3 0.333984 -5 -0.999023l-65 -47c-5.33301 -4.66699 -12 -7 -20 -7c-10.667 0 -19.334 5.33301 -26.001 16c-3.33301 5.33301 -5 11.333 -5 18
c0 6 1.83301 11.333 5.5 16s8.5 8.33398 14.5 11.001l73 33c2 0.666992 3 1.66699 3 3s-1 2.33301 -3 3l-73 33c-6.66699 2.66699 -11.667 6.5 -15 11.5s-5 10.5 -5 16.5s1.66699 11.667 5 17c6 10.667 15 16 27 16c6.66699 0 13 -2 19 -6l65 -48
c2 -1.33301 3.66699 -1.66602 5 -0.999023s1.66602 2 0.999023 4l-9 79c-0.666992 10 2 18.333 8 25s14 10 24 10c9.33301 0 16.833 -3.33301 22.5 -10s8.16699 -15 7.5 -25l-9 -79c-0.666992 -2 -0.333984 -3.33301 0.999023 -4s3 -0.333984 5 0.999023l65 47
c5.33301 4.66699 12 7 20 7c10.667 0 19.334 -5.33301 26.001 -16c3.33301 -4.66699 5 -10.667 5 -18c0 -6 -1.83301 -11.333 -5.5 -16s-8.5 -8.33398 -14.5 -11.001l-73 -33c-2 -0.666992 -3 -1.66699 -3 -3s1 -2.33301 3 -3l73 -33c6.66699 -2.66699 11.667 -6.5 15 -11.5
s5 -10.5 5 -16.5s-1.66699 -11.667 -5 -17c-6 -10.667 -15 -16 -27 -16c-6.66699 0 -13 2 -19 6l-65 48c-2 1.33301 -3.66699 1.66602 -5 0.999023s-1.66602 -2 -0.999023 -4l9 -79c0.666992 -10 -2 -18.333 -8 -25s-14 -10 -24 -10c-9.33301 0 -16.833 3.33301 -22.5 10z
" />
    <glyph glyph-name="plus" unicode="+" horiz-adv-x="578" 
d="M543 334.5c10.667 -10.333 16.001 -23.5 16.001 -39.5s-5.33301 -29.167 -16 -39.5s-24 -15.5 -40 -15.5h-140v-131c0 -18.667 -6.16699 -34 -18.5 -46s-27.833 -18 -46.5 -18s-34.167 6 -46.5 18s-18.5 27.333 -18.5 46v131h-137c-16 0 -29.333 5.33301 -40 16
s-16 24 -16 40s5.33301 29 16 39s24 15 40 15h137v149c0 18.667 6.16699 34 18.5 46s28.166 18 47.499 18c18.667 0 34 -6 46 -18s18 -27.333 18 -46v-149h140c16 0 29.333 -5.16699 40 -15.5z" />
    <glyph glyph-name="comma" unicode="," horiz-adv-x="275" 
d="M200 -50c-11.333 -23.333 -25.999 -43.667 -43.999 -61s-36.667 -26 -56 -26c-14.667 0 -26.334 3.16699 -35.001 9.5s-13 16.5 -13 30.5c0 10.667 2.66699 18.167 8 22.5s11.166 7.5 17.499 9.5s10.833 3.66699 13.5 5c18.667 10 28 23.333 28 40
c0 7.33301 -3.5 13.833 -10.5 19.5s-16.167 8.5 -27.5 8.5s-20.666 -2.33301 -27.999 -7c-8 3.33301 -14.167 7.66602 -18.5 12.999s-6.5 13.333 -6.5 24c0 13.333 5 25.833 15 37.5s22.333 21 37 28s29 10.5 43 10.5c29.333 0 52.333 -9.16699 69 -27.5s25 -44.5 25 -78.5
c0 -15.333 -5.66699 -34.666 -17 -57.999z" />
    <glyph glyph-name="hyphen" unicode="-" horiz-adv-x="396" 
d="M67.5 264c-11.667 11.333 -17.5 25.667 -17.5 43c0 16.667 5.83301 30.667 17.5 42s26.167 17 43.5 17h174c17.333 0 31.833 -5.83301 43.5 -17.5s17.5 -26.167 17.5 -43.5c0 -16.667 -5.83301 -30.5 -17.5 -41.5s-26.167 -16.5 -43.5 -16.5h-174
c-17.333 0 -31.833 5.66699 -43.5 17z" />
    <glyph glyph-name="period" unicode="." horiz-adv-x="249" 
d="M73.5 16.5c-10.333 10.333 -15.5 25.166 -15.5 44.499v17c0 19.333 5.16699 34.166 15.5 44.499s25.166 15.5 44.499 15.5h13c19.333 0 34.166 -5.16699 44.499 -15.5s15.5 -25.166 15.5 -44.499v-17c0 -19.333 -5.16699 -34.166 -15.5 -44.499
s-25.166 -15.5 -44.499 -15.5h-13c-19.333 0 -34.166 5.16699 -44.499 15.5z" />
    <glyph glyph-name="slash" unicode="/" horiz-adv-x="568" 
d="M48 -119.5c-11.333 9.66699 -17 21.5 -17 35.5c0 8 2 16 6 24l406 831c4.66699 9.33301 10.834 16.666 18.501 21.999s16.167 8 25.5 8c12.667 0 24.5 -4.83301 35.5 -14.5s16.5 -21.5 16.5 -35.5c0 -8 -2 -16 -6 -24l-405 -831
c-4.66699 -9.33301 -10.834 -16.666 -18.501 -21.999s-16.167 -8 -25.5 -8c-12.667 0 -24.667 4.83301 -36 14.5z" />
    <glyph glyph-name="zero" unicode="0" horiz-adv-x="614" 
d="M162.5 35c-40.333 30 -70.833 72.167 -91.5 126.5s-31 117.166 -31 188.499s10.333 134.166 31 188.499s51.167 96.5 91.5 126.5s88.5 45 144.5 45s104.167 -15 144.5 -45s70.833 -72.167 91.5 -126.5s31 -117.166 31 -188.499s-10.333 -134.166 -31 -188.499
s-51.167 -96.5 -91.5 -126.5s-88.5 -45 -144.5 -45s-104.167 15 -144.5 45zM407.5 171c24.333 40.667 36.5 100.334 36.5 179.001s-12.167 138.334 -36.5 179.001s-57.833 61 -100.5 61s-76.167 -20.333 -100.5 -61s-36.5 -100.334 -36.5 -179.001
s12.167 -138.334 36.5 -179.001s57.833 -61 100.5 -61s76.167 20.333 100.5 61z" />
    <glyph glyph-name="one" unicode="1" horiz-adv-x="364" 
d="M272 682.5c11.333 -11.667 17.0029 -26.166 17.0029 -43.499v-578c0 -17.333 -6.33301 -31.833 -19 -43.5s-28.334 -17.5 -47.001 -17.5s-34 5.83301 -46 17.5s-18 26.167 -18 43.5v474l-62 -38c-10 -6 -20.667 -9 -32 -9c-16.667 0 -30.834 6.33301 -42.501 19
s-17.5 26.667 -17.5 42c0 10.667 2.83301 20.667 8.5 30s13.167 16.666 22.5 21.999l151 90c11.333 6 25.666 9 42.999 9c16.667 0 30.667 -5.83301 42 -17.5z" />
    <glyph glyph-name="two" unicode="2" horiz-adv-x="536" 
d="M490 94c10.667 -10.667 16.002 -24 16.002 -40c0 -15.333 -5.33301 -28.166 -16 -38.499s-24 -15.5 -40 -15.5h-340c-17.333 0 -31 5.33301 -41 16s-15 24.334 -15 41.001s6 31.334 18 44.001l218 233c24.667 26.667 44.167 53.5 58.5 80.5s21.5 51.833 21.5 74.5
c0 30 -10.667 56 -32 78s-46 33 -74 33c-19.333 0 -38.833 -6.5 -58.5 -19.5s-37.5 -30.167 -53.5 -51.5c-12 -16 -27.333 -24 -46 -24c-14.667 0 -28.167 5.66699 -40.5 17s-18.5 24 -18.5 38c0 10 3.33301 20.167 10 30.5s16.667 22.166 30 35.499
c25.333 25.333 54.666 45.666 87.999 60.999s65.333 23 96 23c44 0 82.667 -9.33301 116 -28s59 -44.334 77 -77.001s27 -69.667 27 -111c0 -40.667 -10.833 -82.5 -32.5 -125.5s-50.834 -84.167 -87.501 -123.5l-127 -135h206c16 0 29.333 -5.33301 40 -16z" />
    <glyph glyph-name="three" unicode="3" horiz-adv-x="522" 
d="M393.5 412c28.333 -20 50.166 -46.1641 65.499 -78.4971s23 -66.833 23 -103.5c0 -48.667 -11 -91.167 -33 -127.5s-53 -64.166 -93 -83.499s-86.667 -29 -140 -29c-24 0 -48 3 -72 9s-45 14 -63 24c-24.667 13.333 -37 31.333 -37 54c0 16 5.66699 30.667 17 44
s25 20 41 20c13.333 0 27.666 -5 42.999 -15c28.667 -22 60.334 -33 95.001 -33c20.667 0 40.334 5.16699 59.001 15.5s33.834 25.333 45.501 45s17.5 42.167 17.5 67.5c0 36 -10.833 64 -32.5 84s-47.834 30 -78.501 30c-13.333 0 -25 -1.33301 -35 -4
s-16 -4.33398 -18 -5.00098c-17.333 -5.33301 -31.666 -8 -42.999 -8c-14.667 0 -26.334 5.16699 -35.001 15.5s-13 23.166 -13 38.499c0 9.33301 1.66699 17.666 5 24.999s9 15.333 17 24l155 169h-198c-16 0 -29.333 5.33301 -40 16s-16 24 -16 40
c0 15.333 5.33301 28.166 16 38.499s24 15.5 40 15.5h306c20 0 35.333 -5.5 46 -16.5s16 -25.5 16 -43.5c0 -16 -8 -32 -24 -48l-134 -148c36.667 -1.33301 69.167 -12 97.5 -32z" />
    <glyph glyph-name="four" unicode="4" horiz-adv-x="708" 
d="M612 284c10.667 -10.667 16 -24.001 16 -40.001c0 -15.333 -5.33301 -28.166 -16 -38.499s-24 -15.5 -40 -15.5h-42v-129c0 -17.333 -5.83301 -31.833 -17.5 -43.5s-26.167 -17.5 -43.5 -17.5c-16.667 -0 -30.667 5.83301 -42 17.5s-17 26.167 -17 43.5v129h-260
c-14.667 0 -28.334 5.83301 -41.001 17.5s-19 25.5 -19 41.5c0 14.667 5 28 15 40l316 387c12.667 16 29.334 24 50.001 24c16.667 0 30.667 -5.83301 42 -17.5s17 -26.167 17 -43.5v-339h42c16 0 29.333 -5.33301 40 -16zM248 299.999h162v200z" />
    <glyph glyph-name="five" unicode="5" horiz-adv-x="579" 
d="M394.5 439.5c35.667 -20.333 63.668 -48.1699 84.001 -83.5029s30.5 -74.666 30.5 -117.999c0 -44.667 -12.667 -86 -38 -124s-59 -68.167 -101 -90.5s-87.333 -33.5 -136 -33.5c-26 0 -52.833 4 -80.5 12s-50.167 19 -67.5 33c-8 6.66699 -14.667 16 -20 28
s-8 23.333 -8 34c0 12 5.16699 22.833 15.5 32.5s23.833 14.5 40.5 14.5c12 0 27 -6.33301 45 -19c28 -17.333 52.667 -26 74 -26c27.333 0 53 6.33301 77 19s43.167 29.667 57.5 51s21.5 44.333 21.5 69c0 36 -12.333 65.333 -37 88s-54 34 -88 34c-15.333 0 -29 -2 -41 -6
s-26.333 -10 -43 -18c-12 -6 -21.5 -10.333 -28.5 -13s-14.167 -4 -21.5 -4c-26 0 -44.5 7 -55.5 21s-16.5 30.667 -16.5 50c0 6.66699 0.333008 11.334 1 14.001l31 248c2.66699 14 9.5 25.5 20.5 34.5s24.167 13.5 39.5 13.5h289c16 0 29.333 -5.33301 40 -16
s16 -24 16 -40c0 -15.333 -5.33301 -28.166 -16 -38.499s-24 -15.5 -40 -15.5h-248l-19 -145c12.667 7.33301 28.667 13.333 48 18s37.666 7 54.999 7c44 0 83.833 -10.167 119.5 -30.5z" />
    <glyph glyph-name="six" unicode="6" horiz-adv-x="548" 
d="M393.5 422.5c33.667 -21 61.168 -49.332 82.501 -84.999s32 -74.167 32 -115.5c0 -42 -10.5 -80.833 -31.5 -116.5s-49.167 -63.834 -84.5 -84.501s-74.333 -31 -117 -31c-46 0 -87 12.833 -123 38.5s-63.667 59.334 -83 101.001s-29 86.167 -29 133.5
c0 48.667 8.5 102.167 25.5 160.5s48 113.5 93 165.5s106.167 89 183.5 111c8 2 15.667 3 23 3c17.333 0 31.666 -4.5 42.999 -13.5s17 -23.167 17 -42.5c0 -14.667 -4.83301 -27.5 -14.5 -38.5s-22.5 -18.833 -38.5 -23.5c-42 -12 -80.833 -33.333 -116.5 -64
s-61.834 -67.334 -78.501 -110.001c33.333 28.667 71.333 43 114 43c34.667 0 68.834 -10.5 102.501 -31.5zM355.001 135.001c22 23.333 33 52.333 33 87s-11 63.667 -33 87s-48.667 35 -80 35c-32 0 -58.833 -11.667 -80.5 -35s-32.5 -52.333 -32.5 -87
s10.833 -63.667 32.5 -87s48.5 -35 80.5 -35c31.333 0 58 11.667 80 35z" />
    <glyph glyph-name="seven" unicode="7" horiz-adv-x="569" 
d="M509.5 683.5c13 -11 19.5 -25.166 19.5 -42.499c0 -8.66699 -2 -17.667 -6 -27l-263 -581c-4.66699 -12 -12 -21.333 -22 -28s-21 -10 -33 -10c-16.667 0 -31.167 5.66699 -43.5 17s-18.5 25 -18.5 41c0 9.33301 2 18.333 6 27l233 510h-266
c-16 0 -29.333 5.33301 -40 16s-16 24 -16 40c0 15.333 5.33301 28.166 16 38.499s24 15.5 40 15.5h348c17.333 0 32.5 -5.5 45.5 -16.5z" />
    <glyph glyph-name="eight" unicode="8" horiz-adv-x="588" 
d="M501.5 295.5c17.667 -27.667 26.502 -56.499 26.502 -86.499c0 -38 -10.5 -73 -31.5 -105s-49.333 -57.333 -85 -76s-74.834 -28 -117.501 -28s-81.834 9.33301 -117.501 28s-64 44 -85 76s-31.5 67 -31.5 105c0 64 32.333 116 97 156
c-23.333 13.333 -42.5 31.333 -57.5 54s-22.5 49.334 -22.5 80.001c0 36.667 9.66699 70.334 29 101.001s45.5 55 78.5 73s69.5 27 109.5 27s76.5 -9 109.5 -27s59 -42.333 78 -73s28.5 -64.334 28.5 -101.001c0 -33.333 -7.83301 -60.833 -23.5 -82.5
s-35.167 -38.834 -58.5 -51.501c31.333 -18.667 55.833 -41.834 73.5 -69.501zM224.502 563.501c-18.333 -17.667 -27.5 -39.834 -27.5 -66.501c0 -27.333 9.16699 -49.833 27.5 -67.5s41.5 -26.5 69.5 -26.5c27.333 0 50.166 9 68.499 27s27.5 40.333 27.5 67
s-9.16699 48.834 -27.5 66.501s-41.166 26.5 -68.499 26.5c-28 0 -51.167 -8.83301 -69.5 -26.5zM375.002 139.501c22 19.667 33 43.5 33 71.5c0 28.667 -11 52.834 -33 72.501s-49 29.5 -81 29.5s-59 -9.83301 -81 -29.5s-33 -43.834 -33 -72.501
c0 -28 11 -51.833 33 -71.5s49 -29.5 81 -29.5s59 9.83301 81 29.5z" />
    <glyph glyph-name="nine" unicode="9" horiz-adv-x="548" 
d="M396 674.5c36 -25.667 63.666 -59.335 82.999 -101.002s29 -86.167 29 -133.5c0 -48.667 -8.5 -102.167 -25.5 -160.5s-48 -113.5 -93 -165.5s-106.167 -89 -183.5 -111c-8 -2 -15.667 -3 -23 -3c-17.333 0 -31.666 4.5 -42.999 13.5s-17 23.167 -17 42.5
c0 14.667 4.83301 27.5 14.5 38.5s22.5 18.833 38.5 23.5c42 12 80.833 33.333 116.5 64s61.834 67.334 78.501 110.001c-33.333 -28.667 -71.333 -43 -114 -43c-34.667 0 -68.834 10.5 -102.501 31.5s-61.167 49.333 -82.5 85s-32 74.167 -32 115.5
c0 42 10.5 80.833 31.5 116.5s49.167 63.834 84.5 84.501s74.333 31 117 31c46 0 87 -12.833 123 -38.5zM353.499 393.999c21.667 23.333 32.5 52.333 32.5 87s-10.833 63.667 -32.5 87s-48.5 35 -80.5 35c-31.333 0 -58 -11.667 -80 -35s-33 -52.333 -33 -87
s11 -63.667 33 -87s48.667 -35 80 -35c32 0 58.833 11.667 80.5 35z" />
    <glyph glyph-name="colon" unicode=":" horiz-adv-x="273" 
d="M85.5 406.5c-10.333 10.333 -15.5 25.166 -15.5 44.499v17c0 19.333 5.16699 34.166 15.5 44.499s25.166 15.5 44.499 15.5h13c19.333 0 34.166 -5.16699 44.499 -15.5s15.5 -25.166 15.5 -44.499v-17c0 -19.333 -5.16699 -34.166 -15.5 -44.499
s-25.166 -15.5 -44.499 -15.5h-13c-19.333 0 -34.166 5.16699 -44.499 15.5zM85.5 15.5c-10.333 10.333 -15.5 25.166 -15.5 44.499v17c0 19.333 5.16699 34.166 15.5 44.499s25.166 15.5 44.499 15.5h13c19.333 0 34.166 -5.16699 44.499 -15.5s15.5 -25.166 15.5 -44.499
v-17c0 -19.333 -5.16699 -34.166 -15.5 -44.499s-25.166 -15.5 -44.499 -15.5h-13c-19.333 0 -34.166 5.16699 -44.499 15.5z" />
    <glyph glyph-name="semicolon" unicode=";" horiz-adv-x="294" 
d="M111.5 406.5c-10.333 10.333 -15.5 25.166 -15.5 44.499v17c0 19.333 5.16699 34.166 15.5 44.499s25.166 15.5 44.499 15.5h13c19.333 0 34.166 -5.16699 44.499 -15.5s15.5 -25.166 15.5 -44.499v-17c0 -19.333 -5.16699 -34.166 -15.5 -44.499
s-25.166 -15.5 -44.499 -15.5h-13c-19.333 0 -34.166 5.16699 -44.499 15.5zM232 -50c-11.333 -23.333 -25.999 -43.667 -43.999 -61s-36.667 -26 -56 -26c-14.667 0 -26.334 3.16699 -35.001 9.5s-13 16.5 -13 30.5c0 10.667 2.66699 18.167 8 22.5s11.166 7.5 17.499 9.5
s10.833 3.66699 13.5 5c18.667 10 28 23.333 28 40c0 7.33301 -3.5 13.833 -10.5 19.5s-16.167 8.5 -27.5 8.5s-20.666 -2.33301 -27.999 -7c-8 3.33301 -14.167 7.66602 -18.5 12.999s-6.5 13.333 -6.5 24c0 13.333 5 25.833 15 37.5s22.333 21 37 28s29 10.5 43 10.5
c29.333 0 52.333 -9.16699 69 -27.5s25 -44.5 25 -78.5c0 -15.333 -5.66699 -34.666 -17 -57.999z" />
    <glyph glyph-name="less" unicode="&#x3c;" horiz-adv-x="525" 
d="M474 61c0 -15.333 -5.49805 -29.3311 -16.498 -41.998s-22.167 -19 -33.5 -19c-6.66699 0 -14.334 2.16699 -23.001 6.5s-17.667 9.16602 -27 14.499l-325 191c-8 4.66699 -14 11.167 -18 19.5s-6 17.166 -6 26.499c0 10 2 19 6 27s10 14.333 18 19l325 187
c19.333 11.333 34.666 17 45.999 17c13.333 0 25.833 -6.5 37.5 -19.5s17.5 -26.5 17.5 -40.5c0 -15.333 -7.33301 -27.333 -22 -36l-266 -154l265 -158c14.667 -8 22 -21 22 -39z" />
    <glyph glyph-name="equal" unicode="=" horiz-adv-x="619" 
d="M67 361.5c-11.333 11 -17 24.167 -17 39.5s5.66699 28.166 17 38.499s25.333 15.5 42 15.5h401c16.667 0 30.667 -5.16699 42 -15.5s17 -23.166 17 -38.499s-5.66699 -28.5 -17 -39.5s-25.333 -16.5 -42 -16.5h-401c-16.667 0 -30.667 5.5 -42 16.5zM67 167.5
c-11.333 11 -17 24.167 -17 39.5s5.66699 28.166 17 38.499s25.333 15.5 42 15.5h401c16.667 0 30.667 -5.16699 42 -15.5s17 -23.166 17 -38.499s-5.66699 -28.5 -17 -39.5s-25.333 -16.5 -42 -16.5h-401c-16.667 0 -30.667 5.5 -42 16.5z" />
    <glyph glyph-name="greater" unicode="&#x3e;" horiz-adv-x="525" 
d="M494 276.5c4 -8.33301 5.99805 -17.168 5.99805 -26.501c0 -10 -2 -19 -6 -27s-10 -14.333 -18 -19l-325 -187c-19.333 -11.333 -34.666 -17 -45.999 -17c-13.333 0 -25.833 6.5 -37.5 19.5s-17.5 26.5 -17.5 40.5c0 15.333 7.33301 27.333 22 36l266 154l-265 158
c-14.667 8 -22 21 -22 39c0 15.333 5.5 29.333 16.5 42s22.167 19 33.5 19c6.66699 0 14.334 -2.16699 23.001 -6.5s17.667 -9.16602 27 -14.499l325 -191c8 -4.66699 14 -11.167 18 -19.5z" />
    <glyph glyph-name="question" unicode="?" horiz-adv-x="527" 
d="M173 359.5c11.333 11.667 25.667 17.4971 43 17.4971c44 0 79.333 10.333 106 31s40 52.667 40 96c0 33.333 -12 61 -36 83s-54 33 -90 33c-36.667 0 -69 -12.333 -97 -37c-16 -14.667 -32.667 -22 -50 -22c-12.667 0 -24 4 -34 12c-17.333 13.333 -26 29 -26 47
c0 15.333 6.33301 29.333 19 42c24 24.667 52.167 43.834 84.5 57.501s66.833 20.5 103.5 20.5c45.333 0 86.666 -10.333 123.999 -31s67 -49.167 89 -85.5s33 -76.166 33 -119.499c0 -64 -18.333 -114.667 -55 -152s-85.334 -60.666 -146.001 -69.999
c-3.33301 -1.33301 -5 -3 -5 -5v-37c0 -17.333 -5.66699 -31.833 -17 -43.5s-25.666 -17.5 -42.999 -17.5s-31.666 5.83301 -42.999 17.5s-17 26.167 -17 43.5v76c0 17.333 5.66699 31.833 17 43.5zM166.501 15.4971c-10.333 10.333 -15.5 25.166 -15.5 44.499v17
c0 19.333 5.16699 34.166 15.5 44.499s25.166 15.5 44.499 15.5h13c19.333 0 34.166 -5.16699 44.499 -15.5s15.5 -25.166 15.5 -44.499v-17c0 -19.333 -5.16699 -34.166 -15.5 -44.499s-25.166 -15.5 -44.499 -15.5h-13c-19.333 0 -34.166 5.16699 -44.499 15.5z" />
    <glyph glyph-name="at" unicode="@" horiz-adv-x="964" 
d="M660 196c-0.666992 -4 -0.998047 -9.33594 -0.998047 -16.0029c0 -16 3.83301 -28 11.5 -36s17.5 -12 29.5 -12c26 0 50 12.833 72 38.5s39.667 59 53 100s20 82.833 20 125.5c0 46.667 -11 87.834 -33 123.501s-53.333 63.334 -94 83.001s-88 29.5 -142 29.5
c-85.333 0 -162.666 -17 -231.999 -51s-124 -83.167 -164 -147.5s-60 -140.166 -60 -227.499c0 -50.667 10.333 -98 31 -142s53 -79.667 97 -107s99.333 -41 166 -41c50.667 0 92 4.83301 124 14.5s65.667 24.5 101 44.5c7.33301 4 13.666 6 18.999 6
c13.333 0 23.333 -8.33301 30 -25c2 -4 3 -8 3 -12c0 -14.667 -12.667 -28.667 -38 -42c-40.667 -20.667 -78.334 -36.5 -113.001 -47.5s-76.667 -16.5 -126 -16.5c-85.333 0 -156 17.333 -212 52s-97 79.834 -123 135.501s-39 115.834 -39 180.501
c0 101.333 23.667 190.166 71 266.499s111.666 135 192.999 176s172 61.5 272 61.5c73.333 0 136.333 -14 189 -42s92.5 -65.667 119.5 -113s40.5 -100.333 40.5 -159c0 -56 -11 -110.167 -33 -162.5s-53.333 -95.166 -94 -128.499s-87.667 -50 -141 -50
c-27.333 0 -51.833 7.66699 -73.5 23s-35.167 35 -40.5 59c-31.333 -54.667 -80.666 -82 -147.999 -82c-25.333 0 -49.5 6.66699 -72.5 20s-41.5 32.666 -55.5 57.999s-21 54.333 -21 87c0 42 10.833 85.667 32.5 131s51 83.166 88 113.499s76.5 45.5 118.5 45.5
c22.667 0 43.167 -6.16699 61.5 -18.5s32.166 -29.5 41.499 -51.5l4 27c2 10.667 7.5 20 16.5 28s21.833 12 38.5 12c36 0 54 -14.333 54 -43c0 -6.66699 -0.333008 -12 -1 -16zM569.002 342.997c0 27.333 -7.33594 47 -22.0029 59s-33.667 18 -57 18
c-25.333 0 -48.166 -10.333 -68.499 -31s-36 -46.5 -47 -77.5s-16.5 -60.833 -16.5 -89.5c0 -25.333 6 -44.5 18 -57.5s28.667 -19.5 50 -19.5s40.833 6.5 58.5 19.5s32.334 28.667 44.001 47s19.834 35.5 24.501 51.5c10.667 32 16 58.667 16 80z" />
    <glyph glyph-name="A" unicode="A" horiz-adv-x="639" 
d="M629 54c0 -17.333 -5.66602 -31.499 -16.999 -42.499s-24.333 -16.5 -39 -16.5c-12 0 -22.833 3.66699 -32.5 11s-17.167 17.333 -22.5 30l-52 121h-298l-52 -122c-4.66699 -12.667 -11.834 -22.5 -21.501 -29.5s-20.167 -10.5 -31.5 -10.5
c-17.333 0 -30.5 4.66699 -39.5 14s-13.5 22 -13.5 38c0 6 1 12.333 3 19l249 598c5.33301 13.333 13.333 23.666 24 30.999s22.667 10.333 36 9c12 0 23.167 -3.5 33.5 -10.5s17.833 -16.833 22.5 -29.5l246 -586c3.33301 -8.66699 5 -16.667 5 -24zM217.001 272.001h200
l-101 234z" />
    <glyph glyph-name="B" unicode="B" horiz-adv-x="655" 
d="M581.5 324c22.333 -28.667 33.501 -65.668 33.501 -111.001c0 -79.333 -22.667 -134.666 -68 -165.999s-99.333 -47 -162 -47h-249c-17.333 -0 -31.833 5.83301 -43.5 17.5s-17.5 26.167 -17.5 43.5v578c0 17.333 5.83301 31.833 17.5 43.5s26.167 17.5 43.5 17.5h252
c126.667 0 190 -59.333 190 -178c0 -30 -7.16699 -56.5 -21.5 -79.5s-34.833 -41.167 -61.5 -54.5c35.333 -14 64.166 -35.333 86.499 -64zM427.501 561.499c-13.667 13.667 -32.833 20.5 -57.5 20.5h-165v-156h168c20 0 37.5 6.66699 52.5 20s22.5 31.333 22.5 54
c0 27.333 -6.83301 47.833 -20.5 61.5zM458.502 139.999c17.667 16.667 26.5 41 26.5 73c0 39.333 -10.333 65 -31 77s-46 18 -76 18h-173v-193h180c31.333 0 55.833 8.33301 73.5 25z" />
    <glyph glyph-name="C" unicode="C" horiz-adv-x="627" 
d="M596 615c0 -14 -4.99805 -27.6621 -14.998 -40.9951c-10.667 -14 -24.334 -21 -41.001 -21c-11.333 0 -22.666 3 -33.999 9c-32.667 15.333 -68 23 -106 23c-46.667 0 -87.334 -9.83301 -122.001 -29.5s-61.334 -47.334 -80.001 -83.001s-28 -76.5 -28 -122.5
c0 -78.667 21.167 -138.334 63.5 -179.001s97.833 -61 166.5 -61c40.667 0 76 7.66699 106 23c12 5.33301 22.667 8 32 8c17.333 0 32 -7.33301 44 -22c10 -12.667 15 -26.334 15 -41.001c0 -10.667 -2.66699 -20.334 -8 -29.001s-13 -15.334 -23 -20.001
c-52 -26 -107.333 -39 -166 -39c-65.333 0 -125.333 13.833 -180 41.5s-98.334 68.5 -131.001 122.5s-49 119.333 -49 196c0 68 15.5 129 46.5 183s73.833 96.167 128.5 126.5s116.334 45.5 185.001 45.5c59.333 0 114.333 -13 165 -39c20.667 -10.667 31 -27.667 31 -51z
" />
    <glyph glyph-name="D" unicode="D" horiz-adv-x="715" 
d="M536.5 653.5c45 -31 79.333 -73 103 -126s35.5 -112.167 35.5 -177.5s-11.833 -124.5 -35.5 -177.5s-58 -95 -103 -126s-98.833 -46.5 -161.5 -46.5h-239c-17.333 -0 -31.833 5.83301 -43.5 17.5s-17.5 26.167 -17.5 43.5v578c0 17.333 5.83301 31.833 17.5 43.5
s26.167 17.5 43.5 17.5h239c62.667 0 116.5 -15.5 161.5 -46.5zM500 181.5c30 44.333 44.999 100.5 44.999 168.5s-15.167 124.167 -45.5 168.5s-75.166 66.5 -134.499 66.5h-165v-470h165c60 0 105 22.167 135 66.5z" />
    <glyph glyph-name="E" unicode="E" horiz-adv-x="572" 
d="M514.5 97.5c11.667 -11.667 17.5 -25.166 17.5 -40.499c0 -16.667 -5.83301 -30.334 -17.5 -41.001s-26.167 -16 -43.5 -16h-335c-17.333 -0 -31.833 5.83301 -43.5 17.5s-17.5 26.167 -17.5 43.5v578c0 17.333 5.83301 31.833 17.5 43.5s26.167 17.5 43.5 17.5h335
c17.333 0 31.833 -5.5 43.5 -16.5s17.5 -25.167 17.5 -42.5c0 -16.667 -5.66699 -30.167 -17 -40.5s-26 -15.5 -44 -15.5h-271v-170h226c17.333 0 31.833 -5.5 43.5 -16.5s17.5 -25.167 17.5 -42.5c0 -16.667 -5.66699 -30.167 -17 -40.5s-26 -15.5 -44 -15.5h-226v-185h271
c17.333 0 31.833 -5.83301 43.5 -17.5z" />
    <glyph glyph-name="F" unicode="F" horiz-adv-x="562" 
d="M200 585l0.000976562 -176h216c17.333 0 31.833 -5.5 43.5 -16.5s17.5 -25.167 17.5 -42.5c0 -14.667 -5.83301 -27.667 -17.5 -39s-26.167 -17 -43.5 -17h-216v-233c0 -17.333 -6.16699 -31.833 -18.5 -43.5s-26.833 -17.5 -43.5 -17.5
c-18.667 0 -33.834 5.66699 -45.501 17s-17.5 26 -17.5 44v578c0 17.333 5.83301 31.833 17.5 43.5s26.167 17.5 43.5 17.5h325c17.333 0 31.833 -5.5 43.5 -16.5s17.5 -25.167 17.5 -42.5c0 -14.667 -5.83301 -27.667 -17.5 -39s-26.167 -17 -43.5 -17h-261z" />
    <glyph glyph-name="G" unicode="G" horiz-adv-x="696" 
d="M634 360.5c11.333 -11.667 17.001 -26.1621 17.001 -43.4951v-212c0 -23.333 -10.333 -41.333 -31 -54c-65.333 -40.667 -137 -61 -215 -61c-66 0 -127 16.167 -183 48.5s-100.333 76 -133 131s-49 115.167 -49 180.5s16.333 125.5 49 180.5s77 98.667 133 131
s117 48.5 183 48.5s123.333 -13.333 172 -40c10 -5.33301 17.5 -12.333 22.5 -21s7.5 -18 7.5 -28c0 -16.667 -5.5 -31.167 -16.5 -43.5s-24.5 -18.5 -40.5 -18.5c-10 0 -21 2.66699 -33 8c-36 15.333 -73.333 23 -112 23c-42.667 0 -82 -10.833 -118 -32.5
s-64.5 -50.834 -85.5 -87.501s-31.5 -76.667 -31.5 -120s10.5 -83.333 31.5 -120s49.5 -65.834 85.5 -87.501s75.333 -32.5 118 -32.5c18.667 0 38.667 1.66699 60 5s40 7.66602 56 12.999v130h-94c-17.333 0 -31.833 5.66699 -43.5 17s-17.5 25.666 -17.5 42.999
s5.83301 31.666 17.5 42.999s26.167 17 43.5 17h164c17.333 0 31.666 -5.83301 42.999 -17.5z" />
    <glyph glyph-name="H" unicode="H" horiz-adv-x="719" 
d="M627 683c11.333 -11.333 17 -26 17 -44v-578c0 -17.333 -6 -31.833 -18 -43.5s-27.333 -17.5 -46 -17.5c-16.667 -0 -31 5.83301 -43 17.5s-18 26.167 -18 43.5v233h-319v-233c0 -17.333 -6.33301 -31.833 -19 -43.5s-27.334 -17.5 -44.001 -17.5
c-18 -0 -32.833 5.83301 -44.5 17.5s-17.5 26.167 -17.5 43.5v578c0 17.333 6 31.833 18 43.5s27.333 17.5 46 17.5c16.667 0 31 -5.83301 43 -17.5s18 -26.167 18 -43.5v-230h319v230c0 17.333 6.33301 31.833 19 43.5s27.334 17.5 44.001 17.5
c18.667 0 33.667 -5.66699 45 -17z" />
    <glyph glyph-name="I" unicode="I" horiz-adv-x="275" 
d="M181 17.5c-12.667 -11.667 -27.333 -17.5 -44 -17.5c-18 -0 -32.833 5.83301 -44.5 17.5s-17.5 26.167 -17.5 43.5v578c0 17.333 6 31.833 18 43.5s27.333 17.5 46 17.5c16.667 0 31 -5.83301 43 -17.5s18 -26.167 18 -43.5v-578c0 -17.333 -6.33301 -31.833 -19 -43.5z
" />
    <glyph glyph-name="J" unicode="J" horiz-adv-x="552" 
d="M132 13.5c-32.667 15.667 -59.335 37.5 -80.002 65.5c-8 12 -12 23.667 -12 35c0 16 6.33301 29.833 19 41.5s25.667 17.5 39 17.5c17.333 0 36 -10 56 -30c12.667 -12 25.667 -20.5 39 -25.5s28.333 -7.5 45 -7.5c19.333 0 37.833 5 55.5 15s31.834 23.5 42.501 40.5
s16 34.833 16 53.5v420c0 17.333 6.33301 31.833 19 43.5s27.334 17.5 44.001 17.5c18.667 0 33.667 -5.66699 45 -17s17 -26 17 -44v-420c0 -40 -10.667 -77.667 -32 -113s-50.333 -63.5 -87 -84.5s-76.667 -31.5 -120 -31.5c-38 0 -73.333 7.83301 -106 23.5z" />
    <glyph glyph-name="K" unicode="K" horiz-adv-x="655" 
d="M621 84.5c2.66699 -7.66699 4.00195 -14.833 4.00195 -21.5c0 -18 -6.83301 -33 -20.5 -45s-29.5 -18 -47.5 -18c-8.66699 0 -17 2 -25 6s-14.667 9.66699 -20 17l-217 286l-95 -91v-157c0 -18 -5.83301 -32.667 -17.5 -44s-26.834 -17 -45.501 -17
c-18 -0 -32.833 5.83301 -44.5 17.5s-17.5 26.167 -17.5 43.5v578c0 17.333 6 31.833 18 43.5s27.333 17.5 46 17.5c18 0 32.667 -5.66699 44 -17s17 -26 17 -44v-272l320 315c15.333 15.333 31.666 23 48.999 23c15.333 0 28.333 -6.33301 39 -19s16 -26 16 -40
s-6 -27 -18 -39l-218 -208l223 -295c4 -5.33301 7.33301 -11.833 10 -19.5z" />
    <glyph glyph-name="L" unicode="L" horiz-adv-x="562" 
d="M504.5 100.5c11.667 -11 17.5 -25.167 17.5 -42.5c0 -16.667 -5.83301 -30.5 -17.5 -41.5s-26.167 -16.5 -43.5 -16.5h-325c-17.333 -0 -31.833 5.83301 -43.5 17.5s-17.5 26.167 -17.5 43.5v578c0 17.333 6 31.833 18 43.5s27.333 17.5 46 17.5
c16.667 0 31 -5.83301 43 -17.5s18 -26.167 18 -43.5v-522h261c17.333 0 31.833 -5.5 43.5 -16.5z" />
    <glyph glyph-name="M" unicode="M" horiz-adv-x="819" 
d="M725.5 683.5c12.333 -11.667 18.5059 -26.167 18.5059 -43.5v-579c0 -17.333 -5.66699 -31.833 -17 -43.5s-26.333 -17.5 -45 -17.5s-33.834 5.66699 -45.501 17s-17.5 26 -17.5 44v403l-165 -252c-6.66699 -8 -14.334 -14.5 -23.001 -19.5s-17.667 -7.16699 -27 -6.5
c-8.66699 -0.666992 -17.334 1.5 -26.001 6.5s-16.334 11.5 -23.001 19.5l-165 261v-412c0 -18 -5.33301 -32.667 -16 -44s-24.667 -17 -42 -17c-16.667 -0 -30.334 5.83301 -41.001 17.5s-16 26.167 -16 43.5v579c0 16.667 6.16699 31 18.5 43s27.166 18 44.499 18
c10 0 20 -2.5 30 -7.5s17.667 -11.5 23 -19.5l218 -335l224 335c5.33301 8 12.5 14.5 21.5 19.5s18.167 7.5 27.5 7.5c16.667 0 31.167 -5.83301 43.5 -17.5z" />
    <glyph glyph-name="N" unicode="N" horiz-adv-x="735" 
d="M645 684c10 -10.667 14.999 -24 14.999 -40v-583c0 -17.333 -5.83301 -31.833 -17.5 -43.5s-26.167 -17.5 -43.5 -17.5c-9.33301 0 -18.5 1.5 -27.5 4.5s-15.5 7.16699 -19.5 12.5l-367 466v-427c0 -16 -5.16699 -29.333 -15.5 -40s-23.833 -16 -40.5 -16
c-16 -0 -29 5.33301 -39 16s-15 24 -15 40v583c0 17.333 5.83301 31.833 17.5 43.5s26.167 17.5 43.5 17.5c10 0 19.833 -2 29.5 -6s16.834 -9.33301 21.501 -16l364 -464v430c0 16 5.16699 29.333 15.5 40s23.5 16 39.5 16s29 -5.33301 39 -16z" />
    <glyph glyph-name="O" unicode="O" horiz-adv-x="759" 
d="M675 168.5c-29.333 -55 -69.833 -98.5 -121.5 -130.5s-109.834 -48 -174.501 -48s-122.834 16 -174.501 48s-92 75.5 -121 130.5s-43.5 115.5 -43.5 181.5s14.5 126.5 43.5 181.5s69.333 98.5 121 130.5s109.834 48 174.501 48s122.834 -16 174.501 -48
s92.167 -75.5 121.5 -130.5s44 -115.5 44 -181.5s-14.667 -126.5 -44 -181.5zM562 471.5c-18 36.333 -43 65.1699 -75 86.5029s-68 32 -108 32c-40.667 0 -76.834 -10.5 -108.501 -31.5s-56.334 -49.833 -74.001 -86.5s-26.5 -77.334 -26.5 -122.001
s8.83301 -85.334 26.5 -122.001s42.334 -65.5 74.001 -86.5s67.834 -31.5 108.501 -31.5c40 0 76 10.667 108 32s57 50.166 75 86.499s27 76.833 27 121.5s-9 85.167 -27 121.5z" />
    <glyph glyph-name="P" unicode="P" horiz-adv-x="603" 
d="M461 669.5c30.667 -20.333 55.335 -47.667 74.002 -82s28 -71.833 28 -112.5c0 -40 -9.33301 -77.333 -28 -112s-43.334 -62.167 -74.001 -82.5s-63 -30.5 -97 -30.5h-174v-189c0 -18 -5.33301 -32.667 -16 -44s-24.667 -17 -42 -17
c-16.667 -0 -30.334 5.83301 -41.001 17.5s-16 26.167 -16 43.5v578c0 17.333 5.83301 31.833 17.5 43.5s26.167 17.5 43.5 17.5h228c34 0 66.333 -10.167 97 -30.5zM401.501 379.999c12.333 10.667 22.333 24.5 30 41.5s11.5 34.833 11.5 53.5s-3.83301 36.5 -11.5 53.5
s-17.667 30.667 -30 41s-24.833 15.5 -37.5 15.5h-174v-221h174c12.667 0 25.167 5.33301 37.5 16z" />
    <glyph glyph-name="Q" unicode="Q" horiz-adv-x="755" 
d="M762 -46c12 -12 17.9961 -25.332 17.9961 -39.999c0 -19.333 -11.167 -37.833 -33.5 -55.5s-49.666 -31.834 -81.999 -42.501s-61.166 -16 -86.499 -16c-42.667 0 -76.5 4.16699 -101.5 12.5s-50.167 19.833 -75.5 34.5c-16.667 10 -30.334 17.167 -41.001 21.5
s-23.334 6.5 -38.001 6.5c-8 0 -14.667 -1 -20 -3s-12.333 -5 -21 -9c-8.66699 -4.66699 -16.667 -8.16699 -24 -10.5s-16.666 -3.5 -27.999 -3.5c-16 0 -29.833 6.16699 -41.5 18.5s-17.5 26.166 -17.5 41.499c0 26 11.667 43.333 35 52l99 37
c-52 11.333 -98 33.833 -138 67.5s-71 75.167 -93 124.5s-33 102.666 -33 159.999c0 66 14.5 126.5 43.5 181.5s69.333 98.5 121 130.5s109.834 48 174.501 48s122.834 -16 174.501 -48s92.167 -75.5 121.5 -130.5s44 -115.5 44 -181.5
c0 -57.333 -11.167 -110.666 -33.5 -159.999s-53.666 -90.833 -93.999 -124.5s-86.5 -56.167 -138.5 -67.5l-61 -23c15.333 -2 29.5 -5.66699 42.5 -11s27.833 -12.666 44.5 -21.999c20.667 -11.333 38.667 -19.666 54 -24.999s32.666 -8 51.999 -8c16.667 0 31 2.5 43 7.5
s23.667 12.167 35 21.5l18 14.5c8 6.33301 15.333 11.166 22 14.499s13.334 5 20.001 5c14 0 27 -6 39 -18zM196.496 228.001c17.667 -36.667 42.334 -65.4961 74.001 -86.4961s67.834 -31.5 108.501 -31.5c40 0 76 10.667 108 32s57 50.166 75 86.499s27 76.833 27 121.5
s-9 85.167 -27 121.5s-43 65.166 -75 86.499s-68 32 -108 32c-40.667 0 -76.834 -10.5 -108.501 -31.5s-56.334 -49.833 -74.001 -86.5s-26.5 -77.334 -26.5 -122.001s8.83301 -85.334 26.5 -122.001z" />
    <glyph glyph-name="R" unicode="R" horiz-adv-x="687" 
d="M644.5 77c5 -8.66699 7.49707 -17.665 7.49707 -26.998c0 -12 -4 -23 -12 -33c-10 -12 -25.333 -18 -46 -18c-16 0 -30.667 3.66699 -44 11c-48 27.333 -72 83 -72 167c0 24 -7.83301 43 -23.5 57s-38.167 21 -67.5 21h-187v-194c0 -18 -4.83301 -32.667 -14.5 -44
s-22.5 -17 -38.5 -17c-19.333 0 -36.166 5.83301 -50.499 17.5s-21.5 26.167 -21.5 43.5v578c0 17.333 5.83301 31.833 17.5 43.5s26.167 17.5 43.5 17.5h288c34.667 0 67.334 -9.33301 98.001 -28s55.167 -44.334 73.5 -77.001s27.5 -69.334 27.5 -110.001
c0 -33.333 -9 -65.833 -27 -97.5s-41.333 -56.834 -70 -75.501c42 -29.333 65 -68.666 69 -117.999c2 -10.667 3 -21 3 -31c2.66699 -20.667 5.33398 -35.5 8.00098 -44.5s8.66699 -15.833 18 -20.5c8.66699 -5.33301 15.5 -12.333 20.5 -21zM453.997 375.002
c11.333 11.333 20.666 26.499 27.999 45.499s11 39.5 11 61.5c0 18.667 -3.66699 35.834 -11 51.501s-16.666 28.167 -27.999 37.5s-23 14 -35 14h-219v-227h219c12 0 23.667 5.66699 35 17z" />
    <glyph glyph-name="S" unicode="S" horiz-adv-x="597" 
d="M172 8c-37.333 12 -72.334 32.334 -105.001 61.001c-18 16 -27 33.667 -27 53c0 15.333 5.66699 28.833 17 40.5s25 17.5 41 17.5c12.667 0 24 -4 34 -12c26.667 -22 52.667 -38 78 -48s55.333 -15 90 -15c37.333 0 69.5 8.33301 96.5 25s40.5 37.334 40.5 62.001
c0 30 -13.333 53.5 -40 70.5s-69 29.833 -127 38.5c-146 21.333 -219 89.333 -219 204c0 42 11 78.5 33 109.5s52 54.667 90 71s80.333 24.5 127 24.5c42 0 81.5 -6.33301 118.5 -19s67.833 -29.334 92.5 -50.001c19.333 -15.333 29 -33 29 -53
c0 -15.333 -5.66699 -28.833 -17 -40.5s-24.666 -17.5 -39.999 -17.5c-10 0 -19 3 -27 9c-17.333 14 -41.5 26.833 -72.5 38.5s-58.833 17.5 -83.5 17.5c-42 0 -74.5 -7.83301 -97.5 -23.5s-34.5 -36.167 -34.5 -61.5c0 -28.667 11.833 -50.334 35.5 -65.001
s60.834 -26.667 111.501 -36c57.333 -10 103.166 -22.833 137.499 -38.5s60.166 -37 77.499 -64s26 -62.833 26 -107.5c0 -42 -11.833 -78.833 -35.5 -110.5s-55.167 -56 -94.5 -73s-81.666 -25.5 -126.999 -25.5c-48 0 -90.667 6 -128 18z" />
    <glyph glyph-name="T" unicode="T" horiz-adv-x="626" 
d="M579 684c11.333 -10.667 17.001 -24.6689 17.001 -42.002s-5.66699 -31.166 -17 -41.499s-26 -15.5 -44 -15.5h-157v-524c0 -17.333 -6.33301 -31.833 -19 -43.5s-28.334 -17.5 -47.001 -17.5s-34 5.83301 -46 17.5s-18 26.167 -18 43.5v524h-157
c-18 0 -32.667 5.33301 -44 16s-17 24.667 -17 42c0 16.667 5.83301 30.334 17.5 41.001s26.167 16 43.5 16h444c18 0 32.667 -5.33301 44 -16z" />
    <glyph glyph-name="U" unicode="U" horiz-adv-x="705" 
d="M614 684c10.667 -11.333 15.999 -26 15.999 -44v-362c0 -55.333 -11.667 -104.333 -35 -147s-56 -76 -98 -100s-90 -36 -144 -36s-102.167 12 -144.5 36s-75.166 57.333 -98.499 100s-35 91.667 -35 147v362c0 17.333 6 31.833 18 43.5s27.333 17.5 46 17.5
c16 0 30 -5.83301 42 -17.5s18 -26.167 18 -43.5v-362c0 -32 7 -60.5 21 -85.5s32.833 -44.167 56.5 -57.5s49.167 -20 76.5 -20c28.667 0 55.5 6.66699 80.5 20s45 32.5 60 57.5s22.5 53.5 22.5 85.5v362c0 18 5 32.667 15 44s23.667 17 41 17s31.333 -5.66699 42 -17z" />
    <glyph glyph-name="V" unicode="V" horiz-adv-x="678" 
d="M629.5 685c12.333 -11.333 18.5 -24.998 18.5 -40.998c0 -8.66699 -2 -17.667 -6 -27l-247 -578c-6 -12.667 -14.333 -22.334 -25 -29.001s-22 -10 -34 -10c-11.333 0.666992 -21.833 4.16699 -31.5 10.5s-17.167 15.5 -22.5 27.5l-247 580c-3.33301 6.66699 -5 15 -5 25
c0 18 6.66699 32.5 20 43.5s27 16.5 41 16.5c11.333 0 22 -3.33301 32 -10s17.667 -16.334 23 -29.001l201 -473l184 473c5.33301 12 13 21.333 23 28s20.667 10 32 10c16.667 0 31.167 -5.66699 43.5 -17z" />
    <glyph glyph-name="W" unicode="W" horiz-adv-x="943" 
d="M906.5 684.5c13.667 -12.333 20.498 -27.833 20.498 -46.5c0 -6 -1 -12.667 -3 -20l-197 -580c-4 -11.333 -11 -20.333 -21 -27s-21 -10.334 -33 -11.001c-12 0 -23.333 3.33301 -34 10s-19 16.334 -25 29.001l-142 323l-143 -323
c-6 -12.667 -14.333 -22.334 -25 -29.001s-22 -10 -34 -10c-12 0.666992 -23 4.33398 -33 11.001s-17 15.667 -21 27l-197 580c-2 7.33301 -3 14 -3 20c0 18.667 6.83301 34.167 20.5 46.5s28.834 18.5 45.501 18.5c13.333 0 25.333 -3.5 36 -10.5s18 -16.5 22 -28.5
l149 -452l130 312c5.33301 12 13 21.5 23 28.5s21.333 10.167 34 9.5c12.667 0.666992 23.834 -2.5 33.501 -9.5s17.167 -16.5 22.5 -28.5l123 -309l148 449c4 12 11.5 21.5 22.5 28.5s23.167 10.5 36.5 10.5c16 0 30.833 -6.16699 44.5 -18.5z" />
    <glyph glyph-name="X" unicode="X" horiz-adv-x="655" 
d="M597 92c8 -10.667 12 -23.002 12 -37.002c0 -17.333 -6.33301 -31.666 -19 -42.999s-26.334 -17 -41.001 -17c-19.333 0 -35.666 8.66699 -48.999 26l-178 237l-173 -235c-13.333 -18.667 -30 -28 -50 -28c-14.667 0 -27.334 5.33301 -38.001 16s-16 23 -16 37
c0 14.667 5 28.334 15 41.001l193 261l-193 256c-8.66699 10.667 -13 22.667 -13 36c0 16.667 6.33301 31 19 43s26.667 18 42 18c19.333 0 35.666 -8.66699 48.999 -26l176 -234l172 229c6.66699 9.33301 14.334 16.5 23.001 21.5s17.334 7.5 26.001 7.5
c14.667 0 27.667 -5.83301 39 -17.5s17 -24.5 17 -38.5c0 -12.667 -4.33301 -24.667 -13 -36l-195 -257z" />
    <glyph glyph-name="Y" unicode="Y" horiz-adv-x="596" 
d="M570 604l-208.999 -299.001v-244c0 -17.333 -5.66699 -31.833 -17 -43.5s-25 -17.5 -41 -17.5c-16.667 0 -30.834 5.83301 -42.501 17.5s-17.5 26.167 -17.5 43.5v258l-208 276c-12 16 -18 31.667 -18 47c0 17.333 6.83301 31.833 20.5 43.5s28.167 17.5 43.5 17.5
c18.667 0 35 -9.33301 49 -28l176 -243l165 241c14 20 30.667 30 50 30c16 0 30 -6 42 -18s18 -26.667 18 -44c0 -13.333 -3.66699 -25.666 -11 -36.999z" />
    <glyph glyph-name="Z" unicode="Z" horiz-adv-x="648" 
d="M599 603l-380 -488.002h319c18 0 32.667 -5.16699 44 -15.5s17 -24.166 17 -41.499c0 -16.667 -5.83301 -30.5 -17.5 -41.5s-26.167 -16.5 -43.5 -16.5h-439c-17.333 0 -32.333 6 -45 18s-19 25.667 -19 41c0 12.667 4.66699 25.334 14 38.001l379 488h-289
c-18 0 -32.667 5.33301 -44 16s-17 24.667 -17 42c0 16.667 5.83301 30.334 17.5 41.001s26.167 16 43.5 16h409c16 0 30.833 -5.66699 44.5 -17s20.5 -25.333 20.5 -42c0 -12.667 -4.66699 -25.334 -14 -38.001z" />
    <glyph glyph-name="bracketleft" unicode="[" horiz-adv-x="407" 
d="M373.5 -108.5c9 -9 13.5 -20.5 13.5 -34.5c0 -13.333 -4.5 -24.5 -13.5 -33.5s-20.5 -13.5 -34.5 -13.5h-211c-14 0 -25.5 4.5 -34.5 13.5s-13.5 20.5 -13.5 34.5v794c0 14 4.5 25.5 13.5 34.5s20.5 13.5 34.5 13.5h211c14 0 25.5 -4.5 34.5 -13.5s13.5 -20.5 13.5 -34.5
c0 -13.333 -4.5 -24.5 -13.5 -33.5s-20.5 -13.5 -34.5 -13.5h-144v-700h144c14 0 25.5 -4.5 34.5 -13.5z" />
    <glyph glyph-name="backslash" unicode="\" horiz-adv-x="568" 
d="M458.5 -126c-7.66699 5.33301 -13.834 12.666 -18.501 21.999l-405 831c-4 8 -6 16 -6 24c0 14 5.5 25.833 16.5 35.5s22.833 14.5 35.5 14.5c9.33301 0 17.833 -2.66699 25.5 -8s13.834 -12.666 18.501 -21.999l406 -831c4 -8 6 -16 6 -24
c0 -14.667 -5.83301 -26.667 -17.5 -36s-23.5 -14 -35.5 -14c-9.33301 0 -17.833 2.66699 -25.5 8z" />
    <glyph glyph-name="bracketright" unicode="]" horiz-adv-x="407" 
d="M313.5 686.5c9 -9 13.5 -20.5 13.5 -34.5v-794c0 -14 -4.5 -25.5 -13.5 -34.5s-20.5 -13.5 -34.5 -13.5h-211c-14 0 -25.5 4.5 -34.5 13.5s-13.5 20.5 -13.5 34.5c0 13.333 4.5 24.5 13.5 33.5s20.5 13.5 34.5 13.5h144v700h-144c-14 0 -25.5 4.5 -34.5 13.5
s-13.5 20.5 -13.5 34.5c0 13.333 4.5 24.5 13.5 33.5s20.5 13.5 34.5 13.5h211c14 0 25.5 -4.5 34.5 -13.5z" />
    <glyph glyph-name="asciicircum" unicode="^" horiz-adv-x="618" 
d="M557 414c4 -6 7.00098 -11.667 9.00098 -17s3 -10.333 3 -15c0 -16.667 -6.33301 -31.334 -19 -44.001s-27.667 -19 -45 -19c-22.667 0 -37.667 6.33301 -45 19l-150 244l-152 -244c-8.66699 -12.667 -23.667 -19 -45 -19c-16.667 0 -31.334 6.16699 -44.001 18.5
s-19 27.166 -19 44.499c0 6.66699 1.33301 12.834 4 18.501s5.66699 11.334 9 17.001s5.66602 9.16699 6.99902 10.5l157 257c7.33301 12 17.333 19.833 30 23.5s29.667 5.5 51 5.5c22.667 0 40.334 -2 53.001 -6s22.667 -11.667 30 -23l158 -258
c1.33301 -2.66699 4 -7 8 -13z" />
    <glyph glyph-name="underscore" unicode="_" horiz-adv-x="704" 
d="M63.5 -146.5c-9 9 -13.5 20.167 -13.5 33.5s4.5 24.5 13.5 33.5s20.5 13.5 34.5 13.5h508c14 0 25.5 -4.5 34.5 -13.5s13.5 -20.5 13.5 -34.5c0 -13.333 -4.5 -24.333 -13.5 -33s-20.5 -13 -34.5 -13h-508c-14 0 -25.5 4.5 -34.5 13.5z" />
    <glyph glyph-name="grave" unicode="`" horiz-adv-x="259" 
d="M150 606l-99.998 53.001c-12 6.66699 -21.167 14.667 -27.5 24s-9.5 19 -9.5 29c0 14 5.66699 25.667 17 35s23.333 14 36 14c15.333 0 31.666 -7.33301 48.999 -22l86 -76c9.33301 -8.66699 14 -17.667 14 -27c0 -10.667 -3.83301 -19.334 -11.5 -26.001
s-17.834 -10 -30.501 -10c-7.33301 0 -15 2 -23 6z" />
    <glyph glyph-name="a" unicode="a" horiz-adv-x="623" 
d="M541 528c11.333 -11.333 17 -25.998 17 -43.998v-423c0 -17.333 -5.66699 -31.833 -17 -43.5s-25.666 -17.5 -42.999 -17.5s-31.5 5.66699 -42.5 17s-16.833 25.666 -17.5 42.999c-16.667 -19.333 -39.167 -35.833 -67.5 -49.5s-58.166 -20.5 -89.499 -20.5
c-46 0 -87.667 11.833 -125 35.5s-66.833 56.5 -88.5 98.5s-32.5 89.667 -32.5 143s10.667 101.166 32 143.499s50.5 75.333 87.5 99s77.833 35.5 122.5 35.5c32 0 62 -5.83301 90 -17.5s51.667 -26.5 71 -44.5v1c0 17.333 5.66699 31.833 17 43.5s25.666 17.5 42.999 17.5
s31.666 -5.66699 42.999 -17zM402 147.502c27.333 31.667 41 71.5 41 119.5s-13.667 88 -41 120s-62.666 48 -105.999 48c-42.667 0 -77.667 -16 -105 -48s-41 -72 -41 -120s13.5 -87.833 40.5 -119.5s62.167 -47.5 105.5 -47.5s78.666 15.833 105.999 47.5z" />
    <glyph glyph-name="b" unicode="b" horiz-adv-x="623" 
d="M467 509.5c37.333 -23.667 66.833 -56.501 88.5 -98.501s32.5 -89.667 32.5 -143s-10.667 -101.166 -32 -143.499s-50.5 -75.333 -87.5 -99s-77.833 -35.5 -122.5 -35.5c-32 0 -62.167 6.5 -90.5 19.5s-51.833 28.833 -70.5 47.5v-6
c0 -17.333 -5.66699 -31.833 -17 -43.5s-25.666 -17.5 -42.999 -17.5s-31.666 5.66699 -42.999 17s-17 26 -17 44v628c0 17.333 5.66699 31.833 17 43.5s25.666 17.5 42.999 17.5s31.666 -5.83301 42.999 -17.5s17 -26.167 17 -43.5v-209c16 20 38.333 37.5 67 52.5
s58.667 22.5 90 22.5c46 0 87.667 -11.833 125 -35.5zM432 147.999c27.333 32 41 72 41 120s-13.5 87.833 -40.5 119.5s-62.167 47.5 -105.5 47.5s-78.666 -15.833 -105.999 -47.5s-41 -71.5 -41 -119.5s13.667 -88 41 -120s62.666 -48 105.999 -48
c42.667 0 77.667 16 105 48z" />
    <glyph glyph-name="c" unicode="c" horiz-adv-x="515" 
d="M435 518.5c34.667 -17.667 52 -41.166 52 -70.499c0 -14.667 -4.33301 -27.5 -13 -38.5s-20 -16.5 -34 -16.5c-10.667 0 -19.334 1.5 -26.001 4.5s-13.167 7 -19.5 12s-12.5 9.16699 -18.5 12.5c-6.66699 3.33301 -16.5 6.33301 -29.5 9s-23.5 4 -31.5 4
c-50 0 -89.167 -15.5 -117.5 -46.5s-42.5 -71.5 -42.5 -121.5c0 -48 14.333 -87.833 43 -119.5s65.334 -47.5 110.001 -47.5c32.667 0 57 4 73 12c4 2 9.5 5.5 16.5 10.5s13.5 8.83301 19.5 11.5s13.333 4 22 4c16.667 0 29.834 -5.33301 39.501 -16
s14.5 -24.334 14.5 -41.001c0 -16 -9.33301 -31 -28 -45s-43.334 -25.167 -74.001 -33.5s-63.334 -12.5 -98.001 -12.5c-51.333 0 -96.5 12 -135.5 36s-69.167 57.167 -90.5 99.5s-32 89.5 -32 141.5c0 54 11.167 102 33.5 144s53.5 74.833 93.5 98.5s85.333 35.5 136 35.5
c56.667 0 102.334 -8.83301 137.001 -26.5z" />
    <glyph glyph-name="d" unicode="d" horiz-adv-x="623" 
d="M541 723c11.333 -11.333 17 -25.998 17 -43.998v-618c0 -17.333 -5.66699 -31.833 -17 -43.5s-25.666 -17.5 -42.999 -17.5s-31.5 5.66699 -42.5 17s-16.833 25.666 -17.5 42.999c-16.667 -19.333 -39.167 -35.833 -67.5 -49.5s-58.166 -20.5 -89.499 -20.5
c-46 0 -87.667 11.833 -125 35.5s-66.833 56.5 -88.5 98.5s-32.5 89.667 -32.5 143s10.667 101.166 32 143.499s50.5 75.333 87.5 99s77.833 35.5 122.5 35.5c32 0 62 -5.83301 90 -17.5s51.667 -26.5 71 -44.5v196c0 17.333 5.66699 31.833 17 43.5
s25.666 17.5 42.999 17.5s31.666 -5.66699 42.999 -17zM402 147.502c27.333 31.667 41 71.5 41 119.5s-13.667 88 -41 120s-62.666 48 -105.999 48c-42.667 0 -77.667 -16 -105 -48s-41 -72 -41 -120s13.5 -87.833 40.5 -119.5s62.167 -47.5 105.5 -47.5
s78.666 15.833 105.999 47.5z" />
    <glyph glyph-name="e" unicode="e" horiz-adv-x="580" 
d="M526 241c-12 -10 -25.998 -15 -41.998 -15h-330c8 -39.333 26.333 -70.166 55 -92.499s61 -33.5 97 -33.5c27.333 0 48.666 2.5 63.999 7.5s27.5 10.333 36.5 16l18.5 11.5c12 6 23.333 9 34 9c14 0 26 -5 36 -15s15 -21.667 15 -35c0 -18 -9.33301 -34.333 -28 -49
c-18.667 -15.333 -43.667 -28.333 -75 -39s-63 -16 -95 -16c-56 0 -104.833 11.667 -146.5 35s-73.834 55.5 -96.501 96.5s-34 87.167 -34 138.5c0 57.333 12 107.666 36 150.999s55.667 76.5 95 99.5s81.333 34.5 126 34.5c44 0 85.5 -12 124.5 -36
s70.167 -56.333 93.5 -97s35 -84.667 35 -132c-0.666992 -16 -7 -29 -19 -39zM155.002 326h262.001v7c-2.66699 28 -16.334 52 -41.001 72s-52.667 30 -84 30c-77.333 0 -123 -36.333 -137 -109z" />
    <glyph glyph-name="f" unicode="f" horiz-adv-x="417" 
d="M274 614.5c-9.33301 -13 -14.0029 -27.167 -14.0029 -42.5v-47h91c16 0 29.333 -5.16699 40 -15.5s16 -23.5 16 -39.5s-5.33301 -29.167 -16 -39.5s-24 -15.5 -40 -15.5h-91v-354c0 -17.333 -5.66699 -31.833 -17 -43.5s-25.666 -17.5 -42.999 -17.5
s-31.666 5.83301 -42.999 17.5s-17 26.167 -17 43.5v354h-54c-16 0 -29.333 5.16699 -40 15.5s-16 23.5 -16 39.5s5.33301 29.167 16 39.5s24 15.5 40 15.5h54v46c0 50 17.167 90.667 51.5 122s83.833 47 148.5 47c24.667 0 46.167 -5 64.5 -15s27.5 -25.333 27.5 -46
c0 -16 -4.66699 -29 -14 -39s-20.666 -15 -33.999 -15c-3.33301 0 -6.83301 0.333008 -10.5 1l-11.5 2c-16 4 -29.333 6 -40 6c-22.667 0 -38.667 -6.5 -48 -19.5z" />
    <glyph glyph-name="g" unicode="g" horiz-adv-x="633" 
d="M551 528c11.333 -11.333 17.002 -25.999 17.002 -43.999v-445c0 -81.333 -25.167 -141.5 -75.5 -180.5s-114.166 -58.5 -191.499 -58.5c-20 0 -47.5 3.33301 -82.5 10s-59.833 13.334 -74.5 20.001c-32.667 14 -49 33.333 -49 58c0 4.66699 1 10 3 16
c4 14.667 10.833 25.834 20.5 33.501s20.167 11.5 31.5 11.5c6.66699 0 13 -1 19 -3c2.66699 -0.666992 19.167 -6.83398 49.5 -18.501s57.833 -17.5 82.5 -17.5c49.333 0 86.166 9.83301 110.499 29.5s36.5 47.5 36.5 83.5v48
c-14.667 -20.667 -36.834 -39.334 -66.501 -56.001s-61.5 -25 -95.5 -25c-46.667 0 -89.167 11.833 -127.5 35.5s-68.5 56.5 -90.5 98.5s-33 89.667 -33 143s10.833 101.166 32.5 143.499s51.334 75.333 89.001 99s79.5 35.5 125.5 35.5c34 0 65.667 -7 95 -21
s53 -31 71 -51v11c0 17.333 5.66699 31.833 17 43.5s25.666 17.5 42.999 17.5s31.666 -5.66699 42.999 -17zM410.502 147.501c28.333 31.667 42.5 71.5 42.5 119.5s-14.167 88 -42.5 120s-64.833 48 -109.5 48s-81 -16 -109 -48s-42 -72 -42 -120s14 -87.833 42 -119.5
s64.333 -47.5 109 -47.5s81.167 15.833 109.5 47.5z" />
    <glyph glyph-name="h" unicode="h" horiz-adv-x="586" 
d="M483 484.5c25.333 -40.333 37.998 -96.167 37.998 -167.5v-256c0 -17.333 -5.66699 -31.833 -17 -43.5s-25.666 -17.5 -42.999 -17.5s-31.666 5.83301 -42.999 17.5s-17 26.167 -17 43.5v256c0 36.667 -7.16699 65.5 -21.5 86.5s-39.5 31.5 -75.5 31.5
c-37.333 0 -66.5 -11.167 -87.5 -33.5s-31.5 -50.5 -31.5 -84.5v-256c0 -17.333 -5.66699 -31.833 -17 -43.5s-25.666 -17.5 -42.999 -17.5s-31.666 5.83301 -42.999 17.5s-17 26.167 -17 43.5v618c0 17.333 5.66699 31.833 17 43.5s25.666 17.5 42.999 17.5
s31.666 -5.83301 42.999 -17.5s17 -26.167 17 -43.5v-221c18 24 40.833 44.5 68.5 61.5s58.5 25.5 92.5 25.5c66 0 111.667 -20.167 137 -60.5z" />
    <glyph glyph-name="i" unicode="i" horiz-adv-x="236" 
d="M161 17.5c-11.333 -11.667 -25.666 -17.5 -42.999 -17.5s-31.666 5.83301 -42.999 17.5s-17 26.167 -17 43.5v413c0 17.333 5.66699 31.833 17 43.5s25.666 17.5 42.999 17.5s31.666 -5.83301 42.999 -17.5s17 -26.167 17 -43.5v-413
c0 -17.333 -5.66699 -31.833 -17 -43.5zM69 611c-9.33301 7.33301 -13.999 20.333 -13.999 39v19c0 18.667 5 31.667 15 39s26 11 48 11c23.333 0 39.666 -3.66699 48.999 -11s14 -20.333 14 -39v-19c0 -19.333 -4.83301 -32.5 -14.5 -39.5s-26.167 -10.5 -49.5 -10.5
c-22.667 0 -38.667 3.66699 -48 11z" />
    <glyph glyph-name="j" unicode="j" horiz-adv-x="275" 
d="M-4 -180c-10.667 10.667 -15.998 23.999 -15.998 39.999v11c0 26.667 17 45 51 55c21.333 6.66699 34.833 17.834 40.5 33.501s8.5 37.5 8.5 65.5v449c0 17.333 5.66699 31.833 17 43.5s25.666 17.5 42.999 17.5s31.666 -5.83301 42.999 -17.5s17 -26.167 17 -43.5v-484
c0 -37.333 -7.16699 -70 -21.5 -98s-34 -49.667 -59 -65s-52.833 -23 -83.5 -23c-16 0 -29.333 5.33301 -40 16zM90.002 610.999c-9.33301 7.33301 -13.999 20.333 -13.999 39v19c0 18.667 5 31.667 15 39s26 11 48 11c23.333 0 39.666 -3.66699 48.999 -11
s14 -20.333 14 -39v-19c0 -19.333 -4.83301 -32.5 -14.5 -39.5s-26.167 -10.5 -49.5 -10.5c-22.667 0 -38.667 3.66699 -48 11z" />
    <glyph glyph-name="k" unicode="k" horiz-adv-x="569" 
d="M529 60c0 -16.667 -6.50195 -30.667 -19.502 -42s-26.833 -17 -41.5 -17c-17.333 0 -32 6.66699 -44 20l-180 190l-49 -45v-105c0 -17.333 -5.66699 -31.833 -17 -43.5s-25.666 -17.5 -42.999 -17.5s-31.666 5.83301 -42.999 17.5s-17 26.167 -17 43.5v618
c0 17.333 5.66699 31.833 17 43.5s25.666 17.5 42.999 17.5s31.666 -5.83301 42.999 -17.5s17 -26.167 17 -43.5v-370l214 207c12.667 12.667 27.334 19 44.001 19c14.667 0 27.834 -6.16699 39.501 -18.5s17.5 -24.833 17.5 -37.5c0 -16 -8 -31 -24 -45l-151 -139l175 -190
c12.667 -13.333 19 -28.333 19 -45z" />
    <glyph glyph-name="l" unicode="l" horiz-adv-x="270" 
d="M177.5 17.5c-11.667 -11.667 -26.167 -17.5 -43.5 -17.5c-16.667 -0 -30.667 5.83301 -42 17.5s-17 26.167 -17 43.5v618c0 17.333 5.83301 31.833 17.5 43.5s26.167 17.5 43.5 17.5c16.667 0 30.667 -5.83301 42 -17.5s17 -26.167 17 -43.5v-618
c0 -17.333 -5.83301 -31.833 -17.5 -43.5z" />
    <glyph glyph-name="m" unicode="m" horiz-adv-x="922" 
d="M819 484.5c25.333 -40.333 37.9961 -96.167 37.9961 -167.5v-256c0 -17.333 -5.66699 -31.833 -17 -43.5s-25.666 -17.5 -42.999 -17.5s-31.666 5.83301 -42.999 17.5s-17 26.167 -17 43.5v256c0 36.667 -7.16699 65.5 -21.5 86.5s-39.5 31.5 -75.5 31.5
c-37.333 0 -66.5 -11.167 -87.5 -33.5s-31.5 -50.5 -31.5 -84.5v-256c0 -17.333 -5.66699 -31.833 -17 -43.5s-25.666 -17.5 -42.999 -17.5s-31.666 5.83301 -42.999 17.5s-17 26.167 -17 43.5v256c0 36.667 -7.16699 65.5 -21.5 86.5s-39.5 31.5 -75.5 31.5
c-37.333 0 -66.5 -11.167 -87.5 -33.5s-31.5 -50.5 -31.5 -84.5v-256c0 -17.333 -5.66699 -31.833 -17 -43.5s-25.666 -17.5 -42.999 -17.5s-31.666 5.83301 -42.999 17.5s-17 26.167 -17 43.5v413c0 17.333 5.66699 31.833 17 43.5s25.666 17.5 42.999 17.5
s31.666 -5.83301 42.999 -17.5s17 -26.167 17 -43.5v-16c18 24 40.833 44.5 68.5 61.5s58.5 25.5 92.5 25.5c84 0 137.667 -36.667 161 -110c15.333 28 38.5 53.333 69.5 76s66.167 34 105.5 34c66 0 111.667 -20.167 137 -60.5z" />
    <glyph glyph-name="n" unicode="n" horiz-adv-x="596" 
d="M492 484.5c26 -40.333 38.9971 -96.167 38.9971 -167.5v-256c0 -17.333 -5.66699 -31.833 -17 -43.5s-25.666 -17.5 -42.999 -17.5s-31.666 5.83301 -42.999 17.5s-17 26.167 -17 43.5v256c0 36.667 -7.66699 65.5 -23 86.5s-41.666 31.5 -78.999 31.5
c-38.667 0 -69 -11.167 -91 -33.5s-33 -50.5 -33 -84.5v-256c0 -17.333 -5.66699 -31.833 -17 -43.5s-25.666 -17.5 -42.999 -17.5s-31.666 5.83301 -42.999 17.5s-17 26.167 -17 43.5v413c0 17.333 5.66699 31.833 17 43.5s25.666 17.5 42.999 17.5
s31.666 -5.83301 42.999 -17.5s17 -26.167 17 -43.5v-17c18 24 41.5 44.667 70.5 62s60.833 26 95.5 26c68 0 115 -20.167 141 -60.5z" />
    <glyph glyph-name="o" unicode="o" horiz-adv-x="614" 
d="M543 123.5c-24 -42.333 -56.833 -75.166 -98.5 -98.499s-87.5 -35 -137.5 -35c-50.667 0 -96.667 11.667 -138 35s-74 56.166 -98 98.499s-36 90.166 -36 143.499s12 101.166 36 143.499s56.667 75.333 98 99s87.333 35.5 138 35.5c50 0 95.833 -11.833 137.5 -35.5
s74.5 -56.667 98.5 -99s36 -90.166 36 -143.499s-12 -101.166 -36 -143.499zM438.5 354.5c-13.667 25.667 -32 45.5 -55 59.5s-48.5 21 -76.5 21s-53.5 -7 -76.5 -21s-41.333 -33.833 -55 -59.5s-20.5 -54.834 -20.5 -87.501s6.83301 -61.667 20.5 -87s32 -45 55 -59
s48.5 -21 76.5 -21s53.5 7 76.5 21s41.333 33.667 55 59s20.5 54.333 20.5 87s-6.83301 61.834 -20.5 87.501z" />
    <glyph glyph-name="p" unicode="p" horiz-adv-x="623" 
d="M467 509.5c37.333 -23.667 66.833 -56.501 88.5 -98.501s32.5 -89.667 32.5 -143s-10.667 -101.166 -32 -143.499s-50.5 -75.333 -87.5 -99s-77.833 -35.5 -122.5 -35.5c-32 0 -62.167 6.5 -90.5 19.5s-51.833 28.833 -70.5 47.5v-196
c0 -17.333 -5.66699 -31.833 -17 -43.5s-25.666 -17.5 -42.999 -17.5s-31.666 5.66699 -42.999 17s-17 26 -17 44v613c0 17.333 5.66699 31.833 17 43.5s25.666 17.5 42.999 17.5s31.666 -5.83301 42.999 -17.5s17 -26.167 17 -43.5v-4c16 20 38.333 37.5 67 52.5
s58.667 22.5 90 22.5c46 0 87.667 -11.833 125 -35.5zM432 147.999c27.333 32 41 72 41 120s-13.5 87.833 -40.5 119.5s-62.167 47.5 -105.5 47.5s-78.666 -15.833 -105.999 -47.5s-41 -71.5 -41 -119.5s13.667 -88 41 -120s62.666 -48 105.999 -48
c42.667 0 77.667 16 105 48z" />
    <glyph glyph-name="q" unicode="q" horiz-adv-x="623" 
d="M541 518c11.333 -11.333 16.998 -25.998 16.998 -43.998v-613c0 -17.333 -5.66699 -31.833 -17 -43.5s-25.666 -17.5 -42.999 -17.5s-31.666 5.83301 -42.999 17.5s-17 26.167 -17 43.5v198c-16.667 -18.667 -39.167 -34.834 -67.5 -48.501s-58.166 -20.5 -89.499 -20.5
c-46 0 -87.667 11.833 -125 35.5s-66.833 56.5 -88.5 98.5s-32.5 89.667 -32.5 143s10.667 101.166 32 143.499s50.5 75.333 87.5 99s77.833 35.5 122.5 35.5c32.667 0 63 -6 91 -18s51.333 -27 70 -45c2 15.333 8.5 28 19.5 38s24.5 15 40.5 15
c17.333 0 31.666 -5.66699 42.999 -17zM401.998 147.502c27.333 31.667 41 71.5 41 119.5s-13.667 88 -41 120s-62.666 48 -105.999 48c-42.667 0 -77.667 -16 -105 -48s-41 -72 -41 -120s13.5 -87.833 40.5 -119.5s62.167 -47.5 105.5 -47.5s78.666 15.833 105.999 47.5z
" />
    <glyph glyph-name="r" unicode="r" horiz-adv-x="434" 
d="M393.5 528c13.667 -11.333 20.5 -24.665 20.5 -39.998c0 -20.667 -5.33301 -36.167 -16 -46.5s-23.334 -15.5 -38.001 -15.5c-10 0 -21.333 2.33301 -34 7c-2 0.666992 -6.5 2 -13.5 4s-14.5 3 -22.5 3c-17.333 0 -34 -5.33301 -50 -16s-29.167 -26.834 -39.5 -48.501
s-15.5 -47.5 -15.5 -77.5v-237c0 -17.333 -5.66699 -31.833 -17 -43.5s-25.666 -17.5 -42.999 -17.5s-31.666 5.83301 -42.999 17.5s-17 26.167 -17 43.5v413c0 17.333 5.66699 31.833 17 43.5s25.666 17.5 42.999 17.5s31.666 -5.83301 42.999 -17.5s17 -26.167 17 -43.5
v-13c15.333 27.333 37.333 48.166 66 62.499s59.334 21.5 92.001 21.5c20 0 36.833 -5.66699 50.5 -17z" />
    <glyph glyph-name="s" unicode="s" horiz-adv-x="482" 
d="M25 113c0 17.333 8.66602 31.9961 25.999 43.9961c9.33301 6 19 9 29 9c14 0 27.333 -6.33301 40 -19c20 -20.667 40.833 -36 62.5 -46s47.834 -15 78.501 -15c52 2 78 21.667 78 59c0 19.333 -8.83301 34 -26.5 44s-45.167 20 -82.5 30
c-38.667 10.667 -70.167 21.334 -94.5 32.001s-45.333 26.834 -63 48.501s-26.5 50.834 -26.5 87.501c0 32 9.16699 59.833 27.5 83.5s42.333 42 72 55s61.167 19.5 94.5 19.5c34 0 68 -6.33301 102 -19s60.667 -31.334 80 -56.001c8.66699 -10.667 13 -22.667 13 -36
c0 -15.333 -6.33301 -28 -19 -38c-9.33301 -7.33301 -20 -11 -32 -11c-14.667 0 -26.667 4.66699 -36 14c-12 14.667 -27.5 26.334 -46.5 35.001s-40.5 13 -64.5 13c-50.667 0 -76 -18.333 -76 -55c0 -14.667 4.66699 -26.5 14 -35.5s21.166 -16 35.499 -21
s34.5 -11.167 60.5 -18.5c36 -10 66 -20.333 90 -31s44.333 -27 61 -49s25 -51 25 -87c0 -32.667 -9.66699 -61.167 -29 -85.5s-44.166 -42.833 -74.499 -55.5s-61.5 -19 -93.5 -19c-44 0 -85 7.33301 -123 22s-69 38.334 -93 71.001c-6 8 -9 18 -9 30z" />
    <glyph glyph-name="t" unicode="t" horiz-adv-x="409" 
d="M348.5 99.5c7.66699 -9 11.501 -20.833 11.501 -35.5c0 -18 -9.83301 -33.167 -29.5 -45.5s-41.834 -18.5 -66.501 -18.5c-41.333 -0 -76.166 8.83301 -104.499 26.5s-42.5 55.167 -42.5 112.5v276h-46c-16 0 -29.333 5.33301 -40 16s-16 24 -16 40
c0 15.333 5.33301 28.166 16 38.499s24 15.5 40 15.5h46v64c0 17.333 5.83301 31.833 17.5 43.5s26.167 17.5 43.5 17.5c16.667 0 30.667 -5.83301 42 -17.5s17 -26.167 17 -43.5v-64h71c16 0 29.333 -5.33301 40 -16s16 -24 16 -40c0 -15.333 -5.33301 -28.166 -16 -38.499
s-24 -15.5 -40 -15.5h-71v-271c0 -14 3.66699 -24.167 11 -30.5s17.333 -9.5 30 -9.5c5.33301 0 12.666 1.33301 21.999 4c8 3.33301 15.667 5 23 5c9.33301 0 17.833 -4.5 25.5 -13.5z" />
    <glyph glyph-name="u" unicode="u" horiz-adv-x="587" 
d="M505 517.5c11.333 -11.667 17.0029 -26.167 17.0029 -43.5v-254c0 -72 -19.833 -128.333 -59.5 -169s-96.167 -61 -169.5 -61s-129.666 20.333 -168.999 61s-59 97 -59 169v254c0 17.333 5.66699 31.833 17 43.5s25.666 17.5 42.999 17.5s31.666 -5.83301 42.999 -17.5
s17 -26.167 17 -43.5v-254c0 -40.667 9 -70.834 27 -90.501s45 -29.5 81 -29.5c36.667 0 64 9.83301 82 29.5s27 49.834 27 90.501v254c0 17.333 5.66699 31.833 17 43.5s25.666 17.5 42.999 17.5s31.666 -5.83301 42.999 -17.5z" />
    <glyph glyph-name="v" unicode="v" horiz-adv-x="562" 
d="M516 518.5c10.667 -10.333 16.001 -23.168 16.001 -38.501c0 -8 -2.66699 -18 -8 -30l-187 -412c-4.66699 -11.333 -11.5 -20.333 -20.5 -27s-19.167 -10.334 -30.5 -11.001l-9 -1c-11.333 0 -21.833 3.5 -31.5 10.5s-17.167 16.5 -22.5 28.5l-186 412
c-4.66699 10.667 -7 21.334 -7 32.001c0 13.333 5.66699 25.5 17 36.5s25.333 16.5 42 16.5c12.667 0 24.334 -3.33301 35.001 -10s18.667 -16 24 -28l138 -316l137 315c5.33301 12.667 12.666 22.334 21.999 29.001s19.666 9.66699 30.999 9c16 0 29.333 -5.16699 40 -15.5
z" />
    <glyph glyph-name="w" unicode="w" horiz-adv-x="768" 
d="M721.5 517.5c11 -11.667 16.5 -26.5 16.5 -44.5c0 -6 -1.33301 -13.667 -4 -23l-153 -412c-4 -12 -11.167 -21.5 -21.5 -28.5s-21.5 -10.5 -33.5 -10.5l-8 1c-22.667 1.33301 -39.667 14 -51 38l-85 246l-81 -246c-11.333 -24 -28.333 -36.667 -51 -38l-8 -1
c-12 0 -23.167 3.5 -33.5 10.5s-17.5 16.5 -21.5 28.5l-153 412c-2.66699 7.33301 -4 15 -4 23c0 16.667 5.5 31.167 16.5 43.5s25.5 18.5 43.5 18.5c13.333 0 24.833 -3.16699 34.5 -9.5s16.5 -15.833 20.5 -28.5l108 -293l79 214c10.667 24.667 29 37 55 37
c14 0 24.833 -3 32.5 -9s14.167 -15.333 19.5 -28l77 -209l107 288c4 12.667 11 22.167 21 28.5s22.333 9.5 37 9.5c16 0 29.5 -5.83301 40.5 -17.5z" />
    <glyph glyph-name="x" unicode="x" horiz-adv-x="487" 
d="M472 59c0 -16.667 -6.33398 -31.001 -19.001 -43.001s-26.667 -18 -42 -18c-19.333 0 -35.666 8.66699 -48.999 26l-120 149l-117 -149c-6 -8 -13.167 -14.167 -21.5 -18.5s-17.166 -6.5 -26.499 -6.5c-14 0 -27.333 5.33301 -40 16s-19 23 -19 37c0 13.333 5 26 15 38
l139 170l-144 179c-8.66699 10.667 -13 22.667 -13 36c0 16.667 6.16699 30.834 18.5 42.501s26.5 17.5 42.5 17.5c19.333 0 35.666 -8.33301 48.999 -25l123 -153l114 151c12.667 18 28.667 27 48 27c16 0 29.5 -5.5 40.5 -16.5s16.5 -23.5 16.5 -37.5
c0 -14.667 -4.66699 -27.667 -14 -39l-138 -168l144 -179c8.66699 -10.667 13 -22.667 13 -36z" />
    <glyph glyph-name="y" unicode="y" horiz-adv-x="587" 
d="M505 517.5c11.333 -11.667 17.0098 -26.166 17.0098 -43.499v-425c0 -86.667 -23.333 -149.834 -70 -189.501s-109 -59.5 -187 -59.5c-22.667 0 -45.834 1.83301 -69.501 5.5s-42.834 8.5 -57.501 14.5c-32.667 14 -49 33.333 -49 58c0 4.66699 1 10 3 16
c4 14.667 10.833 25.834 20.5 33.501s20.167 11.5 31.5 11.5c6.66699 0 13 -1 19 -3l24.5 -10c11.667 -4.66699 24 -8.5 37 -11.5s26.5 -4.5 40.5 -4.5c47.333 0 82.166 10.167 104.499 30.5s33.5 55.166 33.5 104.499v10c-34.667 -43.333 -88.667 -65 -162 -65
c-34.667 0 -65.334 8.16699 -92.001 24.5s-47.334 39 -62.001 68s-22 62.167 -22 99.5v292c0 17.333 5.66699 31.833 17 43.5s25.666 17.5 42.999 17.5s31.666 -5.83301 42.999 -17.5s17 -26.167 17 -43.5v-256c0 -42 9.16699 -72.167 27.5 -90.5s45.166 -27.5 80.499 -27.5
c34.667 0 61.5 10.167 80.5 30.5s28.5 49.5 28.5 87.5v256c0 17.333 5.66699 31.833 17 43.5s25.666 17.5 42.999 17.5s31.666 -5.83301 42.999 -17.5z" />
    <glyph glyph-name="z" unicode="z" horiz-adv-x="484" 
d="M446 94.5c10.667 -10.333 15.999 -23.5 15.999 -39.5c0 -15.333 -5.33301 -28.333 -16 -39s-24 -16 -40 -16h-322c-15.333 0 -28.166 5.5 -38.499 16.5s-15.5 22.833 -15.5 35.5c0 11.333 1.33301 20.833 4 28.5s7.66699 16.5 15 26.5l238 308h-194
c-16 0 -29.333 5.33301 -40 16s-16 24 -16 40c0 15.333 5.33301 28.166 16 38.499s24 15.5 40 15.5h308c14.667 0 27.167 -5.16699 37.5 -15.5s15.5 -23.166 15.5 -38.499c0 -10 -1 -18.5 -3 -25.5s-6.66699 -15.167 -14 -24.5l-240 -311h209c16 0 29.333 -5.16699 40 -15.5
z" />
    <glyph glyph-name="braceleft" unicode="{" horiz-adv-x="401" 
d="M377 -134.5c6 -7.66699 8.99805 -15.832 8.99805 -24.499c0 -11.333 -4 -21.333 -12 -30s-17.667 -13 -29 -13c-6.66699 0 -11.667 0.333008 -15 1c-68.667 14 -116.334 36.5 -143.001 67.5s-40 72.167 -40 123.5l2 102c0 36 -8 63 -24 81s-37.667 27.667 -65 29h-4
c-12.667 0 -23.5 4.33301 -32.5 13s-13.5 19.667 -13.5 33s4.5 24.333 13.5 33s19.833 13 32.5 13h6c26.667 1.33301 47.834 11 63.501 29s23.5 45 23.5 81l-2 102c0 51.333 13.333 92.5 40 123.5s74.334 53.5 143.001 67.5c2.66699 0.666992 6.66699 1 12 1
c14 0 24.833 -4.33301 32.5 -13s11.5 -19.334 11.5 -32.001c0 -8.66699 -3.16699 -16.667 -9.5 -24s-14.5 -12.666 -24.5 -15.999c-26.667 -9.33301 -46.667 -19.5 -60 -30.5s-22.166 -23.667 -26.499 -38s-6.5 -32.833 -6.5 -55.5l2 -104
c0 -36.667 -8.83301 -65.834 -26.5 -87.501s-42.834 -38.167 -75.501 -49.5c32.667 -11.333 57.834 -28 75.501 -50s26.5 -51 26.5 -87l-2 -104c0 -22.667 2.33301 -41 7 -55s13.5 -26.5 26.5 -37.5s32.833 -21.5 59.5 -31.5c10.667 -4 19 -9.83301 25 -17.5z" />
    <glyph glyph-name="bar" unicode="|" horiz-adv-x="248" 
d="M166.5 -107.5c-11.667 -11.667 -26.167 -17.5 -43.5 -17.5c-16.667 0 -30.667 5.83301 -42 17.5s-17 26.167 -17 43.5v804c0 17.333 5.83301 31.833 17.5 43.5s26.167 17.5 43.5 17.5c16.667 0 30.667 -5.83301 42 -17.5s17 -26.167 17 -43.5v-804
c0 -17.333 -5.83301 -31.833 -17.5 -43.5z" />
    <glyph glyph-name="braceright" unicode="}" horiz-adv-x="401" 
d="M377.5 283c9 -8.66699 13.502 -19.668 13.502 -33.001s-4.5 -24.333 -13.5 -33s-19.833 -13 -32.5 -13h-6c-26.667 -1.33301 -47.834 -11 -63.501 -29s-23.5 -45 -23.5 -81l2 -102c0 -51.333 -13.333 -92.5 -40 -123.5s-74.334 -53.5 -143.001 -67.5
c-6.66699 -1.33301 -12.334 -2 -17.001 -2c-11.333 0 -20.666 5 -27.999 15s-11 20.333 -11 31c0 8.66699 3.16699 16.667 9.5 24s14.5 12.666 24.5 15.999c26.667 9.33301 46.667 19.5 60 30.5s22.166 23.667 26.499 38s6.5 32.833 6.5 55.5l-2 104
c0 36.667 8.83301 65.834 26.5 87.501s42.834 38.167 75.501 49.5c-32.667 11.333 -57.834 28 -75.501 50s-26.5 51 -26.5 87l2 104c0 22.667 -2.33301 41 -7 55s-13.5 26.5 -26.5 37.5s-32.833 21.5 -59.5 31.5c-10.667 4 -19 9.83301 -25 17.5s-9 15.834 -9 24.501
c0 11.333 4 21.333 12 30s17.667 13 29 13c6.66699 0 11.667 -0.333008 15 -1c68.667 -14 116.334 -36.5 143.001 -67.5s40 -72.167 40 -123.5l-2 -102c0 -36 8 -63 24 -81s37.667 -27.667 65 -29h4c12.667 0 23.5 -4.33301 32.5 -13z" />
    <glyph glyph-name="asciitilde" unicode="~" horiz-adv-x="540" 
d="M326 239c-20 6 -46.334 15 -79.001 27c-46 17.333 -75 26 -87 26c-7.33301 0 -13 -2 -17 -6s-5 -9 -3 -15c1.33301 -3.33301 2 -8 2 -14c0 -10.667 -3.5 -19.167 -10.5 -25.5s-15.833 -9.5 -26.5 -9.5c-15.333 0 -28.333 6.5 -39 19.5s-16 30.167 -16 51.5
c0 30.667 9.83301 53 29.5 67s50.834 21 93.501 21c13.333 0 29.5 -3 48.5 -9s43.833 -15 74.5 -27c44.667 -17.333 72.667 -26 84 -26c7.33301 0 13 2 17 6s5 9 3 15c-1.33301 3.33301 -2 8 -2 14c0 10.667 3.5 19.167 10.5 25.5s15.833 9.5 26.5 9.5
c15.333 0 28.333 -6.5 39 -19.5s16 -29.5 16 -49.5c0 -60 -38 -90 -114 -90c-13.333 0 -30 3 -50 9z" />
    <glyph glyph-name="uni00A0" unicode="&#xa0;" horiz-adv-x="280" 
 />
    <glyph glyph-name="exclamdown" unicode="&#xa1;" horiz-adv-x="267" 
d="M184.5 525.5c10.333 -10.333 15.5 -25.166 15.5 -44.499v-17c0 -19.333 -5.16699 -34.166 -15.5 -44.499s-25.166 -15.5 -44.499 -15.5h-13c-19.333 0 -34.166 5.16699 -44.499 15.5s-15.5 25.166 -15.5 44.499v17c0 19.333 5.16699 34.166 15.5 44.499
s25.166 15.5 44.499 15.5h13c19.333 0 34.166 -5.16699 44.499 -15.5zM170 282l29 -368c1.33301 -20.667 -4.16699 -38 -16.5 -52s-28.5 -21 -48.5 -21s-36.333 7 -49 21s-18 31.333 -16 52l28 368c2 25.333 14 38 36 38c22.667 0 35 -12.667 37 -38z" />
    <glyph glyph-name="cent" unicode="&#xa2;" horiz-adv-x="515" 
d="M451.5 116.5c-27.667 -16.333 -62.1699 -27.1631 -103.503 -32.4961v-23c0 -17.333 -5.83301 -31.833 -17.5 -43.5s-26.167 -17.5 -43.5 -17.5c-16.667 0 -30.667 5.83301 -42 17.5s-17 26.167 -17 43.5v26c-59.333 14.667 -106.333 46.5 -141 95.5
s-52 107.167 -52 174.5c0 68 17.5 126.167 52.5 174.5s81.833 80.166 140.5 95.499v32c0 17.333 5.83301 31.833 17.5 43.5s26.167 17.5 43.5 17.5c16.667 0 30.667 -5.83301 42 -17.5s17 -26.167 17 -43.5v-27c42.667 -4.66699 76.5 -15.334 101.5 -32.001
s37.5 -37.334 37.5 -62.001c0 -15.333 -4.66699 -28.666 -14 -39.999s-22.666 -17 -39.999 -17c-12 0 -22.167 2.5 -30.5 7.5s-17.166 12.833 -26.499 23.5c-10 11.333 -22.667 18.666 -38 21.999v-355c18 4 32.333 11.667 43 23c10 10 18.833 17.333 26.5 22
s18.167 7 31.5 7c16.667 0 29.834 -5.83301 39.501 -17.5s14.5 -25.834 14.5 -42.501c0 -20 -13.833 -38.167 -41.5 -54.5zM177.497 255.503c15 -29 35.167 -50.5 60.5 -64.5v333c-25.333 -12.667 -45.5 -33.667 -60.5 -63s-22.5 -64 -22.5 -104
c0 -38.667 7.5 -72.5 22.5 -101.5z" />
    <glyph glyph-name="sterling" unicode="&#xa3;" horiz-adv-x="624" 
d="M591 106.5c8.66699 -10.333 13.002 -23.1709 13.002 -38.5039c0 -17.333 -6.33301 -32.166 -19 -44.499s-32.667 -23.166 -60 -32.499c-24.667 -8.66699 -54.334 -12.334 -89.001 -11.001c-14.667 0.666992 -34.667 3.66699 -60 9s-50.333 11 -75 17
c-60 15.333 -98.333 23 -115 23c-30.667 0 -55.667 -3 -75 -9c-5.33301 -2 -9.83301 -3.83301 -13.5 -5.5s-6.83398 -3.16699 -9.50098 -4.5c-12 -6.66699 -22.333 -10 -31 -10c-12.667 0 -23.5 4.66699 -32.5 14s-13.5 21.333 -13.5 36s4.66699 27.667 14 39
s22.333 20.666 39 27.999c18 8 43.333 13.667 76 17c10.667 22.667 16 50.334 16 83.001c0 31.333 -5.66699 65 -17 101h-57c-15.333 0 -28.166 5.16699 -38.499 15.5s-15.5 23.166 -15.5 38.499c0 14.667 5.16699 26.667 15.5 36s23.166 14 38.499 14h22
c-8.66699 30.667 -13 54.667 -13 72c0 42 9.16699 79.333 27.5 112s44.833 58.167 79.5 76.5s75.667 27.5 123 27.5c26 0 51.167 -3.16699 75.5 -9.5s46.166 -14.833 65.499 -25.5c18 -10 32 -21.167 42 -33.5s15 -24.833 15 -37.5c0 -16.667 -6 -31 -18 -43
s-26 -18 -42 -18c-8.66699 0 -17 1.66699 -25 5s-14.333 7.33301 -19 12c-13.333 12 -27.333 21 -42 27s-31.667 9 -51 9c-33.333 0 -59.5 -10.5 -78.5 -31.5s-28.5 -45.5 -28.5 -73.5c0 -15.333 5.33301 -38.333 16 -69h139c15.333 0 28.166 -5.16699 38.499 -15.5
s15.5 -23.166 15.5 -38.499c0 -14.667 -5.16699 -26.667 -15.5 -36s-23.166 -14 -38.499 -14h-103c8.66699 -27.333 13 -50.666 13 -69.999c0 -37.333 -11 -75.666 -33 -114.999c15.333 -2.66699 31.5 -6.66699 48.5 -12s28.167 -8.66602 33.5 -9.99902
c25.333 -8 45.833 -14 61.5 -18s31.167 -6 46.5 -6c18.667 0 44.334 7.66699 77.001 23c16 8 29.667 12 41 12c15.333 0 27.333 -5.16699 36 -15.5z" />
    <glyph glyph-name="currency" unicode="&#xa4;" horiz-adv-x="579" 
d="M490 187c13.333 -13.333 20.0029 -27.335 20.0029 -42.002s-7 -29.5 -21 -44.5s-28.333 -22.5 -43 -22.5c-14 0 -28.333 7.33301 -43 22l-32 32c-26.667 -12.667 -54 -19 -82 -19c-30.667 0 -59.334 6.66699 -86.001 20l-32 -32c-14 -14 -28.333 -21 -43 -21
s-29.334 7 -44.001 21s-22 28.333 -22 43s7.33301 29.334 22 44.001l34 34c-12 25.333 -18 52.333 -18 81c0 30 6 57 18 81l-34 35c-14 14 -21 28.333 -21 43c0 14 7.16699 28.667 21.5 44s28.833 23 43.5 23s29 -7 43 -21l34 -35c25.333 13.333 53.333 20 84 20
c27.333 0 54.666 -6 81.999 -18l32 32c13.333 13.333 27.333 20 42 20c15.333 0 30.333 -7 45 -21s22 -28.333 22 -43s-7 -29 -21 -43l-32 -32c13.333 -25.333 20 -53.666 20 -84.999c0 -30 -6.66699 -58.333 -20 -85zM238.503 246.498c12.333 -15 29.5 -22.5 51.5 -22.5
s39 7.5 51 22.5s18 33.833 18 56.5c0 23.333 -6 42.5 -18 57.5s-29 22.5 -51 22.5s-39.167 -7.5 -51.5 -22.5s-18.5 -34.167 -18.5 -57.5c0 -22.667 6.16699 -41.5 18.5 -56.5z" />
    <glyph glyph-name="yen" unicode="&#xa5;" horiz-adv-x="596" 
d="M570 604l-163 -241h49c17.333 0 31.833 -5 43.5 -15s17.5 -22.333 17.5 -37c0 -15.333 -5.83301 -28 -17.5 -38s-26.167 -15 -43.5 -15h-88v-39h90c17.333 0 31.833 -5 43.5 -15s17.5 -22.333 17.5 -37c0 -15.333 -5.83301 -28 -17.5 -38s-26.167 -15 -43.5 -15h-90v-53
c0 -17.333 -6.16699 -31.833 -18.5 -43.5s-27.833 -17.5 -46.5 -17.5s-34.167 5.83301 -46.5 17.5s-18.5 26.167 -18.5 43.5v53h-74c-17.333 0 -31.833 5 -43.5 15s-17.5 22.667 -17.5 38c0 14.667 5.83301 27 17.5 37s26.167 15 43.5 15h74v39h-76
c-17.333 0 -31.833 5 -43.5 15s-17.5 22.667 -17.5 38c0 14.667 5.83301 27 17.5 37s26.167 15 43.5 15h44l-171 232c-12 16 -18 31.667 -18 47c0 16.667 7.66699 31 23 43s31 18 47 18c20 0 36.333 -9.33301 49 -28l172 -266l163 264c6 9.33301 13.5 16.666 22.5 21.999
s18.167 8 27.5 8c16 0 30 -6 42 -18s18 -26.667 18 -44c0 -13.333 -3.66699 -25.666 -11 -36.999z" />
    <glyph glyph-name="brokenbar" unicode="&#xa6;" horiz-adv-x="258" 
d="M171.5 423.5c-11.667 -11.667 -26.167 -17.5 -43.5 -17.5c-16.667 0 -30.667 5.83301 -42 17.5s-17 26.167 -17 43.5v273c0 17.333 5.83301 31.833 17.5 43.5s26.167 17.5 43.5 17.5c16.667 0 30.667 -5.83301 42 -17.5s17 -26.167 17 -43.5v-273
c0 -17.333 -5.83301 -31.833 -17.5 -43.5zM171.5 -107.5c-11.667 -11.667 -26.167 -17.5 -43.5 -17.5c-16.667 0 -30.667 5.83301 -42 17.5s-17 26.167 -17 43.5v273c0 17.333 5.83301 31.833 17.5 43.5s26.167 17.5 43.5 17.5c16.667 0 30.667 -5.83301 42 -17.5
s17 -26.167 17 -43.5v-273c0 -17.333 -5.83301 -31.833 -17.5 -43.5z" />
    <glyph glyph-name="section" unicode="&#xa7;" horiz-adv-x="559" 
d="M452 154c14.667 -14 25.502 -29.333 32.502 -46s10.5 -36.334 10.5 -59.001c0 -21.333 -6 -46.666 -18 -75.999s-33.833 -55.5 -65.5 -78.5s-74.834 -34.5 -129.501 -34.5c-42.667 0 -86.167 7 -130.5 21s-76.5 32.333 -96.5 55c-16.667 18 -25 38.667 -25 62
c0 16 5.5 29.667 16.5 41s24.833 17 41.5 17c18.667 0 35 -8 49 -24c16.667 -20 35.334 -35.167 56.001 -45.5s50.334 -15.5 89.001 -15.5c26 0 47.667 4.33301 65 13s26 21.667 26 39c0 20 -14 35.833 -42 47.5s-72.333 24.5 -133 38.5c-105.333 23.333 -158 79 -158 167
c0 22.667 5.83301 47.834 17.5 75.501s33.5 49.5 65.5 65.5c-23.333 24 -35 55.333 -35 94c0 45.333 11.667 83.666 35 114.999s52.666 54.333 87.999 69s70 21 104 19c78 -6 138.333 -37.667 181 -95c1.33301 -2 2.83301 -6.33301 4.5 -13s2.5 -13 2.5 -19
c0 -16 -5.5 -29.5 -16.5 -40.5s-26.5 -15.833 -46.5 -14.5c-4.66699 0 -9.33398 2.33301 -14.001 7c-17.333 18.667 -37 33 -59 43s-44.667 15 -68 15c-26.667 0 -48.167 -6 -64.5 -18s-24.5 -27.667 -24.5 -47c0 -38 44.333 -66 133 -84
c61.333 -12 107.666 -31.5 138.999 -58.5s47 -60.5 47 -100.5c0 -64 -25.667 -109 -77 -135zM232.002 232l107.999 -27.001c18.667 -1.33301 34.5 3.16699 47.5 13.5s19.5 24.5 19.5 42.5c0 10.667 -3.16699 20 -9.5 28s-15.166 14 -26.499 18l-124 32
c-6 2.66699 -13.333 4 -22 4c-14.667 0 -27 -4.66699 -37 -14s-15 -22.666 -15 -39.999c0 -24.667 19.667 -43.667 59 -57z" />
    <glyph glyph-name="dieresis" unicode="&#xa8;" horiz-adv-x="422" 
d="M64 611.5c-9.33301 7.66699 -14 20.5 -14 38.5v18c0 18 4.83301 30.833 14.5 38.5s24.5 11.5 44.5 11.5c24 0 40.667 -3.66699 50 -11s14 -20.333 14 -39v-18c0 -19.333 -4.83301 -32.5 -14.5 -39.5s-26.167 -10.5 -49.5 -10.5c-20.667 0 -35.667 3.83301 -45 11.5z
M263 611.5c-9.33301 7.66699 -14 20.5 -14 38.5v18c0 18.667 5 31.667 15 39s25.333 11 46 11c22 0 37.833 -3.83301 47.5 -11.5s14.5 -20.5 14.5 -38.5v-18c0 -19.333 -4.83301 -32.5 -14.5 -39.5s-26.167 -10.5 -49.5 -10.5c-20.667 0 -35.667 3.83301 -45 11.5z" />
    <glyph glyph-name="copyright" unicode="&#xa9;" horiz-adv-x="780" 
d="M210 38.5c-55.333 32.333 -99.166 76.166 -131.499 131.499s-48.5 115.333 -48.5 180c0 65.333 16.167 125.5 48.5 180.5s76.166 98.667 131.499 131s115.333 48.5 180 48.5s124.667 -16.167 180 -48.5s99.166 -76 131.499 -131s48.5 -115.167 48.5 -180.5
c0 -64.667 -16.167 -124.667 -48.5 -180s-76.166 -99.166 -131.499 -131.499s-115.333 -48.5 -180 -48.5s-124.667 16.167 -180 48.5zM533.5 102.5c43.667 25.667 78.333 60.334 104 104.001s38.5 91.5 38.5 143.5s-12.833 99.833 -38.5 143.5
s-60.334 78.334 -104.001 104.001s-91.5 38.5 -143.5 38.5c-51.333 0 -99 -12.833 -143 -38.5s-78.833 -60.334 -104.5 -104.001s-38.5 -91.5 -38.5 -143.5s12.833 -99.833 38.5 -143.5s60.334 -78.334 104.001 -104.001s91.5 -38.5 143.5 -38.5s99.833 12.833 143.5 38.5z
M299.999 162c-34 17.333 -61.502 42.168 -82.502 74.501s-31.5 70.166 -31.5 113.499c0 38 10 73.5 30 106.5s47 59.167 81 78.5s70.667 29 110 29c36.667 0 70 -8 100 -24c7.33301 -3.33301 13 -8.5 17 -15.5s6 -14.833 6 -23.5c0 -11.333 -3 -21 -9 -29
c-8.66699 -10.667 -20 -16 -34 -16c-7.33301 0 -14.666 2 -21.999 6c-18 8 -37.333 12 -58 12c-23.333 0 -45.166 -5.66699 -65.499 -17s-36.333 -26.5 -48 -45.5s-17.5 -39.5 -17.5 -61.5c0 -25.333 6.16699 -47.333 18.5 -66s28.5 -33 48.5 -43s41.333 -15 64 -15
c20 0 39.333 4 58 12c8 3.33301 15 5 21 5c14.667 0 26.334 -5.33301 35.001 -16c6.66699 -8.66699 10 -18.667 10 -30c0 -8 -2 -15.5 -6 -22.5s-9.66699 -12.167 -17 -15.5c-30.667 -15.333 -64.334 -23 -101.001 -23c-37.333 0 -73 8.66699 -107 26z" />
    <glyph glyph-name="ordfeminine" unicode="&#xaa;" horiz-adv-x="354" 
d="M320 712c9.33301 -8 13.9971 -17.333 13.9971 -28v-243c0 -11.333 -5 -20.833 -15 -28.5s-21.667 -11.5 -35 -11.5c-14.667 0 -26.667 3.83301 -36 11.5s-14 17.167 -14 28.5v18c-9.33301 -19.333 -22.166 -35.5 -38.499 -48.5s-35.166 -19.5 -56.499 -19.5
c-41.333 0 -73.166 16.5 -95.499 49.5s-33.5 74.5 -33.5 124.5c0 46 12.833 84.167 38.5 114.5s60.5 45.5 104.5 45.5c39.333 0 66.333 -16.333 81 -49v8c0 10.667 4.66699 20 14 28s21.333 12 36 12s26.667 -4 36 -12zM219.997 492c12 15.333 17.999 36.333 17.999 63
c0 28.667 -5.66699 51.167 -17 67.5s-27.333 24.5 -48 24.5c-17.333 0 -32.166 -8.16699 -44.499 -24.5s-18.5 -35.5 -18.5 -57.5c0 -28 5.66699 -51 17 -69s28 -27 50 -27c16.667 0 31 7.66699 43 23z" />
    <glyph glyph-name="guillemotleft" unicode="&#xab;" horiz-adv-x="486" 
d="M456 103c0 -16 -5.83203 -28.833 -17.499 -38.5s-23.834 -14.5 -36.501 -14.5c-7.33301 0 -14.5 1.83301 -21.5 5.5s-12.833 8.83398 -17.5 15.501l-119 165c-6 9.33301 -9 18.666 -9 27.999c0 10 3 19 9 27l121 164c9.33301 13.333 22 20 38 20
c12.667 0 24.5 -4.83301 35.5 -14.5s16.5 -21.5 16.5 -35.5c0 -11.333 -4.33301 -23 -13 -35l-92 -125l95 -129c7.33301 -9.33301 11 -20.333 11 -33zM236.001 103c0 -16 -5.83203 -28.833 -17.499 -38.5s-23.834 -14.5 -36.501 -14.5c-7.33301 0 -14.5 1.83301 -21.5 5.5
s-12.833 8.83398 -17.5 15.501l-119 165c-6 9.33301 -9 18.666 -9 27.999c0 10 3 19 9 27l121 164c9.33301 13.333 22 20 38 20c12.667 0 24.5 -4.83301 35.5 -14.5s16.5 -21.5 16.5 -35.5c0 -11.333 -4.33301 -23 -13 -35l-92 -125l95 -129
c7.33301 -9.33301 11 -20.333 11 -33z" />
    <glyph glyph-name="logicalnot" unicode="&#xac;" horiz-adv-x="682" 
d="M618 392c9.33301 -9.33301 13.998 -21.667 13.998 -37v-184c0 -18 -6.16699 -32.667 -18.5 -44s-28.166 -17 -47.499 -17c-18 0 -33.167 5.66699 -45.5 17s-18.5 26 -18.5 44v115h-401c-15.333 0 -27.666 5.66699 -36.999 17s-14 26 -14 44
c0 17.333 4.83301 31.5 14.5 42.5s21.834 16.5 36.501 16.5h480c15.333 0 27.666 -4.66699 36.999 -14z" />
    <glyph glyph-name="uni00AD" unicode="&#xad;" horiz-adv-x="396" 
d="M67.5 264c-11.667 11.333 -17.5 25.667 -17.5 43c0 16.667 5.83301 30.667 17.5 42s26.167 17 43.5 17h174c17.333 0 31.833 -5.83301 43.5 -17.5s17.5 -26.167 17.5 -43.5c0 -16.667 -5.83301 -30.5 -17.5 -41.5s-26.167 -16.5 -43.5 -16.5h-174
c-17.333 0 -31.833 5.66699 -43.5 17z" />
    <glyph glyph-name="registered" unicode="&#xae;" horiz-adv-x="490" 
d="M357 679.5c34.667 -20.333 62.1641 -47.8301 82.4971 -82.4971s30.5 -72 30.5 -112c0 -40.667 -10.167 -78.334 -30.5 -113.001s-47.666 -62 -81.999 -82s-71.833 -30 -112.5 -30c-41.333 0 -79.166 10 -113.499 30s-61.5 47.167 -81.5 81.5s-30 72.166 -30 113.499
c0 40.667 10 78.167 30 112.5s47.333 61.666 82 81.999s72.334 30.5 113.001 30.5c40 0 77.333 -10.167 112 -30.5zM328.497 340.503c25.667 15 46 35.333 61 61s22.5 53.5 22.5 83.5s-7.5 57.833 -22.5 83.5s-35.333 46 -61 61s-53.5 22.5 -83.5 22.5
s-57.833 -7.5 -83.5 -22.5s-46 -35.333 -61 -61s-22.5 -53.5 -22.5 -83.5s7.5 -57.833 22.5 -83.5s35.333 -46 61 -61s53.5 -22.5 83.5 -22.5s57.833 7.5 83.5 22.5zM337.997 382.003c0 -6 -1.99902 -10.666 -5.99902 -13.999c-5.33301 -4.66699 -11 -7 -17 -7
c-5.33301 0 -11.333 2 -18 6c-16.667 10.667 -25 30.334 -25 59.001c0 10 -2.5 17.5 -7.5 22.5s-14.167 7.5 -27.5 7.5h-31v-65c0 -8.66699 -2.33301 -15.5 -7 -20.5s-10.667 -7.5 -18 -7.5c-8 0 -14.333 2.5 -19 7.5s-7 11.833 -7 20.5v190c0 5.33301 2 10.166 6 14.499
s9 6.5 15 6.5h85c18.667 0 35 -7.16699 49 -21.5s21 -31.833 21 -52.5c0 -10 -3.66699 -20.167 -11 -30.5s-15.666 -18.5 -24.999 -24.5c15.333 -12.667 23.666 -26.334 24.999 -41.001c0.666992 -9.33301 1.66699 -16.5 3 -21.5s3.66602 -8.83301 6.99902 -11.5
c5.33301 -4 8 -9.66699 8 -17zM273.498 507.004c6.33301 5.33301 9.5 12 9.5 20s-3.16699 14.333 -9.5 19s-14.166 7 -23.499 7h-44v-54h44c9.33301 0 17.166 2.66699 23.499 8z" />
    <glyph glyph-name="macron" unicode="&#xaf;" horiz-adv-x="442" 
d="M63 611.5c-8.66699 7.66699 -13 18.833 -13 33.5c0 14 4.33301 24.833 13 32.5s21 11.5 37 11.5h242c16 0 28.333 -3.83301 37 -11.5s13 -18.5 13 -32.5c0 -30 -16.667 -45 -50 -45h-242c-16 0 -28.333 3.83301 -37 11.5z" />
    <glyph glyph-name="degree" unicode="&#xb0;" horiz-adv-x="393" 
d="M111 407c-25.333 14.667 -45.166 34.5 -59.499 59.5s-21.5 51.833 -21.5 80.5c0 30 7.16699 57.333 21.5 82s34.166 44.334 59.499 59.001s53.666 22 84.999 22c32 0 60.667 -7.33301 86 -22s45.166 -34.334 59.499 -59.001s21.5 -52 21.5 -82
c0 -28.667 -7.16699 -55.5 -21.5 -80.5s-34.166 -44.833 -59.499 -59.5s-54 -22 -86 -22c-31.333 0 -59.666 7.33301 -84.999 22zM251 489.5c14.667 16.333 22 35.5 22 57.5c0 22.667 -7.16699 42.167 -21.5 58.5s-32.833 24.5 -55.5 24.5c-22 0 -40.167 -8 -54.5 -24
s-21.5 -35.667 -21.5 -59c0 -22 7.16699 -41.167 21.5 -57.5s32.5 -24.5 54.5 -24.5s40.333 8.16699 55 24.5z" />
    <glyph glyph-name="plusminus" unicode="&#xb1;" horiz-adv-x="578" 
d="M543 387.5c10.667 -10.333 16.001 -23.5 16.001 -39.5s-5.33301 -29.167 -16 -39.5s-24 -15.5 -40 -15.5h-140v-74c0 -18.667 -6.16699 -34 -18.5 -46s-27.833 -18 -46.5 -18s-34.167 6 -46.5 18s-18.5 27.333 -18.5 46v74h-137c-16 0 -29.333 5.33301 -40 16
s-16 24 -16 40s5.33301 29 16 39s24 15 40 15h137v96c0 18.667 6.16699 34 18.5 46s28.166 18 47.499 18c18.667 0 34 -6 46 -18s18 -27.333 18 -46v-96h140c16 0 29.333 -5.16699 40 -15.5zM522.001 95c10.667 -10.667 16 -24 16 -40s-5.33301 -29.333 -16 -40
s-24 -16 -40 -16h-386c-16 0 -29.333 5.33301 -40 16s-16 24 -16 40s5.33301 29.333 16 40s24 16 40 16h386c16 0 29.333 -5.33301 40 -16z" />
    <glyph glyph-name="uni00B2" unicode="&#xb2;" horiz-adv-x="364" 
d="M302.5 445.5c7.66699 -7.66699 11.499 -17.1699 11.499 -28.5029s-3.83301 -20.833 -11.5 -28.5s-17.5 -11.5 -29.5 -11.5h-177c-13.333 0 -24.333 4.16699 -33 12.5s-13 19.166 -13 32.499c0 8 1.5 14.833 4.5 20.5s7.83301 11.834 14.5 18.501l75 69
c44 41.333 66 75.666 66 102.999c0 12.667 -3.33301 22.334 -10 29.001s-15.667 10 -27 10c-7.33301 0 -14.833 -2.33301 -22.5 -7s-14.5 -10.667 -20.5 -18c-7.33301 -8.66699 -17.666 -13 -30.999 -13c-14 0 -25 4 -33 12s-12 17.667 -12 29
c0 14.667 6.66699 28.334 20 41.001s30.166 22.834 50.499 30.501s39.833 11.5 58.5 11.5c42.667 0 74.834 -12.167 96.501 -36.5s32.5 -53.166 32.5 -86.499c0 -38 -26.333 -81.333 -79 -130l-55 -48h95c12 0 21.833 -3.83301 29.5 -11.5z" />
    <glyph glyph-name="uni00B3" unicode="&#xb3;" horiz-adv-x="355" 
d="M288 577.5c18 -21 27 -46.498 27 -76.498c0 -27.333 -6.66699 -50.666 -20 -69.999s-30.833 -34 -52.5 -44s-44.167 -15 -67.5 -15c-42 0 -73 6.33301 -93 19c-14.667 8.66699 -22 21 -22 37c0 11.333 3.83301 21.166 11.5 29.499s17.5 12.5 29.5 12.5c8 0 15 -2 21 -6
c6 -4.66699 12.333 -8.5 19 -11.5s15 -4.5 25 -4.5c16 0 29.833 4.16699 41.5 12.5s17.5 21.166 17.5 38.499c0 12.667 -5.16699 22.834 -15.5 30.501s-23.5 11.5 -39.5 11.5c-7.33301 0 -17 -2 -29 -6c-10.667 -4.66699 -21 -7 -31 -7c-8.66699 0 -16.667 3.5 -24 10.5
s-11 15.5 -11 25.5c0 15.333 4 26 12 32l95 76h-81c-12 0 -21.833 3.83301 -29.5 11.5s-11.5 17.5 -11.5 29.5c0 11.333 3.83301 20.666 11.5 27.999s17.5 11 29.5 11h152c13.333 0 24.333 -4.33301 33 -13s13 -19.667 13 -33c0 -14.667 -4.33301 -25.334 -13 -32.001
l-79 -61c36 -2.66699 63 -14.5 81 -35.5z" />
    <glyph glyph-name="acute" unicode="&#xb4;" horiz-adv-x="261" 
d="M63.5 602c-7.66699 6 -11.166 13.999 -10.499 23.999c0 6 2 12.333 6 19l58 102c6.66699 12 14.667 21.667 24 29s19.666 11 30.999 11c18 0 31.5 -4.66699 40.5 -14s13.167 -21.333 12.5 -36c-1.33301 -15.333 -7.66602 -29.666 -18.999 -42.999l-76 -84
c-10.667 -11.333 -25.667 -17 -45 -17c-6.66699 0 -13.834 3 -21.501 9z" />
    <glyph glyph-name="uni00B5" unicode="&#xb5;" horiz-adv-x="606" 
d="M519 497.5c11.333 -11.667 17 -26.166 17 -43.499v-393c0 -17.333 -5.66699 -31.833 -17 -43.5s-25.666 -17.5 -42.999 -17.5s-31.666 5.83301 -42.999 17.5s-17 26.167 -17 43.5v18c-9.33301 -19.333 -26.166 -39 -50.499 -59s-54.5 -30 -90.5 -30
c-11.333 0 -24.5 2.5 -39.5 7.5s-26.833 12.5 -35.5 22.5v-120c0 -19.333 -5 -34.166 -15 -44.499s-24.667 -15.5 -44 -15.5s-34.166 5.16699 -44.499 15.5s-15.5 25.166 -15.5 44.499l-1 307v247c0 17.333 5.66699 31.833 17 43.5s25.666 17.5 42.999 17.5
s31.666 -5.83301 42.999 -17.5s17 -26.167 17 -43.5v-216c0 -42.667 7.16699 -76.334 21.5 -101.001s39.5 -37 75.5 -37c37.333 0 66.5 13 87.5 39s31.5 59 31.5 99v216c0 17.333 5.66699 31.833 17 43.5s25.666 17.5 42.999 17.5s31.666 -5.83301 42.999 -17.5z" />
    <glyph glyph-name="paragraph" unicode="&#xb6;" horiz-adv-x="632" 
d="M540.5 688.5c7.66699 -7.66699 11.499 -17.502 11.499 -29.502v-613c0 -15.333 -4.66699 -26.833 -14 -34.5s-19.333 -11.5 -30 -11.5c-11.333 0 -21.833 3.83301 -31.5 11.5s-14.5 19.167 -14.5 34.5v579h-63v-554c0 -46 -12.667 -79.833 -38 -101.5
s-57.666 -32.5 -96.999 -32.5c-32.667 0 -58 5 -76 15c-8 4 -14.333 9.83301 -19 17.5s-7 15.834 -7 24.501c0 5.33301 1.66699 12 5 20c8 14.667 20 22 36 22c5.33301 0 9 -0.333008 11 -1c21.333 -5.33301 36.333 -8 45 -8c33.333 0 50 21.333 50 64v194h-60
c-72.667 0 -126.5 16.333 -161.5 49s-52.5 83.334 -52.5 152.001c0 74 21 128.167 63 162.5s106.667 51.5 194 51.5h219c12 0 21.833 -3.83301 29.5 -11.5z" />
    <glyph glyph-name="periodcentered" unicode="&#xb7;" horiz-adv-x="222" 
d="M59.5 253.5c-10.333 10.333 -15.5 25.166 -15.5 44.499v17c0 19.333 5.16699 34.166 15.5 44.499s25.166 15.5 44.499 15.5h13c19.333 0 34.166 -5.16699 44.499 -15.5s15.5 -25.166 15.5 -44.499v-17c0 -19.333 -5.16699 -34.166 -15.5 -44.499
s-25.166 -15.5 -44.499 -15.5h-13c-19.333 0 -34.166 5.16699 -44.499 15.5z" />
    <glyph glyph-name="cedilla" unicode="&#xb8;" horiz-adv-x="261" 
d="M73 -138c-15.333 8.66699 -23 19.667 -23 33c0 10 4 20 12 30l78 105h71l-55 -149c-8 -21.333 -21.667 -32 -41 -32c-12.667 0 -26.667 4.33301 -42 13z" />
    <glyph glyph-name="uni00B9" unicode="&#xb9;" horiz-adv-x="320" 
d="M226 748.5c9.33301 -9.66699 13.998 -21.832 13.998 -36.499v-271c0 -13.333 -4.16699 -24.333 -12.5 -33s-19.166 -13 -32.499 -13s-24.166 4.33301 -32.499 13s-12.5 19.667 -12.5 33v206l-34 -23c-10.667 -7.33301 -21.334 -11 -32.001 -11
c-13.333 0 -24 5.16699 -32 15.5s-12 21.166 -12 32.499c0 7.33301 2.16699 14.5 6.5 21.5s10.5 12.833 18.5 17.5l96 55c12.667 5.33301 22.334 8 29.001 8c14.667 0 26.667 -4.83301 36 -14.5z" />
    <glyph glyph-name="ordmasculine" unicode="&#xba;" horiz-adv-x="350" 
d="M314 469c-14 -24 -33.333 -42.833 -58 -56.5s-52 -20.5 -82 -20.5s-57.167 6.83301 -81.5 20.5s-43.333 32.5 -57 56.5s-20.5 50.667 -20.5 80c0 30 7 57.333 21 82s33 44 57 58s51 21 81 21s57.333 -7 82 -21s44 -33.333 58 -58s21 -52 21 -82c0 -29.333 -7 -56 -21 -80
zM222 604c-12 14 -28 21 -48 21c-19.333 0 -34.833 -7 -46.5 -21s-17.5 -32.333 -17.5 -55c0 -21.333 5.66699 -38.666 17 -51.999s27 -20 47 -20s36 6.66699 48 20s18 30.666 18 51.999c0 22.667 -6 41 -18 55z" />
    <glyph glyph-name="guillemotright" unicode="&#xbb;" horiz-adv-x="497" 
d="M482 261c0 -10 -3.00098 -18.999 -9.00098 -26.999l-121 -164c-9.33301 -13.333 -22 -20 -38 -20c-12.667 0 -24.5 4.83301 -35.5 14.5s-16.5 21.5 -16.5 35.5c0 11.333 4.33301 23 13 35l92 125l-95 129c-7.33301 9.33301 -11 20.333 -11 33
c0 16 5.83301 28.833 17.5 38.5s23.834 14.5 36.501 14.5c7.33301 0 14.5 -1.83301 21.5 -5.5s12.833 -8.83398 17.5 -15.501l119 -165c6 -8.66699 9 -18 9 -28zM250.999 261.001c0 -10 -3.00098 -18.999 -9.00098 -26.999l-121 -164c-9.33301 -13.333 -22 -20 -38 -20
c-12.667 0 -24.5 4.83301 -35.5 14.5s-16.5 21.5 -16.5 35.5c0 11.333 4.33301 23 13 35l92 125l-95 129c-7.33301 9.33301 -11 20.333 -11 33c0 16 5.83301 28.833 17.5 38.5s23.834 14.5 36.501 14.5c7.33301 0 14.5 -1.83301 21.5 -5.5s12.833 -8.83398 17.5 -15.501
l119 -165c6 -8.66699 9 -18 9 -28z" />
    <glyph glyph-name="onequarter" unicode="&#xbc;" horiz-adv-x="827" 
d="M226 696.5c9.33301 -9.66699 13.998 -21.832 13.998 -36.499v-271c0 -13.333 -4.16699 -24.333 -12.5 -33s-19.166 -13 -32.499 -13s-24.166 4.33301 -32.499 13s-12.5 19.667 -12.5 33v206l-34 -23c-10.667 -7.33301 -21.334 -11 -32.001 -11
c-13.333 0 -24 5.16699 -32 15.5s-12 21.166 -12 32.499c0 7.33301 2.16699 14.5 6.5 21.5s10.5 12.833 18.5 17.5l96 55c12.667 5.33301 22.334 8 29.001 8c14.667 0 26.667 -4.83301 36 -14.5zM179.998 12.002c-11.333 9.33301 -17 21 -17 35
c0 8.66699 3.33301 18.667 10 30l398 601c12 16 25.667 24 41 24c12 0 23.667 -4.66699 35 -14s17 -21 17 -35c0 -8.66699 -3.33301 -18.667 -10 -30l-398 -601c-12 -16 -25.667 -24 -41 -24c-12 0 -23.667 4.66699 -35 14zM786.998 125.002
c0 -26.667 -13.6689 -39.999 -41.002 -39.999h-21v-39c0 -13.333 -4.16699 -24.333 -12.5 -33s-19.166 -13 -32.499 -13s-24.166 4.33301 -32.499 13s-12.5 19.667 -12.5 33v39h-128c-14.667 0 -27.167 4.83301 -37.5 14.5s-15.5 21.5 -15.5 35.5
c0 12.667 3.66699 23.667 11 33l165 192c11.333 14 26.333 21 45 21c14.667 0 26.667 -4.83301 36 -14.5s14 -21.834 14 -36.501v-165h21c27.333 0 41 -13.333 41 -40zM562.996 165.003h72v81z" />
    <glyph glyph-name="onehalf" unicode="&#xbd;" horiz-adv-x="844" 
d="M226 696.5c9.33301 -9.66699 13.998 -21.832 13.998 -36.499v-271c0 -13.333 -4.16699 -24.333 -12.5 -33s-19.166 -13 -32.499 -13s-24.166 4.33301 -32.499 13s-12.5 19.667 -12.5 33v206l-34 -23c-10.667 -7.33301 -21.334 -11 -32.001 -11
c-13.333 0 -24 5.16699 -32 15.5s-12 21.166 -12 32.499c0 7.33301 2.16699 14.5 6.5 21.5s10.5 12.833 18.5 17.5l96 55c12.667 5.33301 22.334 8 29.001 8c14.667 0 26.667 -4.83301 36 -14.5zM156.998 12.002c-11.333 9.33301 -17 21 -17 35
c0 8.66699 3.33301 18.667 10 30l398 601c12 16 25.667 24 41 24c12 0 23.667 -4.66699 35 -14s17 -21 17 -35c0 -8.66699 -3.33301 -18.667 -10 -30l-398 -601c-12 -16 -25.667 -24 -41 -24c-12 0 -23.667 4.66699 -35 14zM792.498 68.502
c7.66699 -7.66699 11.499 -17.1699 11.499 -28.5029s-3.83301 -20.833 -11.5 -28.5s-17.5 -11.5 -29.5 -11.5h-177c-13.333 0 -24.333 4.16699 -33 12.5s-13 19.166 -13 32.499c0 8 1.5 14.833 4.5 20.5s7.83301 11.834 14.5 18.501l75 69c44 41.333 66 75.666 66 102.999
c0 12.667 -3.33301 22.334 -10 29.001s-15.667 10 -27 10c-7.33301 0 -14.833 -2.33301 -22.5 -7s-14.5 -10.667 -20.5 -18c-7.33301 -8.66699 -17.666 -13 -30.999 -13c-14 0 -25 4 -33 12s-12 17.667 -12 29c0 14.667 6.66699 28.334 20 41.001
s30.166 22.834 50.499 30.501s39.833 11.5 58.5 11.5c42.667 0 74.834 -12.167 96.501 -36.5s32.5 -53.166 32.5 -86.499c0 -38 -26.333 -81.333 -79 -130l-55 -48h95c12 0 21.833 -3.83301 29.5 -11.5z" />
    <glyph glyph-name="threequarters" unicode="&#xbe;" horiz-adv-x="843" 
d="M278 525.5c18 -21 27 -46.498 27 -76.498c0 -27.333 -6.66699 -50.666 -20 -69.999s-30.833 -34 -52.5 -44s-44.167 -15 -67.5 -15c-42 0 -73 6.33301 -93 19c-14.667 8.66699 -22 21 -22 37c0 11.333 3.83301 21.166 11.5 29.499s17.5 12.5 29.5 12.5c8 0 15 -2 21 -6
c6 -4.66699 12.333 -8.5 19 -11.5s15 -4.5 25 -4.5c16 0 29.833 4.16699 41.5 12.5s17.5 21.166 17.5 38.499c0 12.667 -5.16699 22.834 -15.5 30.501s-23.5 11.5 -39.5 11.5c-7.33301 0 -17 -2 -29 -6c-10.667 -4.66699 -21 -7 -31 -7c-8.66699 0 -16.667 3.5 -24 10.5
s-11 15.5 -11 25.5c0 15.333 4 26 12 32l95 76h-81c-12 0 -21.833 3.83301 -29.5 11.5s-11.5 17.5 -11.5 29.5c0 11.333 3.83301 20.666 11.5 27.999s17.5 11 29.5 11h152c13.333 0 24.333 -4.33301 33 -13s13 -19.667 13 -33c0 -14.667 -4.33301 -25.334 -13 -32.001
l-79 -61c36 -2.66699 63 -14.5 81 -35.5zM192 12.002c-11.333 9.33301 -17 21 -17 35c0 8.66699 3.33301 18.667 10 30l398 601c12 16 25.667 24 41 24c12 0 23.667 -4.66699 35 -14s17 -21 17 -35c0 -8.66699 -3.33301 -18.667 -10 -30l-398 -601
c-12 -16 -25.667 -24 -41 -24c-12 0 -23.667 4.66699 -35 14zM803 125.002c0 -26.667 -13.6689 -39.999 -41.002 -39.999h-21v-39c0 -13.333 -4.16699 -24.333 -12.5 -33s-19.166 -13 -32.499 -13s-24.166 4.33301 -32.499 13s-12.5 19.667 -12.5 33v39h-128
c-14.667 0 -27.167 4.83301 -37.5 14.5s-15.5 21.5 -15.5 35.5c0 12.667 3.66699 23.667 11 33l165 192c11.333 14 26.333 21 45 21c14.667 0 26.667 -4.83301 36 -14.5s14 -21.834 14 -36.501v-165h21c27.333 0 41 -13.333 41 -40zM578.998 165.003h72v81z" />
    <glyph glyph-name="questiondown" unicode="&#xbf;" horiz-adv-x="527" 
d="M344.5 509.5c10.333 -10.333 15.5 -25.166 15.5 -44.499v-17c0 -19.333 -5.16699 -34.166 -15.5 -44.499s-25.166 -15.5 -44.499 -15.5h-13c-19.333 0 -34.166 5.16699 -44.499 15.5s-15.5 25.166 -15.5 44.499v17c0 19.333 5.16699 34.166 15.5 44.499
s25.166 15.5 44.499 15.5h13c19.333 0 34.166 -5.16699 44.499 -15.5zM338 165.5c-11.333 -11.667 -25.667 -17.4971 -43 -17.4971c-44 0 -79.333 -10.333 -106 -31s-40 -52.667 -40 -96c0 -33.333 12 -61 36 -83s54 -33 90 -33c36.667 0 69 12.333 97 37
c16 14.667 32.667 22 50 22c12.667 0 24 -4 34 -12c17.333 -13.333 26 -29 26 -47c0 -15.333 -6.33301 -29.333 -19 -42c-24 -24.667 -52.167 -43.834 -84.5 -57.501s-66.833 -20.5 -103.5 -20.5c-45.333 0 -86.666 10.333 -123.999 31s-67 49.167 -89 85.5
s-33 76.166 -33 119.499c0 64 18.333 114.667 55 152s85.334 60.666 146.001 69.999c3.33301 1.33301 5 3 5 5v37c0 17.333 5.66699 31.833 17 43.5s25.666 17.5 42.999 17.5s31.666 -5.83301 42.999 -17.5s17 -26.167 17 -43.5v-76c0 -17.333 -5.66699 -31.833 -17 -43.5z
" />
    <glyph glyph-name="Agrave" unicode="&#xc0;" horiz-adv-x="639" 
d="M629 54c0 -17.333 -5.66602 -31.499 -16.999 -42.499s-24.333 -16.5 -39 -16.5c-12 0 -22.833 3.66699 -32.5 11s-17.167 17.333 -22.5 30l-52 121h-298l-52 -122c-4.66699 -12.667 -11.834 -22.5 -21.501 -29.5s-20.167 -10.5 -31.5 -10.5
c-17.333 0 -30.5 4.66699 -39.5 14s-13.5 22 -13.5 38c0 6 1 12.333 3 19l249 598c5.33301 13.333 13.333 23.666 24 30.999s22.667 10.333 36 9c12 0 23.167 -3.5 33.5 -10.5s17.833 -16.833 22.5 -29.5l246 -586c3.33301 -8.66699 5 -16.667 5 -24zM217.001 272.001h200
l-101 234zM297.001 748.001l-99.998 53.001c-12 6.66699 -21.167 14.667 -27.5 24s-9.5 19 -9.5 29c0 14 5.66699 25.667 17 35s23.333 14 36 14c15.333 0 31.666 -7.33301 48.999 -22l86 -76c9.33301 -8.66699 14 -17.667 14 -27c0 -10.667 -3.83301 -19.334 -11.5 -26.001
s-17.834 -10 -30.501 -10c-7.33301 0 -15 2 -23 6z" />
    <glyph glyph-name="Aacute" unicode="&#xc1;" horiz-adv-x="639" 
d="M629 54c0 -17.333 -5.66602 -31.499 -16.999 -42.499s-24.333 -16.5 -39 -16.5c-12 0 -22.833 3.66699 -32.5 11s-17.167 17.333 -22.5 30l-52 121h-298l-52 -122c-4.66699 -12.667 -11.834 -22.5 -21.501 -29.5s-20.167 -10.5 -31.5 -10.5
c-17.333 0 -30.5 4.66699 -39.5 14s-13.5 22 -13.5 38c0 6 1 12.333 3 19l249 598c5.33301 13.333 13.333 23.666 24 30.999s22.667 10.333 36 9c12 0 23.167 -3.5 33.5 -10.5s17.833 -16.833 22.5 -29.5l246 -586c3.33301 -8.66699 5 -16.667 5 -24zM217.001 272.001h200
l-101 234zM292.501 748.001c-7.66699 6.66699 -11.4971 15.333 -11.4971 26c0 9.33301 4.66699 18.333 14 27l86 76c17.333 14.667 33.666 22 48.999 22c12.667 0 24.667 -4.66699 36 -14s17 -21 17 -35c0 -10 -3.16699 -19.833 -9.5 -29.5s-15.5 -17.5 -27.5 -23.5
l-100 -53c-6.66699 -4 -14.334 -6 -23.001 -6c-12.667 0 -22.834 3.33301 -30.501 10z" />
    <glyph glyph-name="Acircumflex" unicode="&#xc2;" horiz-adv-x="639" 
d="M629 54c0 -17.333 -5.66602 -31.499 -16.999 -42.499s-24.333 -16.5 -39 -16.5c-12 0 -22.833 3.66699 -32.5 11s-17.167 17.333 -22.5 30l-52 121h-298l-52 -122c-4.66699 -12.667 -11.834 -22.5 -21.501 -29.5s-20.167 -10.5 -31.5 -10.5
c-17.333 0 -30.5 4.66699 -39.5 14s-13.5 22 -13.5 38c0 6 1 12.333 3 19l249 598c5.33301 13.333 13.333 23.666 24 30.999s22.667 10.333 36 9c12 0 23.167 -3.5 33.5 -10.5s17.833 -16.833 22.5 -29.5l246 -586c3.33301 -8.66699 5 -16.667 5 -24zM217.001 272.001h200
l-101 234zM465.001 779.001c2 -4 2.99902 -8.66699 2.99902 -14c0 -6 -3 -11.667 -9 -17s-13.333 -8 -22 -8c-6 0 -12.667 1.66699 -20 5s-17.666 9 -30.999 17l-65 38l-65 -38c-10.667 -6 -20.334 -11.167 -29.001 -15.5s-16 -6.5 -22 -6.5c-8.66699 0 -16 2.66699 -22 8
s-9 11 -9 17c0 5.33301 1 10 3 14s6 9.33301 12 16l63 72c8.66699 10 17.667 17.333 27 22s20.666 7 33.999 7h16c12.667 0 23.834 -2.33301 33.501 -7s18.834 -12 27.501 -22l63 -72c6 -6.66699 10 -12 12 -16z" />
    <glyph glyph-name="Atilde" unicode="&#xc3;" horiz-adv-x="639" 
d="M629 54c0 -17.333 -5.66602 -31.499 -16.999 -42.499s-24.333 -16.5 -39 -16.5c-12 0 -22.833 3.66699 -32.5 11s-17.167 17.333 -22.5 30l-52 121h-298l-52 -122c-4.66699 -12.667 -11.834 -22.5 -21.501 -29.5s-20.167 -10.5 -31.5 -10.5
c-17.333 0 -30.5 4.66699 -39.5 14s-13.5 22 -13.5 38c0 6 1 12.333 3 19l249 598c5.33301 13.333 13.333 23.666 24 30.999s22.667 10.333 36 9c12 0 23.167 -3.5 33.5 -10.5s17.833 -16.833 22.5 -29.5l246 -586c3.33301 -8.66699 5 -16.667 5 -24zM217.001 272.001h200
l-101 234zM148.001 755.501c-10.667 13 -15.998 30.166 -15.998 51.499c0 22.667 10 43 30 61s47 27 81 27c17.333 0 33.666 -3.33301 48.999 -10s33.333 -16 54 -28c14 -8 25.167 -14 33.5 -18s15.833 -6 22.5 -6c7.33301 0 13 2 17 6s5 9 3 15
c-1.33301 3.33301 -2 8 -2 14c0 10.667 3.5 19.167 10.5 25.5s15.833 9.5 26.5 9.5c15.333 0 28.333 -6.5 39 -19.5s16 -29.5 16 -49.5c0 -12.667 -3.66699 -26 -11 -40s-18.166 -25.833 -32.499 -35.5s-31.5 -14.5 -51.5 -14.5c-19.333 0 -37.333 3.33301 -54 10
s-37.667 16.334 -63 29.001c-14.667 8 -26.334 13.833 -35.001 17.5s-16.334 5.5 -23.001 5.5c-7.33301 0 -13 -2 -17 -6s-5 -9 -3 -15c1.33301 -3.33301 2 -8 2 -14c0 -10.667 -3.5 -19.167 -10.5 -25.5s-15.833 -9.5 -26.5 -9.5c-15.333 0 -28.333 6.5 -39 19.5z" />
    <glyph glyph-name="Adieresis" unicode="&#xc4;" horiz-adv-x="639" 
d="M629 54c0 -17.333 -5.66602 -31.499 -16.999 -42.499s-24.333 -16.5 -39 -16.5c-12 0 -22.833 3.66699 -32.5 11s-17.167 17.333 -22.5 30l-52 121h-298l-52 -122c-4.66699 -12.667 -11.834 -22.5 -21.501 -29.5s-20.167 -10.5 -31.5 -10.5
c-17.333 0 -30.5 4.66699 -39.5 14s-13.5 22 -13.5 38c0 6 1 12.333 3 19l249 598c5.33301 13.333 13.333 23.666 24 30.999s22.667 10.333 36 9c12 0 23.167 -3.5 33.5 -10.5s17.833 -16.833 22.5 -29.5l246 -586c3.33301 -8.66699 5 -16.667 5 -24zM217.001 272.001h200
l-101 234zM175.001 771.501c-9.33301 7.66699 -14 20.5 -14 38.5v18c0 18.667 5 31.667 15 39s25.333 11 46 11c22 0 37.833 -3.83301 47.5 -11.5s14.5 -20.5 14.5 -38.5v-18c0 -18.667 -4.83301 -31.667 -14.5 -39s-25.834 -11 -48.501 -11
c-21.333 0 -36.666 3.83301 -45.999 11.5zM374.001 771.501c-9.33301 7.66699 -14.002 20.5 -14.002 38.5v18c0 18.667 4.83301 31.667 14.5 39s24.834 11 45.501 11c22.667 0 38.834 -3.66699 48.501 -11s14.5 -20.333 14.5 -39v-18c0 -18.667 -4.83301 -31.667 -14.5 -39
s-25.834 -11 -48.501 -11c-21.333 0 -36.666 3.83301 -45.999 11.5z" />
    <glyph glyph-name="Aring" unicode="&#xc5;" horiz-adv-x="643" 
d="M629 54c0 -17.333 -5.66797 -31.498 -17.001 -42.498s-24.333 -16.5 -39 -16.5c-12 0 -22.833 3.66699 -32.5 11s-17.167 17.333 -22.5 30l-52 121h-298l-52 -122c-4.66699 -12.667 -11.834 -22.5 -21.501 -29.5s-20.167 -10.5 -31.5 -10.5
c-17.333 0 -30.5 4.66699 -39.5 14s-13.5 22 -13.5 38c0 6 1 12.333 3 19l245 589c-15.333 10 -27.5 22.833 -36.5 38.5s-13.5 32.5 -13.5 50.5c0 30.667 11.333 56.834 34 78.501s49.334 32.5 80.001 32.5s57.334 -10.833 80.001 -32.5s34 -47.834 34 -78.501
c0 -18.667 -4.83301 -35.834 -14.5 -51.501s-22.5 -28.834 -38.5 -39.501l241 -575c3.33301 -8.66699 5 -16.667 5 -24zM290.499 774.002c-8.33301 -7.33301 -12.5 -17.333 -12.5 -30c0 -11.333 4.16699 -20.666 12.5 -27.999s18.833 -11 31.5 -11s23.167 3.66699 31.5 11
s12.5 16.666 12.5 27.999c0 13.333 -4.33301 23.5 -13 30.5s-19 10.5 -31 10.5c-12.667 0 -23.167 -3.66699 -31.5 -11zM216.999 272.002h200l-101 234z" />
    <glyph glyph-name="AE" unicode="&#xc6;" horiz-adv-x="884" 
d="M826.5 97.5c11.667 -11.667 17.5 -25.167 17.5 -40.5c0 -16.667 -5.83301 -30.334 -17.5 -41.001s-26.167 -16 -43.5 -16h-315c-17.333 0 -31.833 5.83301 -43.5 17.5s-17.5 26.167 -17.5 43.5v82h-220l-84 -124c-12 -16 -26.333 -24 -43 -24
c-14.667 0 -27.667 5.33301 -39 16s-17 24.334 -17 41.001c0 12 4.33301 24.333 13 37l408 585c12 17.333 30.667 26 56 26h302c17.333 0 31.833 -5.5 43.5 -16.5s17.5 -25.167 17.5 -42.5c0 -16.667 -5.66699 -30.167 -17 -40.5s-26 -15.5 -44 -15.5h-251v-175h206
c17.333 0 31.833 -5.5 43.5 -16.5s17.5 -25.167 17.5 -42.5c0 -16.667 -5.66699 -30.167 -17 -40.5s-26 -15.5 -44 -15.5h-206v-180h251c17.333 0 31.833 -5.83301 43.5 -17.5zM407 470l-144 -214h144v214z" />
    <glyph glyph-name="Ccedilla" unicode="&#xc7;" horiz-adv-x="627" 
d="M597 78c0 -10.667 -2.66504 -20.3291 -7.99805 -28.9961s-13 -15.334 -23 -20.001c-48.667 -24 -100.667 -37 -156 -39l-40 -109c-8 -21.333 -21.667 -32 -41 -32c-12.667 0 -26.667 4.33301 -42 13s-23 19.667 -23 33c0 10 4 20 12 30l53 71
c-54.667 9.33301 -103.834 28.833 -147.501 58.5s-78.167 69.667 -103.5 120s-38 108.833 -38 175.5c0 68 15.5 129 46.5 183s73.833 96.167 128.5 126.5s116.334 45.5 185.001 45.5c59.333 0 114.333 -13 165 -39c20.667 -10.667 31 -27.667 31 -51
c0 -14 -5 -27.667 -15 -41c-10.667 -14 -24.334 -21 -41.001 -21c-11.333 0 -22.666 3 -33.999 9c-32.667 15.333 -68 23 -106 23c-46.667 0 -87.334 -9.83301 -122.001 -29.5s-61.334 -47.334 -80.001 -83.001s-28 -76.5 -28 -122.5
c0 -78.667 21.167 -138.334 63.5 -179.001s97.833 -61 166.5 -61c40.667 0 76 7.66699 106 23c12 5.33301 22.667 8 32 8c17.333 0 32 -7.33301 44 -22c10 -12.667 15 -26.334 15 -41.001z" />
    <glyph glyph-name="Egrave" unicode="&#xc8;" horiz-adv-x="572" 
d="M514.5 97.5c11.667 -11.667 17.5 -25.166 17.5 -40.499c0 -16.667 -5.83301 -30.334 -17.5 -41.001s-26.167 -16 -43.5 -16h-335c-17.333 -0 -31.833 5.83301 -43.5 17.5s-17.5 26.167 -17.5 43.5v578c0 17.333 5.83301 31.833 17.5 43.5s26.167 17.5 43.5 17.5h335
c17.333 0 31.833 -5.5 43.5 -16.5s17.5 -25.167 17.5 -42.5c0 -16.667 -5.66699 -30.167 -17 -40.5s-26 -15.5 -44 -15.5h-271v-170h226c17.333 0 31.833 -5.5 43.5 -16.5s17.5 -25.167 17.5 -42.5c0 -16.667 -5.66699 -30.167 -17 -40.5s-26 -15.5 -44 -15.5h-226v-185h271
c17.333 0 31.833 -5.83301 43.5 -17.5zM281 748.001l-99.998 53.001c-12 6.66699 -21.167 14.667 -27.5 24s-9.5 19 -9.5 29c0 14 5.66699 25.667 17 35s23.333 14 36 14c15.333 0 31.666 -7.33301 48.999 -22l86 -76c9.33301 -8.66699 14 -17.667 14 -27
c0 -10.667 -3.83301 -19.334 -11.5 -26.001s-17.834 -10 -30.501 -10c-7.33301 0 -15 2 -23 6z" />
    <glyph glyph-name="Eacute" unicode="&#xc9;" horiz-adv-x="572" 
d="M514.5 97.5c11.667 -11.667 17.5 -25.166 17.5 -40.499c0 -16.667 -5.83301 -30.334 -17.5 -41.001s-26.167 -16 -43.5 -16h-335c-17.333 -0 -31.833 5.83301 -43.5 17.5s-17.5 26.167 -17.5 43.5v578c0 17.333 5.83301 31.833 17.5 43.5s26.167 17.5 43.5 17.5h335
c17.333 0 31.833 -5.5 43.5 -16.5s17.5 -25.167 17.5 -42.5c0 -16.667 -5.66699 -30.167 -17 -40.5s-26 -15.5 -44 -15.5h-271v-170h226c17.333 0 31.833 -5.5 43.5 -16.5s17.5 -25.167 17.5 -42.5c0 -16.667 -5.66699 -30.167 -17 -40.5s-26 -15.5 -44 -15.5h-226v-185h271
c17.333 0 31.833 -5.83301 43.5 -17.5zM276.5 748.001c-7.66699 6.66699 -11.4971 15.333 -11.4971 26c0 9.33301 4.66699 18.333 14 27l86 76c17.333 14.667 33.666 22 48.999 22c12.667 0 24.667 -4.66699 36 -14s17 -21 17 -35c0 -10 -3.16699 -19.833 -9.5 -29.5
s-15.5 -17.5 -27.5 -23.5l-100 -53c-6.66699 -4 -14.334 -6 -23.001 -6c-12.667 0 -22.834 3.33301 -30.501 10z" />
    <glyph glyph-name="Ecircumflex" unicode="&#xca;" horiz-adv-x="572" 
d="M514.5 97.5c11.667 -11.667 17.5 -25.166 17.5 -40.499c0 -16.667 -5.83301 -30.334 -17.5 -41.001s-26.167 -16 -43.5 -16h-335c-17.333 -0 -31.833 5.83301 -43.5 17.5s-17.5 26.167 -17.5 43.5v578c0 17.333 5.83301 31.833 17.5 43.5s26.167 17.5 43.5 17.5h335
c17.333 0 31.833 -5.5 43.5 -16.5s17.5 -25.167 17.5 -42.5c0 -16.667 -5.66699 -30.167 -17 -40.5s-26 -15.5 -44 -15.5h-271v-170h226c17.333 0 31.833 -5.5 43.5 -16.5s17.5 -25.167 17.5 -42.5c0 -16.667 -5.66699 -30.167 -17 -40.5s-26 -15.5 -44 -15.5h-226v-185h271
c17.333 0 31.833 -5.83301 43.5 -17.5zM449 779.001c2 -4 2.99902 -8.66699 2.99902 -14c0 -6 -3 -11.667 -9 -17s-13.333 -8 -22 -8c-6 0 -12.667 1.66699 -20 5s-17.666 9 -30.999 17l-65 38l-65 -38c-10.667 -6 -20.334 -11.167 -29.001 -15.5s-16 -6.5 -22 -6.5
c-8.66699 0 -16 2.66699 -22 8s-9 11 -9 17c0 5.33301 1 10 3 14s6 9.33301 12 16l63 72c8.66699 10 17.667 17.333 27 22s20.666 7 33.999 7h16c12.667 0 23.834 -2.33301 33.501 -7s18.834 -12 27.501 -22l63 -72c6 -6.66699 10 -12 12 -16z" />
    <glyph glyph-name="Edieresis" unicode="&#xcb;" horiz-adv-x="572" 
d="M514.5 97.5c11.667 -11.667 17.5 -25.166 17.5 -40.499c0 -16.667 -5.83301 -30.334 -17.5 -41.001s-26.167 -16 -43.5 -16h-335c-17.333 -0 -31.833 5.83301 -43.5 17.5s-17.5 26.167 -17.5 43.5v578c0 17.333 5.83301 31.833 17.5 43.5s26.167 17.5 43.5 17.5h335
c17.333 0 31.833 -5.5 43.5 -16.5s17.5 -25.167 17.5 -42.5c0 -16.667 -5.66699 -30.167 -17 -40.5s-26 -15.5 -44 -15.5h-271v-170h226c17.333 0 31.833 -5.5 43.5 -16.5s17.5 -25.167 17.5 -42.5c0 -16.667 -5.66699 -30.167 -17 -40.5s-26 -15.5 -44 -15.5h-226v-185h271
c17.333 0 31.833 -5.83301 43.5 -17.5zM159 771.501c-9.33301 7.66699 -14 20.5 -14 38.5v18c0 18.667 5 31.667 15 39s25.333 11 46 11c22 0 37.833 -3.83301 47.5 -11.5s14.5 -20.5 14.5 -38.5v-18c0 -18.667 -4.83301 -31.667 -14.5 -39s-25.834 -11 -48.501 -11
c-21.333 0 -36.666 3.83301 -45.999 11.5zM358 771.501c-9.33301 7.66699 -14.002 20.5 -14.002 38.5v18c0 18.667 4.83301 31.667 14.5 39s24.834 11 45.501 11c22.667 0 38.834 -3.66699 48.501 -11s14.5 -20.333 14.5 -39v-18c0 -18.667 -4.83301 -31.667 -14.5 -39
s-25.834 -11 -48.501 -11c-21.333 0 -36.666 3.83301 -45.999 11.5z" />
    <glyph glyph-name="Igrave" unicode="&#xcc;" horiz-adv-x="275" 
d="M181 17.5c-12.667 -11.667 -27.333 -17.5 -44 -17.5c-18 -0 -32.833 5.83301 -44.5 17.5s-17.5 26.167 -17.5 43.5v578c0 17.333 6 31.833 18 43.5s27.333 17.5 46 17.5c16.667 0 31 -5.83301 43 -17.5s18 -26.167 18 -43.5v-578c0 -17.333 -6.33301 -31.833 -19 -43.5z
M115.001 748l-99.998 53.001c-12 6.66699 -21.167 14.667 -27.5 24s-9.5 19 -9.5 29c0 14 5.66699 25.667 17 35s23.333 14 36 14c15.333 0 31.666 -7.33301 48.999 -22l86 -76c9.33301 -8.66699 14 -17.667 14 -27c0 -10.667 -3.83301 -19.334 -11.5 -26.001
s-17.834 -10 -30.501 -10c-7.33301 0 -15 2 -23 6z" />
    <glyph glyph-name="Iacute" unicode="&#xcd;" horiz-adv-x="275" 
d="M181 17.5c-12.667 -11.667 -27.333 -17.5 -44 -17.5c-18 -0 -32.833 5.83301 -44.5 17.5s-17.5 26.167 -17.5 43.5v578c0 17.333 6 31.833 18 43.5s27.333 17.5 46 17.5c16.667 0 31 -5.83301 43 -17.5s18 -26.167 18 -43.5v-578c0 -17.333 -6.33301 -31.833 -19 -43.5z
M110.501 748c-7.66699 6.66699 -11.4971 15.333 -11.4971 26c0 9.33301 4.66699 18.333 14 27l86 76c17.333 14.667 33.666 22 48.999 22c12.667 0 24.667 -4.66699 36 -14s17 -21 17 -35c0 -10 -3.16699 -19.833 -9.5 -29.5s-15.5 -17.5 -27.5 -23.5l-100 -53
c-6.66699 -4 -14.334 -6 -23.001 -6c-12.667 0 -22.834 3.33301 -30.501 10z" />
    <glyph glyph-name="Icircumflex" unicode="&#xce;" horiz-adv-x="275" 
d="M181 17.5c-12.667 -11.667 -27.333 -17.5 -44 -17.5c-18 -0 -32.833 5.83301 -44.5 17.5s-17.5 26.167 -17.5 43.5v578c0 17.333 6 31.833 18 43.5s27.333 17.5 46 17.5c16.667 0 31 -5.83301 43 -17.5s18 -26.167 18 -43.5v-578c0 -17.333 -6.33301 -31.833 -19 -43.5z
M283.001 779c2 -4 2.99902 -8.66699 2.99902 -14c0 -6 -3 -11.667 -9 -17s-13.333 -8 -22 -8c-6 0 -12.667 1.66699 -20 5s-17.666 9 -30.999 17l-65 38l-65 -38c-10.667 -6 -20.334 -11.167 -29.001 -15.5s-16 -6.5 -22 -6.5c-8.66699 0 -16 2.66699 -22 8s-9 11 -9 17
c0 5.33301 1 10 3 14s6 9.33301 12 16l63 72c8.66699 10 17.667 17.333 27 22s20.666 7 33.999 7h16c12.667 0 23.834 -2.33301 33.501 -7s18.834 -12 27.501 -22l63 -72c6 -6.66699 10 -12 12 -16z" />
    <glyph glyph-name="Idieresis" unicode="&#xcf;" horiz-adv-x="275" 
d="M181 17.5c-12.667 -11.667 -27.333 -17.5 -44 -17.5c-18 -0 -32.833 5.83301 -44.5 17.5s-17.5 26.167 -17.5 43.5v578c0 17.333 6 31.833 18 43.5s27.333 17.5 46 17.5c16.667 0 31 -5.83301 43 -17.5s18 -26.167 18 -43.5v-578c0 -17.333 -6.33301 -31.833 -19 -43.5z
M-6.99902 771.5c-9.33301 7.66699 -14 20.5 -14 38.5v18c0 18.667 5 31.667 15 39s25.333 11 46 11c22 0 37.833 -3.83301 47.5 -11.5s14.5 -20.5 14.5 -38.5v-18c0 -18.667 -4.83301 -31.667 -14.5 -39s-25.834 -11 -48.501 -11c-21.333 0 -36.666 3.83301 -45.999 11.5z
M192.001 771.5c-9.33301 7.66699 -14.002 20.5 -14.002 38.5v18c0 18.667 4.83301 31.667 14.5 39s24.834 11 45.501 11c22.667 0 38.834 -3.66699 48.501 -11s14.5 -20.333 14.5 -39v-18c0 -18.667 -4.83301 -31.667 -14.5 -39s-25.834 -11 -48.501 -11
c-21.333 0 -36.666 3.83301 -45.999 11.5z" />
    <glyph glyph-name="Eth" unicode="&#xd0;" horiz-adv-x="715" 
d="M536.5 653.5c45 -31 79.333 -72.999 103 -125.999s35.5 -112.167 35.5 -177.5s-11.833 -124.5 -35.5 -177.5s-58 -95 -103 -126s-98.833 -46.5 -161.5 -46.5h-239c-17.333 0 -31.833 5.83301 -43.5 17.5s-17.5 26.167 -17.5 43.5v236h-18
c-17.333 0 -31.833 5.16699 -43.5 15.5s-17.5 23.833 -17.5 40.5c0 15.333 5.83301 28.166 17.5 38.499s26.167 15.5 43.5 15.5h18v232c0 17.333 5.83301 31.833 17.5 43.5s26.167 17.5 43.5 17.5h239c62.667 0 116.5 -15.5 161.5 -46.5zM500 181.501
c30 44.333 44.999 100.499 44.999 168.499s-15.167 124.167 -45.5 168.5s-75.166 66.5 -134.499 66.5h-165v-178h31c17.333 0 31.833 -5.16699 43.5 -15.5s17.5 -23.166 17.5 -38.499c0 -16.667 -5.83301 -30.167 -17.5 -40.5s-26.167 -15.5 -43.5 -15.5h-31v-182h165
c60 0 105 22.167 135 66.5z" />
    <glyph glyph-name="Ntilde" unicode="&#xd1;" horiz-adv-x="735" 
d="M645 684c10 -10.667 14.999 -24 14.999 -40v-583c0 -17.333 -5.83301 -31.833 -17.5 -43.5s-26.167 -17.5 -43.5 -17.5c-9.33301 0 -18.5 1.5 -27.5 4.5s-15.5 7.16699 -19.5 12.5l-367 466v-427c0 -16 -5.16699 -29.333 -15.5 -40s-23.833 -16 -40.5 -16
c-16 -0 -29 5.33301 -39 16s-15 24 -15 40v583c0 17.333 5.83301 31.833 17.5 43.5s26.167 17.5 43.5 17.5c10 0 19.833 -2 29.5 -6s16.834 -9.33301 21.501 -16l364 -464v430c0 16 5.16699 29.333 15.5 40s23.5 16 39.5 16s29 -5.33301 39 -16zM193.999 755.5
c-10.667 13 -15.998 30.166 -15.998 51.499c0 22.667 10 43 30 61s47 27 81 27c17.333 0 33.666 -3.33301 48.999 -10s33.333 -16 54 -28c14 -8 25.167 -14 33.5 -18s15.833 -6 22.5 -6c7.33301 0 13 2 17 6s5 9 3 15c-1.33301 3.33301 -2 8 -2 14
c0 10.667 3.5 19.167 10.5 25.5s15.833 9.5 26.5 9.5c15.333 0 28.333 -6.5 39 -19.5s16 -29.5 16 -49.5c0 -12.667 -3.66699 -26 -11 -40s-18.166 -25.833 -32.499 -35.5s-31.5 -14.5 -51.5 -14.5c-19.333 0 -37.333 3.33301 -54 10s-37.667 16.334 -63 29.001
c-14.667 8 -26.334 13.833 -35.001 17.5s-16.334 5.5 -23.001 5.5c-7.33301 0 -13 -2 -17 -6s-5 -9 -3 -15c1.33301 -3.33301 2 -8 2 -14c0 -10.667 -3.5 -19.167 -10.5 -25.5s-15.833 -9.5 -26.5 -9.5c-15.333 0 -28.333 6.5 -39 19.5z" />
    <glyph glyph-name="Ograve" unicode="&#xd2;" horiz-adv-x="759" 
d="M675 168.5c-29.333 -55 -69.833 -98.5 -121.5 -130.5s-109.834 -48 -174.501 -48s-122.834 16 -174.501 48s-92 75.5 -121 130.5s-43.5 115.5 -43.5 181.5s14.5 126.5 43.5 181.5s69.333 98.5 121 130.5s109.834 48 174.501 48s122.834 -16 174.501 -48
s92.167 -75.5 121.5 -130.5s44 -115.5 44 -181.5s-14.667 -126.5 -44 -181.5zM562 471.5c-18 36.333 -43 65.1699 -75 86.5029s-68 32 -108 32c-40.667 0 -76.834 -10.5 -108.501 -31.5s-56.334 -49.833 -74.001 -86.5s-26.5 -77.334 -26.5 -122.001
s8.83301 -85.334 26.5 -122.001s42.334 -65.5 74.001 -86.5s67.834 -31.5 108.501 -31.5c40 0 76 10.667 108 32s57 50.166 75 86.499s27 76.833 27 121.5s-9 85.167 -27 121.5zM355 748.004l-99.998 53.001c-12 6.66699 -21.167 14.667 -27.5 24s-9.5 19 -9.5 29
c0 14 5.66699 25.667 17 35s23.333 14 36 14c15.333 0 31.666 -7.33301 48.999 -22l86 -76c9.33301 -8.66699 14 -17.667 14 -27c0 -10.667 -3.83301 -19.334 -11.5 -26.001s-17.834 -10 -30.501 -10c-7.33301 0 -15 2 -23 6z" />
    <glyph glyph-name="Oacute" unicode="&#xd3;" horiz-adv-x="759" 
d="M675 168.5c-29.333 -55 -69.833 -98.5 -121.5 -130.5s-109.834 -48 -174.501 -48s-122.834 16 -174.501 48s-92 75.5 -121 130.5s-43.5 115.5 -43.5 181.5s14.5 126.5 43.5 181.5s69.333 98.5 121 130.5s109.834 48 174.501 48s122.834 -16 174.501 -48
s92.167 -75.5 121.5 -130.5s44 -115.5 44 -181.5s-14.667 -126.5 -44 -181.5zM562 471.5c-18 36.333 -43 65.1699 -75 86.5029s-68 32 -108 32c-40.667 0 -76.834 -10.5 -108.501 -31.5s-56.334 -49.833 -74.001 -86.5s-26.5 -77.334 -26.5 -122.001
s8.83301 -85.334 26.5 -122.001s42.334 -65.5 74.001 -86.5s67.834 -31.5 108.501 -31.5c40 0 76 10.667 108 32s57 50.166 75 86.499s27 76.833 27 121.5s-9 85.167 -27 121.5zM350.5 748.004c-7.66699 6.66699 -11.4971 15.333 -11.4971 26
c0 9.33301 4.66699 18.333 14 27l86 76c17.333 14.667 33.666 22 48.999 22c12.667 0 24.667 -4.66699 36 -14s17 -21 17 -35c0 -10 -3.16699 -19.833 -9.5 -29.5s-15.5 -17.5 -27.5 -23.5l-100 -53c-6.66699 -4 -14.334 -6 -23.001 -6
c-12.667 0 -22.834 3.33301 -30.501 10z" />
    <glyph glyph-name="Ocircumflex" unicode="&#xd4;" horiz-adv-x="759" 
d="M675 168.5c-29.333 -55 -69.833 -98.5 -121.5 -130.5s-109.834 -48 -174.501 -48s-122.834 16 -174.501 48s-92 75.5 -121 130.5s-43.5 115.5 -43.5 181.5s14.5 126.5 43.5 181.5s69.333 98.5 121 130.5s109.834 48 174.501 48s122.834 -16 174.501 -48
s92.167 -75.5 121.5 -130.5s44 -115.5 44 -181.5s-14.667 -126.5 -44 -181.5zM562 471.5c-18 36.333 -43 65.1699 -75 86.5029s-68 32 -108 32c-40.667 0 -76.834 -10.5 -108.501 -31.5s-56.334 -49.833 -74.001 -86.5s-26.5 -77.334 -26.5 -122.001
s8.83301 -85.334 26.5 -122.001s42.334 -65.5 74.001 -86.5s67.834 -31.5 108.501 -31.5c40 0 76 10.667 108 32s57 50.166 75 86.499s27 76.833 27 121.5s-9 85.167 -27 121.5zM523 779.004c2 -4 2.99902 -8.66699 2.99902 -14c0 -6 -3 -11.667 -9 -17s-13.333 -8 -22 -8
c-6 0 -12.667 1.66699 -20 5s-17.666 9 -30.999 17l-65 38l-65 -38c-10.667 -6 -20.334 -11.167 -29.001 -15.5s-16 -6.5 -22 -6.5c-8.66699 0 -16 2.66699 -22 8s-9 11 -9 17c0 5.33301 1 10 3 14s6 9.33301 12 16l63 72c8.66699 10 17.667 17.333 27 22s20.666 7 33.999 7
h16c12.667 0 23.834 -2.33301 33.501 -7s18.834 -12 27.501 -22l63 -72c6 -6.66699 10 -12 12 -16z" />
    <glyph glyph-name="Otilde" unicode="&#xd5;" horiz-adv-x="759" 
d="M675 168.5c-29.333 -55 -69.833 -98.5 -121.5 -130.5s-109.834 -48 -174.501 -48s-122.834 16 -174.501 48s-92 75.5 -121 130.5s-43.5 115.5 -43.5 181.5s14.5 126.5 43.5 181.5s69.333 98.5 121 130.5s109.834 48 174.501 48s122.834 -16 174.501 -48
s92.167 -75.5 121.5 -130.5s44 -115.5 44 -181.5s-14.667 -126.5 -44 -181.5zM562 471.5c-18 36.333 -43 65.1699 -75 86.5029s-68 32 -108 32c-40.667 0 -76.834 -10.5 -108.501 -31.5s-56.334 -49.833 -74.001 -86.5s-26.5 -77.334 -26.5 -122.001
s8.83301 -85.334 26.5 -122.001s42.334 -65.5 74.001 -86.5s67.834 -31.5 108.501 -31.5c40 0 76 10.667 108 32s57 50.166 75 86.499s27 76.833 27 121.5s-9 85.167 -27 121.5zM206 755.504c-10.667 13 -15.998 30.166 -15.998 51.499c0 22.667 10 43 30 61s47 27 81 27
c17.333 0 33.666 -3.33301 48.999 -10s33.333 -16 54 -28c14 -8 25.167 -14 33.5 -18s15.833 -6 22.5 -6c7.33301 0 13 2 17 6s5 9 3 15c-1.33301 3.33301 -2 8 -2 14c0 10.667 3.5 19.167 10.5 25.5s15.833 9.5 26.5 9.5c15.333 0 28.333 -6.5 39 -19.5s16 -29.5 16 -49.5
c0 -12.667 -3.66699 -26 -11 -40s-18.166 -25.833 -32.499 -35.5s-31.5 -14.5 -51.5 -14.5c-19.333 0 -37.333 3.33301 -54 10s-37.667 16.334 -63 29.001c-14.667 8 -26.334 13.833 -35.001 17.5s-16.334 5.5 -23.001 5.5c-7.33301 0 -13 -2 -17 -6s-5 -9 -3 -15
c1.33301 -3.33301 2 -8 2 -14c0 -10.667 -3.5 -19.167 -10.5 -25.5s-15.833 -9.5 -26.5 -9.5c-15.333 0 -28.333 6.5 -39 19.5z" />
    <glyph glyph-name="Odieresis" unicode="&#xd6;" horiz-adv-x="759" 
d="M675 168.5c-29.333 -55 -69.833 -98.5 -121.5 -130.5s-109.834 -48 -174.501 -48s-122.834 16 -174.501 48s-92 75.5 -121 130.5s-43.5 115.5 -43.5 181.5s14.5 126.5 43.5 181.5s69.333 98.5 121 130.5s109.834 48 174.501 48s122.834 -16 174.501 -48
s92.167 -75.5 121.5 -130.5s44 -115.5 44 -181.5s-14.667 -126.5 -44 -181.5zM562 471.5c-18 36.333 -43 65.1699 -75 86.5029s-68 32 -108 32c-40.667 0 -76.834 -10.5 -108.501 -31.5s-56.334 -49.833 -74.001 -86.5s-26.5 -77.334 -26.5 -122.001
s8.83301 -85.334 26.5 -122.001s42.334 -65.5 74.001 -86.5s67.834 -31.5 108.501 -31.5c40 0 76 10.667 108 32s57 50.166 75 86.499s27 76.833 27 121.5s-9 85.167 -27 121.5zM233 771.504c-9.33301 7.66699 -14 20.5 -14 38.5v18c0 18.667 5 31.667 15 39
s25.333 11 46 11c22 0 37.833 -3.83301 47.5 -11.5s14.5 -20.5 14.5 -38.5v-18c0 -18.667 -4.83301 -31.667 -14.5 -39s-25.834 -11 -48.501 -11c-21.333 0 -36.666 3.83301 -45.999 11.5zM432 771.504c-9.33301 7.66699 -14.002 20.5 -14.002 38.5v18
c0 18.667 4.83301 31.667 14.5 39s24.834 11 45.501 11c22.667 0 38.834 -3.66699 48.501 -11s14.5 -20.333 14.5 -39v-18c0 -18.667 -4.83301 -31.667 -14.5 -39s-25.834 -11 -48.501 -11c-21.333 0 -36.666 3.83301 -45.999 11.5z" />
    <glyph glyph-name="multiply" unicode="&#xd7;" horiz-adv-x="501" 
d="M433 190c11.333 -11.333 17.001 -24.666 17.001 -39.999c0 -16 -5.66699 -29.167 -17 -39.5s-24 -15.5 -38 -15.5s-27.333 5.66699 -40 17l-105 105l-105 -104c-12 -12 -25.333 -18 -40 -18c-14 0 -26.667 5.66699 -38 17s-17 24.333 -17 39s5.66699 27.667 17 39
l105 105l-105 105c-10.667 11.333 -16 24.666 -16 39.999c0 16 5.5 29.333 16.5 40s23.5 16 37.5 16c14.667 0 28 -6 40 -18l105 -105l105 105c11.333 11.333 24.666 17 39.999 17c16 0 29.333 -5.83301 40 -17.5s16 -24.167 16 -37.5c0 -14.667 -6 -28 -18 -40l-105 -105z
" />
    <glyph glyph-name="Oslash" unicode="&#xd8;" horiz-adv-x="739" 
d="M695.5 486c15.667 -42.667 23.501 -87.999 23.501 -135.999c0 -66 -14.667 -126.5 -44 -181.5s-69.833 -98.5 -121.5 -130.5s-109.834 -48 -174.501 -48c-36 0 -70.5 5.33301 -103.5 16s-63.167 25.667 -90.5 45l-51 -62c-10 -13.333 -23 -20 -39 -20
c-12.667 0 -24.334 5 -35.001 15s-16 21.667 -16 35c0 12 4 23 12 33l57 70c-23.333 31.333 -41.333 66.5 -54 105.5s-19 79.833 -19 122.5c0 66 14.5 126.5 43.5 181.5s69.333 98.5 121 130.5s109.834 48 174.501 48c63.333 0 121 -15.667 173 -47l54 67
c10.667 12.667 23.667 19 39 19c13.333 0 25.166 -4.83301 35.499 -14.5s15.5 -21.167 15.5 -34.5c0 -12 -4 -23 -12 -33l-55 -68c28.667 -32.667 50.834 -70.334 66.501 -113.001zM197.001 226.001l276.002 340.001c-26.667 16 -58 24 -94 24
c-40.667 0 -76.834 -10.5 -108.501 -31.5s-56.334 -49.833 -74.001 -86.5s-26.5 -77.334 -26.5 -122.001s9 -86 27 -124zM487.003 142.002c32 21.333 57 50.167 75 86.5s27 76.833 27 121.5c0 56 -14 105.333 -42 148l-285 -351c35.333 -24.667 74.333 -37 117 -37
c40 0 76 10.667 108 32z" />
    <glyph glyph-name="Ugrave" unicode="&#xd9;" horiz-adv-x="705" 
d="M614 684c10.667 -11.333 15.999 -26 15.999 -44v-362c0 -55.333 -11.667 -104.333 -35 -147s-56 -76 -98 -100s-90 -36 -144 -36s-102.167 12 -144.5 36s-75.166 57.333 -98.499 100s-35 91.667 -35 147v362c0 17.333 6 31.833 18 43.5s27.333 17.5 46 17.5
c16 0 30 -5.83301 42 -17.5s18 -26.167 18 -43.5v-362c0 -32 7 -60.5 21 -85.5s32.833 -44.167 56.5 -57.5s49.167 -20 76.5 -20c28.667 0 55.5 6.66699 80.5 20s45 32.5 60 57.5s22.5 53.5 22.5 85.5v362c0 18 5 32.667 15 44s23.667 17 41 17s31.333 -5.66699 42 -17z
M327.999 748l-99.998 53.001c-12 6.66699 -21.167 14.667 -27.5 24s-9.5 19 -9.5 29c0 14 5.66699 25.667 17 35s23.333 14 36 14c15.333 0 31.666 -7.33301 48.999 -22l86 -76c9.33301 -8.66699 14 -17.667 14 -27c0 -10.667 -3.83301 -19.334 -11.5 -26.001
s-17.834 -10 -30.501 -10c-7.33301 0 -15 2 -23 6z" />
    <glyph glyph-name="Uacute" unicode="&#xda;" horiz-adv-x="705" 
d="M614 684c10.667 -11.333 15.999 -26 15.999 -44v-362c0 -55.333 -11.667 -104.333 -35 -147s-56 -76 -98 -100s-90 -36 -144 -36s-102.167 12 -144.5 36s-75.166 57.333 -98.499 100s-35 91.667 -35 147v362c0 17.333 6 31.833 18 43.5s27.333 17.5 46 17.5
c16 0 30 -5.83301 42 -17.5s18 -26.167 18 -43.5v-362c0 -32 7 -60.5 21 -85.5s32.833 -44.167 56.5 -57.5s49.167 -20 76.5 -20c28.667 0 55.5 6.66699 80.5 20s45 32.5 60 57.5s22.5 53.5 22.5 85.5v362c0 18 5 32.667 15 44s23.667 17 41 17s31.333 -5.66699 42 -17z
M323.499 748c-7.66699 6.66699 -11.4971 15.333 -11.4971 26c0 9.33301 4.66699 18.333 14 27l86 76c17.333 14.667 33.666 22 48.999 22c12.667 0 24.667 -4.66699 36 -14s17 -21 17 -35c0 -10 -3.16699 -19.833 -9.5 -29.5s-15.5 -17.5 -27.5 -23.5l-100 -53
c-6.66699 -4 -14.334 -6 -23.001 -6c-12.667 0 -22.834 3.33301 -30.501 10z" />
    <glyph glyph-name="Ucircumflex" unicode="&#xdb;" horiz-adv-x="705" 
d="M614 684c10.667 -11.333 15.999 -26 15.999 -44v-362c0 -55.333 -11.667 -104.333 -35 -147s-56 -76 -98 -100s-90 -36 -144 -36s-102.167 12 -144.5 36s-75.166 57.333 -98.499 100s-35 91.667 -35 147v362c0 17.333 6 31.833 18 43.5s27.333 17.5 46 17.5
c16 0 30 -5.83301 42 -17.5s18 -26.167 18 -43.5v-362c0 -32 7 -60.5 21 -85.5s32.833 -44.167 56.5 -57.5s49.167 -20 76.5 -20c28.667 0 55.5 6.66699 80.5 20s45 32.5 60 57.5s22.5 53.5 22.5 85.5v362c0 18 5 32.667 15 44s23.667 17 41 17s31.333 -5.66699 42 -17z
M495.999 779c2 -4 2.99902 -8.66699 2.99902 -14c0 -6 -3 -11.667 -9 -17s-13.333 -8 -22 -8c-6 0 -12.667 1.66699 -20 5s-17.666 9 -30.999 17l-65 38l-65 -38c-10.667 -6 -20.334 -11.167 -29.001 -15.5s-16 -6.5 -22 -6.5c-8.66699 0 -16 2.66699 -22 8s-9 11 -9 17
c0 5.33301 1 10 3 14s6 9.33301 12 16l63 72c8.66699 10 17.667 17.333 27 22s20.666 7 33.999 7h16c12.667 0 23.834 -2.33301 33.501 -7s18.834 -12 27.501 -22l63 -72c6 -6.66699 10 -12 12 -16z" />
    <glyph glyph-name="Udieresis" unicode="&#xdc;" horiz-adv-x="705" 
d="M614 684c10.667 -11.333 15.999 -26 15.999 -44v-362c0 -55.333 -11.667 -104.333 -35 -147s-56 -76 -98 -100s-90 -36 -144 -36s-102.167 12 -144.5 36s-75.166 57.333 -98.499 100s-35 91.667 -35 147v362c0 17.333 6 31.833 18 43.5s27.333 17.5 46 17.5
c16 0 30 -5.83301 42 -17.5s18 -26.167 18 -43.5v-362c0 -32 7 -60.5 21 -85.5s32.833 -44.167 56.5 -57.5s49.167 -20 76.5 -20c28.667 0 55.5 6.66699 80.5 20s45 32.5 60 57.5s22.5 53.5 22.5 85.5v362c0 18 5 32.667 15 44s23.667 17 41 17s31.333 -5.66699 42 -17z
M205.999 771.5c-9.33301 7.66699 -14 20.5 -14 38.5v18c0 18.667 5 31.667 15 39s25.333 11 46 11c22 0 37.833 -3.83301 47.5 -11.5s14.5 -20.5 14.5 -38.5v-18c0 -18.667 -4.83301 -31.667 -14.5 -39s-25.834 -11 -48.501 -11c-21.333 0 -36.666 3.83301 -45.999 11.5z
M404.999 771.5c-9.33301 7.66699 -14.002 20.5 -14.002 38.5v18c0 18.667 4.83301 31.667 14.5 39s24.834 11 45.501 11c22.667 0 38.834 -3.66699 48.501 -11s14.5 -20.333 14.5 -39v-18c0 -18.667 -4.83301 -31.667 -14.5 -39s-25.834 -11 -48.501 -11
c-21.333 0 -36.666 3.83301 -45.999 11.5z" />
    <glyph glyph-name="Yacute" unicode="&#xdd;" horiz-adv-x="596" 
d="M570 604l-208.999 -299.001v-244c0 -17.333 -5.66699 -31.833 -17 -43.5s-25 -17.5 -41 -17.5c-16.667 0 -30.834 5.83301 -42.501 17.5s-17.5 26.167 -17.5 43.5v258l-208 276c-12 16 -18 31.667 -18 47c0 17.333 6.83301 31.833 20.5 43.5s28.167 17.5 43.5 17.5
c18.667 0 35 -9.33301 49 -28l176 -243l165 241c14 20 30.667 30 50 30c16 0 30 -6 42 -18s18 -26.667 18 -44c0 -13.333 -3.66699 -25.666 -11 -36.999zM268.501 747.999c-7.66699 6.66699 -11.4971 15.333 -11.4971 26c0 9.33301 4.66699 18.333 14 27l86 76
c17.333 14.667 33.666 22 48.999 22c12.667 0 24.667 -4.66699 36 -14s17 -21 17 -35c0 -10 -3.16699 -19.833 -9.5 -29.5s-15.5 -17.5 -27.5 -23.5l-100 -53c-6.66699 -4 -14.334 -6 -23.001 -6c-12.667 0 -22.834 3.33301 -30.501 10z" />
    <glyph glyph-name="Thorn" unicode="&#xde;" horiz-adv-x="603" 
d="M461 579.5c30.667 -20.333 55.334 -47.667 74.001 -82s28 -71.833 28 -112.5c0 -40 -9.33301 -77.333 -28 -112s-43.334 -62.167 -74.001 -82.5s-63 -30.5 -97 -30.5h-169v-99c0 -17.333 -5.83301 -31.833 -17.5 -43.5s-26.167 -17.5 -43.5 -17.5
s-31.5 5.83301 -42.5 17.5s-16.5 26.167 -16.5 43.5v618c0 17.333 5.83301 31.833 17.5 43.5s26.167 17.5 43.5 17.5s31.5 -5.83301 42.5 -17.5s16.5 -26.167 16.5 -43.5v-69h169c34 0 66.333 -10.167 97 -30.5zM401.5 294.499c12.333 9.66699 22.333 22.5 30 38.5
s11.5 33.333 11.5 52s-3.83301 36 -11.5 52s-17.667 28.833 -30 38.5s-24.833 14.5 -37.5 14.5h-169v-210h169c12.667 0 25.167 4.83301 37.5 14.5z" />
    <glyph glyph-name="germandbls" unicode="&#xdf;" horiz-adv-x="667" 
d="M583 348c32.667 -36 48.9961 -81.665 48.9961 -136.998c0 -42.667 -9 -80.834 -27 -114.501s-42.833 -59.834 -74.5 -78.501s-67.5 -28 -107.5 -28c-34.667 0 -63.667 5.16699 -87 15.5s-41 23.5 -53 39.5c-6 8 -9 18 -9 30c0 17.333 8.66699 32 26 44
c9.33301 6 19 9 29 9c14 0 27.333 -6.33301 40 -19c6.66699 -6.66699 15.334 -12.167 26.001 -16.5s21.667 -6.5 33 -6.5c29.333 0 50.666 10.167 63.999 30.5s20 46.5 20 78.5c0 43.333 -11.333 76.833 -34 100.5s-54 40.5 -94 50.5
c-16.667 4.66699 -28.667 11.167 -36 19.5s-11 19.166 -11 32.499c0 25.333 9.33301 43.333 28 54c27.333 14 48.5 29.167 63.5 45.5s22.5 35.833 22.5 58.5c0 23.333 -9.16699 41 -27.5 53s-43.166 18 -74.499 18c-34 0 -61.167 -10.667 -81.5 -32s-30.5 -51 -30.5 -89
v-445c0 -17.333 -5.66699 -31.833 -17 -43.5s-25.666 -17.5 -42.999 -17.5s-31.666 5.83301 -42.999 17.5s-17 26.167 -17 43.5v319h-26c-17.333 0 -31.833 5.5 -43.5 16.5s-17.5 24.833 -17.5 41.5s5.83301 30.334 17.5 41.001s26.167 16 43.5 16h26v7
c0 72.667 21.333 130 64 172s100.667 63 174 63c44 0 82.333 -7.33301 115 -22s57.5 -35 74.5 -61s25.5 -55 25.5 -87c0 -31.333 -10.167 -58.5 -30.5 -81.5s-46.166 -42.167 -77.499 -57.5c48 -17.333 88.333 -44 121 -80z" />
    <glyph glyph-name="agrave" unicode="&#xe0;" horiz-adv-x="623" 
d="M541 528c11.333 -11.333 17 -25.998 17 -43.998v-423c0 -17.333 -5.66699 -31.833 -17 -43.5s-25.666 -17.5 -42.999 -17.5s-31.5 5.66699 -42.5 17s-16.833 25.666 -17.5 42.999c-16.667 -19.333 -39.167 -35.833 -67.5 -49.5s-58.166 -20.5 -89.499 -20.5
c-46 0 -87.667 11.833 -125 35.5s-66.833 56.5 -88.5 98.5s-32.5 89.667 -32.5 143s10.667 101.166 32 143.499s50.5 75.333 87.5 99s77.833 35.5 122.5 35.5c32 0 62 -5.83301 90 -17.5s51.667 -26.5 71 -44.5v1c0 17.333 5.66699 31.833 17 43.5s25.666 17.5 42.999 17.5
s31.666 -5.66699 42.999 -17zM402 147.502c27.333 31.667 41 71.5 41 119.5s-13.667 88 -41 120s-62.666 48 -105.999 48c-42.667 0 -77.667 -16 -105 -48s-41 -72 -41 -120s13.5 -87.833 40.5 -119.5s62.167 -47.5 105.5 -47.5s78.666 15.833 105.999 47.5zM282 576.002
l-99.998 53.001c-12 6.66699 -21.167 14.667 -27.5 24s-9.5 19 -9.5 29c0 14 5.66699 25.667 17 35s23.333 14 36 14c15.333 0 31.666 -7.33301 48.999 -22l86 -76c9.33301 -8.66699 14 -17.667 14 -27c0 -10.667 -3.83301 -19.334 -11.5 -26.001s-17.834 -10 -30.501 -10
c-7.33301 0 -15 2 -23 6z" />
    <glyph glyph-name="aacute" unicode="&#xe1;" horiz-adv-x="623" 
d="M541 528c11.333 -11.333 17 -25.998 17 -43.998v-423c0 -17.333 -5.66699 -31.833 -17 -43.5s-25.666 -17.5 -42.999 -17.5s-31.5 5.66699 -42.5 17s-16.833 25.666 -17.5 42.999c-16.667 -19.333 -39.167 -35.833 -67.5 -49.5s-58.166 -20.5 -89.499 -20.5
c-46 0 -87.667 11.833 -125 35.5s-66.833 56.5 -88.5 98.5s-32.5 89.667 -32.5 143s10.667 101.166 32 143.499s50.5 75.333 87.5 99s77.833 35.5 122.5 35.5c32 0 62 -5.83301 90 -17.5s51.667 -26.5 71 -44.5v1c0 17.333 5.66699 31.833 17 43.5s25.666 17.5 42.999 17.5
s31.666 -5.66699 42.999 -17zM402 147.502c27.333 31.667 41 71.5 41 119.5s-13.667 88 -41 120s-62.666 48 -105.999 48c-42.667 0 -77.667 -16 -105 -48s-41 -72 -41 -120s13.5 -87.833 40.5 -119.5s62.167 -47.5 105.5 -47.5s78.666 15.833 105.999 47.5zM285.5 578.002
c-7.66699 6 -11.166 13.999 -10.499 23.999c0 6 2 12.333 6 19l58 102c6.66699 12 14.667 21.667 24 29s19.666 11 30.999 11c18 0 31.5 -4.66699 40.5 -14s13.167 -21.333 12.5 -36c-1.33301 -15.333 -7.66602 -29.666 -18.999 -42.999l-76 -84
c-10.667 -11.333 -25.667 -17 -45 -17c-6.66699 0 -13.834 3 -21.501 9z" />
    <glyph glyph-name="acircumflex" unicode="&#xe2;" horiz-adv-x="623" 
d="M541 528c11.333 -11.333 17 -25.998 17 -43.998v-423c0 -17.333 -5.66699 -31.833 -17 -43.5s-25.666 -17.5 -42.999 -17.5s-31.5 5.66699 -42.5 17s-16.833 25.666 -17.5 42.999c-16.667 -19.333 -39.167 -35.833 -67.5 -49.5s-58.166 -20.5 -89.499 -20.5
c-46 0 -87.667 11.833 -125 35.5s-66.833 56.5 -88.5 98.5s-32.5 89.667 -32.5 143s10.667 101.166 32 143.499s50.5 75.333 87.5 99s77.833 35.5 122.5 35.5c32 0 62 -5.83301 90 -17.5s51.667 -26.5 71 -44.5v1c0 17.333 5.66699 31.833 17 43.5s25.666 17.5 42.999 17.5
s31.666 -5.66699 42.999 -17zM402 147.502c27.333 31.667 41 71.5 41 119.5s-13.667 88 -41 120s-62.666 48 -105.999 48c-42.667 0 -77.667 -16 -105 -48s-41 -72 -41 -120s13.5 -87.833 40.5 -119.5s62.167 -47.5 105.5 -47.5s78.666 15.833 105.999 47.5zM434 639.002
c1.33301 -4 2.00586 -9 2.00586 -15c0 -6.66699 -2.83301 -12.5 -8.5 -17.5s-12.834 -7.5 -21.501 -7.5c-10 0 -17.5 1.33301 -22.5 4s-10 6.16699 -15 10.5s-8.83301 7.5 -11.5 9.5l-53 47l-57 -47c-2.66699 -2 -6.83398 -5.5 -12.501 -10.5s-11.167 -8.5 -16.5 -10.5
s-12 -3 -20 -3c-8.66699 0 -15.834 2.5 -21.501 7.5s-8.5 10.833 -8.5 17.5c0 6 0.666992 11 2 15s4.66602 9.33301 9.99902 16l49 62c15.333 19.333 35.666 29 60.999 29h36c13.333 0 23.833 -2 31.5 -6s15.167 -11.667 22.5 -23l44 -62
c5.33301 -6.66699 8.66602 -12 9.99902 -16z" />
    <glyph glyph-name="atilde" unicode="&#xe3;" horiz-adv-x="623" 
d="M541 528c11.333 -11.333 17 -25.998 17 -43.998v-423c0 -17.333 -5.66699 -31.833 -17 -43.5s-25.666 -17.5 -42.999 -17.5s-31.5 5.66699 -42.5 17s-16.833 25.666 -17.5 42.999c-16.667 -19.333 -39.167 -35.833 -67.5 -49.5s-58.166 -20.5 -89.499 -20.5
c-46 0 -87.667 11.833 -125 35.5s-66.833 56.5 -88.5 98.5s-32.5 89.667 -32.5 143s10.667 101.166 32 143.499s50.5 75.333 87.5 99s77.833 35.5 122.5 35.5c32 0 62 -5.83301 90 -17.5s51.667 -26.5 71 -44.5v1c0 17.333 5.66699 31.833 17 43.5s25.666 17.5 42.999 17.5
s31.666 -5.66699 42.999 -17zM402 147.502c27.333 31.667 41 71.5 41 119.5s-13.667 88 -41 120s-62.666 48 -105.999 48c-42.667 0 -77.667 -16 -105 -48s-41 -72 -41 -120s13.5 -87.833 40.5 -119.5s62.167 -47.5 105.5 -47.5s78.666 15.833 105.999 47.5zM129 608.502
c-10.667 12.333 -15.999 28.834 -15.999 49.501c0 23.333 10.667 43.833 32 61.5s51.666 26.5 90.999 26.5c17.333 0 33.166 -3.5 47.499 -10.5s30.833 -16.833 49.5 -29.5c11.333 -8.66699 20.833 -15 28.5 -19s14.834 -6 21.501 -6c7.33301 0 13 2 17 6s5 9 3 15
c-1.33301 3.33301 -2 8 -2 14c0 10.667 3.5 19.167 10.5 25.5s15.833 9.5 26.5 9.5c15.333 0 28.333 -6 39 -18s16 -28 16 -48c0 -12.667 -4 -26 -12 -40s-20.5 -25.833 -37.5 -35.5s-38.5 -14.5 -64.5 -14.5c-13.333 0 -27.333 3.33301 -42 10s-32 16 -52 28
c-16 9.33301 -28.5 16.166 -37.5 20.499s-17.167 6.5 -24.5 6.5s-13 -2 -17 -6s-5 -9 -3 -15c1.33301 -3.33301 2 -8 2 -14c0 -10.667 -3.5 -19.167 -10.5 -25.5s-15.833 -9.5 -26.5 -9.5c-15.333 0 -28.333 6.16699 -39 18.5z" />
    <glyph glyph-name="adieresis" unicode="&#xe4;" horiz-adv-x="623" 
d="M541 528c11.333 -11.333 17 -25.998 17 -43.998v-423c0 -17.333 -5.66699 -31.833 -17 -43.5s-25.666 -17.5 -42.999 -17.5s-31.5 5.66699 -42.5 17s-16.833 25.666 -17.5 42.999c-16.667 -19.333 -39.167 -35.833 -67.5 -49.5s-58.166 -20.5 -89.499 -20.5
c-46 0 -87.667 11.833 -125 35.5s-66.833 56.5 -88.5 98.5s-32.5 89.667 -32.5 143s10.667 101.166 32 143.499s50.5 75.333 87.5 99s77.833 35.5 122.5 35.5c32 0 62 -5.83301 90 -17.5s51.667 -26.5 71 -44.5v1c0 17.333 5.66699 31.833 17 43.5s25.666 17.5 42.999 17.5
s31.666 -5.66699 42.999 -17zM402 147.502c27.333 31.667 41 71.5 41 119.5s-13.667 88 -41 120s-62.666 48 -105.999 48c-42.667 0 -77.667 -16 -105 -48s-41 -72 -41 -120s13.5 -87.833 40.5 -119.5s62.167 -47.5 105.5 -47.5s78.666 15.833 105.999 47.5zM155 611.502
c-9.33301 7.66699 -14 20.5 -14 38.5v18c0 18 4.83301 30.833 14.5 38.5s24.5 11.5 44.5 11.5c24 0 40.667 -3.66699 50 -11s14 -20.333 14 -39v-18c0 -19.333 -4.83301 -32.5 -14.5 -39.5s-26.167 -10.5 -49.5 -10.5c-20.667 0 -35.667 3.83301 -45 11.5zM354 611.502
c-9.33301 7.66699 -14 20.5 -14 38.5v18c0 18.667 5 31.667 15 39s25.333 11 46 11c22 0 37.833 -3.83301 47.5 -11.5s14.5 -20.5 14.5 -38.5v-18c0 -19.333 -4.83301 -32.5 -14.5 -39.5s-26.167 -10.5 -49.5 -10.5c-20.667 0 -35.667 3.83301 -45 11.5z" />
    <glyph glyph-name="aring" unicode="&#xe5;" horiz-adv-x="623" 
d="M541 528c11.333 -11.333 17 -25.998 17 -43.998v-423c0 -17.333 -5.66699 -31.833 -17 -43.5s-25.666 -17.5 -42.999 -17.5s-31.5 5.66699 -42.5 17s-16.833 25.666 -17.5 42.999c-16.667 -19.333 -39.167 -35.833 -67.5 -49.5s-58.166 -20.5 -89.499 -20.5
c-46 0 -87.667 11.833 -125 35.5s-66.833 56.5 -88.5 98.5s-32.5 89.667 -32.5 143s10.667 101.166 32 143.499s50.5 75.333 87.5 99s77.833 35.5 122.5 35.5c32 0 62 -5.83301 90 -17.5s51.667 -26.5 71 -44.5v1c0 17.333 5.66699 31.833 17 43.5s25.666 17.5 42.999 17.5
s31.666 -5.66699 42.999 -17zM402 147.502c27.333 31.667 41 71.5 41 119.5s-13.667 88 -41 120s-62.666 48 -105.999 48c-42.667 0 -77.667 -16 -105 -48s-41 -72 -41 -120s13.5 -87.833 40.5 -119.5s62.167 -47.5 105.5 -47.5s78.666 15.833 105.999 47.5zM248 585.002
c-17.333 10 -31.335 23.333 -42.002 40s-16 34.667 -16 54c0 30.667 11.333 56.834 34 78.501s49.334 32.5 80.001 32.5s57.334 -10.833 80.001 -32.5s34 -47.834 34 -78.501c0 -19.333 -5.33301 -37.333 -16 -54s-24.667 -30 -42 -40s-36 -15 -56 -15s-38.667 5 -56 15z
M335.498 651.002c8.33301 7.33301 12.5 16.666 12.5 27.999c0 13.333 -4.33301 23.5 -13 30.5s-19 10.5 -31 10.5c-12.667 0 -23.167 -3.66699 -31.5 -11s-12.5 -17.333 -12.5 -30c0 -11.333 4.16699 -20.666 12.5 -27.999s18.833 -11 31.5 -11s23.167 3.66699 31.5 11z" />
    <glyph glyph-name="ae" unicode="&#xe6;" horiz-adv-x="916" 
d="M862 241c-12 -10 -25.998 -15.002 -41.998 -15.002h-330c8 -39.333 26.333 -70.166 55 -92.499s61 -33.5 97 -33.5c27.333 0 48.666 2.5 63.999 7.5s27.5 10.333 36.5 16l18.5 11.5c12 6 23.333 9 34 9c14 0 26 -5 36 -15s15 -21.667 15 -35
c0 -18 -9.33301 -34.333 -28 -49c-18.667 -15.333 -43.667 -28.333 -75 -39s-63 -16 -95 -16c-47.333 0 -89.833 8.5 -127.5 25.5s-68.834 41.167 -93.501 72.5c-20.667 -25.333 -48.5 -48 -83.5 -68s-73.5 -30 -115.5 -30c-32 0 -62.5 6 -91.5 18s-52.667 30.333 -71 55
s-27.5 55 -27.5 91c0 114.667 71.667 172 215 172h118v25c0 56 -35.667 84 -107 84c-32 0 -57.333 -5.5 -76 -16.5s-37.667 -27.833 -57 -50.5c-12.667 -14 -27.667 -21 -45 -21c-13.333 0 -25.166 4.5 -35.499 13.5s-15.5 20.5 -15.5 34.5c0 15.333 4.66699 29 14 41
c58.667 72.667 131.334 109 218.001 109c38.667 0 75.167 -5.5 109.5 -16.5s61.166 -28.5 80.499 -52.5c23.333 22.667 49.666 39.834 78.999 51.501s60 17.5 92 17.5c44 0 85.5 -12 124.5 -36s70.167 -56.333 93.5 -97s35 -84.667 35 -132c-0.666992 -16 -7 -29 -19 -39z
M491.002 325.998h262.001v7c-2.66699 28 -16.334 52 -41.001 72s-52.667 30 -84 30c-77.333 0 -123 -36.333 -137 -109zM373.003 225.998l-131.999 -0.000976562c-32 0 -53.833 -6.66699 -65.5 -20s-17.5 -30 -17.5 -50c0 -19.333 7.16699 -33.833 21.5 -43.5
s31.833 -14.5 52.5 -14.5c39.333 0 71.166 8 95.499 24s42.5 35 54.5 57c-4 14.667 -7 30.334 -9 47.001z" />
    <glyph glyph-name="ccedilla" unicode="&#xe7;" horiz-adv-x="515" 
d="M443.5 22c-33 -17.333 -72.835 -27.667 -119.502 -31l-41 -110c-8 -21.333 -21.667 -32 -41 -32c-12.667 0 -26.667 4.33301 -42 13s-23 19.667 -23 33c0 10 4 20 12 30l52 70c-63.333 11.333 -113.5 41.833 -150.5 91.5s-55.5 109.834 -55.5 180.501
c0 54 11.167 102 33.5 144s53.5 74.833 93.5 98.5s85.333 35.5 136 35.5c56.667 0 102.334 -8.83301 137.001 -26.5s52 -41.167 52 -70.5c0 -14.667 -4.33301 -27.5 -13 -38.5s-20 -16.5 -34 -16.5c-10.667 0 -19.334 1.5 -26.001 4.5s-13.167 7 -19.5 12
s-12.5 9.16699 -18.5 12.5c-6.66699 3.33301 -16.5 6.33301 -29.5 9s-23.5 4 -31.5 4c-50 0 -89.167 -15.5 -117.5 -46.5s-42.5 -71.5 -42.5 -121.5c0 -48 14.333 -87.833 43 -119.5s65.334 -47.5 110.001 -47.5c32.667 0 57 4 73 12c4 2 9.5 5.5 16.5 10.5
s13.5 8.83301 19.5 11.5s13.333 4 22 4c16.667 0 29.834 -5.33301 39.501 -16s14.5 -24.334 14.5 -41.001c0 -22 -16.5 -41.667 -49.5 -59z" />
    <glyph glyph-name="egrave" unicode="&#xe8;" horiz-adv-x="580" 
d="M526 241c-12 -10 -25.998 -15 -41.998 -15h-330c8 -39.333 26.333 -70.166 55 -92.499s61 -33.5 97 -33.5c27.333 0 48.666 2.5 63.999 7.5s27.5 10.333 36.5 16l18.5 11.5c12 6 23.333 9 34 9c14 0 26 -5 36 -15s15 -21.667 15 -35c0 -18 -9.33301 -34.333 -28 -49
c-18.667 -15.333 -43.667 -28.333 -75 -39s-63 -16 -95 -16c-56 0 -104.833 11.667 -146.5 35s-73.834 55.5 -96.501 96.5s-34 87.167 -34 138.5c0 57.333 12 107.666 36 150.999s55.667 76.5 95 99.5s81.333 34.5 126 34.5c44 0 85.5 -12 124.5 -36
s70.167 -56.333 93.5 -97s35 -84.667 35 -132c-0.666992 -16 -7 -29 -19 -39zM155.002 326h262.001v7c-2.66699 28 -16.334 52 -41.001 72s-52.667 30 -84 30c-77.333 0 -123 -36.333 -137 -109zM268.003 576l-99.998 53.001c-12 6.66699 -21.167 14.667 -27.5 24
s-9.5 19 -9.5 29c0 14 5.66699 25.667 17 35s23.333 14 36 14c15.333 0 31.666 -7.33301 48.999 -22l86 -76c9.33301 -8.66699 14 -17.667 14 -27c0 -10.667 -3.83301 -19.334 -11.5 -26.001s-17.834 -10 -30.501 -10c-7.33301 0 -15 2 -23 6z" />
    <glyph glyph-name="eacute" unicode="&#xe9;" horiz-adv-x="580" 
d="M526 241c-12 -10 -25.998 -15 -41.998 -15h-330c8 -39.333 26.333 -70.166 55 -92.499s61 -33.5 97 -33.5c27.333 0 48.666 2.5 63.999 7.5s27.5 10.333 36.5 16l18.5 11.5c12 6 23.333 9 34 9c14 0 26 -5 36 -15s15 -21.667 15 -35c0 -18 -9.33301 -34.333 -28 -49
c-18.667 -15.333 -43.667 -28.333 -75 -39s-63 -16 -95 -16c-56 0 -104.833 11.667 -146.5 35s-73.834 55.5 -96.501 96.5s-34 87.167 -34 138.5c0 57.333 12 107.666 36 150.999s55.667 76.5 95 99.5s81.333 34.5 126 34.5c44 0 85.5 -12 124.5 -36
s70.167 -56.333 93.5 -97s35 -84.667 35 -132c-0.666992 -16 -7 -29 -19 -39zM155.002 326h262.001v7c-2.66699 28 -16.334 52 -41.001 72s-52.667 30 -84 30c-77.333 0 -123 -36.333 -137 -109zM271.503 578c-7.66699 6 -11.166 13.999 -10.499 23.999c0 6 2 12.333 6 19
l58 102c6.66699 12 14.667 21.667 24 29s19.666 11 30.999 11c18 0 31.5 -4.66699 40.5 -14s13.167 -21.333 12.5 -36c-1.33301 -15.333 -7.66602 -29.666 -18.999 -42.999l-76 -84c-10.667 -11.333 -25.667 -17 -45 -17c-6.66699 0 -13.834 3 -21.501 9z" />
    <glyph glyph-name="ecircumflex" unicode="&#xea;" horiz-adv-x="580" 
d="M526 241c-12 -10 -25.998 -15 -41.998 -15h-330c8 -39.333 26.333 -70.166 55 -92.499s61 -33.5 97 -33.5c27.333 0 48.666 2.5 63.999 7.5s27.5 10.333 36.5 16l18.5 11.5c12 6 23.333 9 34 9c14 0 26 -5 36 -15s15 -21.667 15 -35c0 -18 -9.33301 -34.333 -28 -49
c-18.667 -15.333 -43.667 -28.333 -75 -39s-63 -16 -95 -16c-56 0 -104.833 11.667 -146.5 35s-73.834 55.5 -96.501 96.5s-34 87.167 -34 138.5c0 57.333 12 107.666 36 150.999s55.667 76.5 95 99.5s81.333 34.5 126 34.5c44 0 85.5 -12 124.5 -36
s70.167 -56.333 93.5 -97s35 -84.667 35 -132c-0.666992 -16 -7 -29 -19 -39zM155.002 326h262.001v7c-2.66699 28 -16.334 52 -41.001 72s-52.667 30 -84 30c-77.333 0 -123 -36.333 -137 -109zM420.003 639c1.33301 -4 2.00586 -9 2.00586 -15
c0 -6.66699 -2.83301 -12.5 -8.5 -17.5s-12.834 -7.5 -21.501 -7.5c-10 0 -17.5 1.33301 -22.5 4s-10 6.16699 -15 10.5s-8.83301 7.5 -11.5 9.5l-53 47l-57 -47c-2.66699 -2 -6.83398 -5.5 -12.501 -10.5s-11.167 -8.5 -16.5 -10.5s-12 -3 -20 -3
c-8.66699 0 -15.834 2.5 -21.501 7.5s-8.5 10.833 -8.5 17.5c0 6 0.666992 11 2 15s4.66602 9.33301 9.99902 16l49 62c15.333 19.333 35.666 29 60.999 29h36c13.333 0 23.833 -2 31.5 -6s15.167 -11.667 22.5 -23l44 -62c5.33301 -6.66699 8.66602 -12 9.99902 -16z" />
    <glyph glyph-name="edieresis" unicode="&#xeb;" horiz-adv-x="580" 
d="M526 241c-12 -10 -25.998 -15 -41.998 -15h-330c8 -39.333 26.333 -70.166 55 -92.499s61 -33.5 97 -33.5c27.333 0 48.666 2.5 63.999 7.5s27.5 10.333 36.5 16l18.5 11.5c12 6 23.333 9 34 9c14 0 26 -5 36 -15s15 -21.667 15 -35c0 -18 -9.33301 -34.333 -28 -49
c-18.667 -15.333 -43.667 -28.333 -75 -39s-63 -16 -95 -16c-56 0 -104.833 11.667 -146.5 35s-73.834 55.5 -96.501 96.5s-34 87.167 -34 138.5c0 57.333 12 107.666 36 150.999s55.667 76.5 95 99.5s81.333 34.5 126 34.5c44 0 85.5 -12 124.5 -36
s70.167 -56.333 93.5 -97s35 -84.667 35 -132c-0.666992 -16 -7 -29 -19 -39zM155.002 326h262.001v7c-2.66699 28 -16.334 52 -41.001 72s-52.667 30 -84 30c-77.333 0 -123 -36.333 -137 -109zM141.003 611.5c-9.33301 7.66699 -14 20.5 -14 38.5v18
c0 18 4.83301 30.833 14.5 38.5s24.5 11.5 44.5 11.5c24 0 40.667 -3.66699 50 -11s14 -20.333 14 -39v-18c0 -19.333 -4.83301 -32.5 -14.5 -39.5s-26.167 -10.5 -49.5 -10.5c-20.667 0 -35.667 3.83301 -45 11.5zM340.003 611.5c-9.33301 7.66699 -14 20.5 -14 38.5v18
c0 18.667 5 31.667 15 39s25.333 11 46 11c22 0 37.833 -3.83301 47.5 -11.5s14.5 -20.5 14.5 -38.5v-18c0 -19.333 -4.83301 -32.5 -14.5 -39.5s-26.167 -10.5 -49.5 -10.5c-20.667 0 -35.667 3.83301 -45 11.5z" />
    <glyph glyph-name="igrave" unicode="&#xec;" horiz-adv-x="236" 
d="M161 17.5c-11.333 -11.667 -25.666 -17.5 -42.999 -17.5s-31.666 5.83301 -42.999 17.5s-17 26.167 -17 43.5v413c0 17.333 5.66699 31.833 17 43.5s25.666 17.5 42.999 17.5s31.666 -5.83301 42.999 -17.5s17 -26.167 17 -43.5v-413
c0 -17.333 -5.66699 -31.833 -17 -43.5zM98 576l-99.998 53.001c-12 6.66699 -21.167 14.667 -27.5 24s-9.5 19 -9.5 29c0 14 5.66699 25.667 17 35s23.333 14 36 14c15.333 0 31.666 -7.33301 48.999 -22l86 -76c9.33301 -8.66699 14 -17.667 14 -27
c0 -10.667 -3.83301 -19.334 -11.5 -26.001s-17.834 -10 -30.501 -10c-7.33301 0 -15 2 -23 6z" />
    <glyph glyph-name="iacute" unicode="&#xed;" horiz-adv-x="236" 
d="M161 17.5c-11.333 -11.667 -25.666 -17.5 -42.999 -17.5s-31.666 5.83301 -42.999 17.5s-17 26.167 -17 43.5v413c0 17.333 5.66699 31.833 17 43.5s25.666 17.5 42.999 17.5s31.666 -5.83301 42.999 -17.5s17 -26.167 17 -43.5v-413
c0 -17.333 -5.66699 -31.833 -17 -43.5zM101.5 578c-7.66699 6 -11.166 13.999 -10.499 23.999c0 6 2 12.333 6 19l58 102c6.66699 12 14.667 21.667 24 29s19.666 11 30.999 11c18 0 31.5 -4.66699 40.5 -14s13.167 -21.333 12.5 -36
c-1.33301 -15.333 -7.66602 -29.666 -18.999 -42.999l-76 -84c-10.667 -11.333 -25.667 -17 -45 -17c-6.66699 0 -13.834 3 -21.501 9z" />
    <glyph glyph-name="icircumflex" unicode="&#xee;" horiz-adv-x="236" 
d="M161 17.5c-11.333 -11.667 -25.666 -17.5 -42.999 -17.5s-31.666 5.83301 -42.999 17.5s-17 26.167 -17 43.5v413c0 17.333 5.66699 31.833 17 43.5s25.666 17.5 42.999 17.5s31.666 -5.83301 42.999 -17.5s17 -26.167 17 -43.5v-413
c0 -17.333 -5.66699 -31.833 -17 -43.5zM250 639c1.33301 -4 2.00586 -9 2.00586 -15c0 -6.66699 -2.83301 -12.5 -8.5 -17.5s-12.834 -7.5 -21.501 -7.5c-10 0 -17.5 1.33301 -22.5 4s-10 6.16699 -15 10.5s-8.83301 7.5 -11.5 9.5l-53 47l-57 -47
c-2.66699 -2 -6.83398 -5.5 -12.501 -10.5s-11.167 -8.5 -16.5 -10.5s-12 -3 -20 -3c-8.66699 0 -15.834 2.5 -21.501 7.5s-8.5 10.833 -8.5 17.5c0 6 0.666992 11 2 15s4.66602 9.33301 9.99902 16l49 62c15.333 19.333 35.666 29 60.999 29h36c13.333 0 23.833 -2 31.5 -6
s15.167 -11.667 22.5 -23l44 -62c5.33301 -6.66699 8.66602 -12 9.99902 -16z" />
    <glyph glyph-name="idieresis" unicode="&#xef;" horiz-adv-x="236" 
d="M161 17.5c-11.333 -11.667 -25.666 -17.5 -42.999 -17.5s-31.666 5.83301 -42.999 17.5s-17 26.167 -17 43.5v413c0 17.333 5.66699 31.833 17 43.5s25.666 17.5 42.999 17.5s31.666 -5.83301 42.999 -17.5s17 -26.167 17 -43.5v-413
c0 -17.333 -5.66699 -31.833 -17 -43.5zM-29 611.5c-9.33301 7.66699 -14 20.5 -14 38.5v18c0 18 4.83301 30.833 14.5 38.5s24.5 11.5 44.5 11.5c24 0 40.667 -3.66699 50 -11s14 -20.333 14 -39v-18c0 -19.333 -4.83301 -32.5 -14.5 -39.5s-26.167 -10.5 -49.5 -10.5
c-20.667 0 -35.667 3.83301 -45 11.5zM170 611.5c-9.33301 7.66699 -14 20.5 -14 38.5v18c0 18.667 5 31.667 15 39s25.333 11 46 11c22 0 37.833 -3.83301 47.5 -11.5s14.5 -20.5 14.5 -38.5v-18c0 -19.333 -4.83301 -32.5 -14.5 -39.5s-26.167 -10.5 -49.5 -10.5
c-20.667 0 -35.667 3.83301 -45 11.5z" />
    <glyph glyph-name="eth" unicode="&#xf0;" horiz-adv-x="576" 
d="M519 449.5c14.667 -53 21.999 -109.5 21.999 -169.5c0 -59.333 -11.167 -111 -33.5 -155s-52.666 -77.5 -90.999 -100.5s-81.166 -34.5 -128.499 -34.5c-46.667 0 -89.334 12 -128.001 36s-69.167 56.833 -91.5 98.5s-33.5 87.5 -33.5 137.5
c0 49.333 11.5 94.833 34.5 136.5s52.833 74.667 89.5 99s74.334 36.5 113.001 36.5c42.667 0 79.667 -12 111 -36c-9.33301 24.667 -23.333 45.667 -42 63l-165 -33c-8 -1.33301 -14.333 -2 -19 -2c-12.667 0 -22.834 3.33301 -30.501 10s-11.5 17 -11.5 31
c0 20.667 13.667 33.667 41 39l68 14l-3 1c-16 4 -28.833 11.5 -38.5 22.5s-14.5 23.833 -14.5 38.5s4.5 28 13.5 40s21.833 18 38.5 18c10 0 20.333 -1.33301 31 -4c53.333 -16 99.333 -40.667 138 -74l59 9c3.33301 0.666992 8.33301 1 15 1c25.333 0 40.333 -10 45 -30
c0.666992 -2 1 -5.33301 1 -10c0 -21.333 -13.667 -34.333 -41 -39l-15 -2c29.333 -41.333 51.333 -88.5 66 -141.5zM355.499 130c20.333 13.333 36.333 31.5 48 54.5s17.5 48.833 17.5 77.5s-5.83301 54.5 -17.5 77.5s-27.667 41.167 -48 54.5s-42.833 20 -67.5 20
s-47.167 -6.66699 -67.5 -20s-36.333 -31.5 -48 -54.5s-17.5 -48.833 -17.5 -77.5s5.83301 -54.5 17.5 -77.5s27.667 -41.167 48 -54.5s42.833 -20 67.5 -20s47.167 6.66699 67.5 20z" />
    <glyph glyph-name="ntilde" unicode="&#xf1;" horiz-adv-x="596" 
d="M492 484.5c26 -40.333 38.9971 -96.167 38.9971 -167.5v-256c0 -17.333 -5.66699 -31.833 -17 -43.5s-25.666 -17.5 -42.999 -17.5s-31.666 5.83301 -42.999 17.5s-17 26.167 -17 43.5v256c0 36.667 -7.66699 65.5 -23 86.5s-41.666 31.5 -78.999 31.5
c-38.667 0 -69 -11.167 -91 -33.5s-33 -50.5 -33 -84.5v-256c0 -17.333 -5.66699 -31.833 -17 -43.5s-25.666 -17.5 -42.999 -17.5s-31.666 5.83301 -42.999 17.5s-17 26.167 -17 43.5v413c0 17.333 5.66699 31.833 17 43.5s25.666 17.5 42.999 17.5
s31.666 -5.83301 42.999 -17.5s17 -26.167 17 -43.5v-17c18 24 41.5 44.667 70.5 62s60.833 26 95.5 26c68 0 115 -20.167 141 -60.5zM124.997 608.499c-10.667 12.333 -15.999 28.834 -15.999 49.501c0 23.333 10.667 43.833 32 61.5s51.666 26.5 90.999 26.5
c17.333 0 33.166 -3.5 47.499 -10.5s30.833 -16.833 49.5 -29.5c11.333 -8.66699 20.833 -15 28.5 -19s14.834 -6 21.501 -6c7.33301 0 13 2 17 6s5 9 3 15c-1.33301 3.33301 -2 8 -2 14c0 10.667 3.5 19.167 10.5 25.5s15.833 9.5 26.5 9.5c15.333 0 28.333 -6 39 -18
s16 -28 16 -48c0 -12.667 -4 -26 -12 -40s-20.5 -25.833 -37.5 -35.5s-38.5 -14.5 -64.5 -14.5c-13.333 0 -27.333 3.33301 -42 10s-32 16 -52 28c-16 9.33301 -28.5 16.166 -37.5 20.499s-17.167 6.5 -24.5 6.5s-13 -2 -17 -6s-5 -9 -3 -15c1.33301 -3.33301 2 -8 2 -14
c0 -10.667 -3.5 -19.167 -10.5 -25.5s-15.833 -9.5 -26.5 -9.5c-15.333 0 -28.333 6.16699 -39 18.5z" />
    <glyph glyph-name="ograve" unicode="&#xf2;" horiz-adv-x="614" 
d="M543 123.5c-24 -42.333 -56.833 -75.166 -98.5 -98.499s-87.5 -35 -137.5 -35c-50.667 0 -96.667 11.667 -138 35s-74 56.166 -98 98.499s-36 90.166 -36 143.499s12 101.166 36 143.499s56.667 75.333 98 99s87.333 35.5 138 35.5c50 0 95.833 -11.833 137.5 -35.5
s74.5 -56.667 98.5 -99s36 -90.166 36 -143.499s-12 -101.166 -36 -143.499zM438.5 354.5c-13.667 25.667 -32 45.5 -55 59.5s-48.5 21 -76.5 21s-53.5 -7 -76.5 -21s-41.333 -33.833 -55 -59.5s-20.5 -54.834 -20.5 -87.501s6.83301 -61.667 20.5 -87s32 -45 55 -59
s48.5 -21 76.5 -21s53.5 7 76.5 21s41.333 33.667 55 59s20.5 54.333 20.5 87s-6.83301 61.834 -20.5 87.501zM287 576l-99.998 53.001c-12 6.66699 -21.167 14.667 -27.5 24s-9.5 19 -9.5 29c0 14 5.66699 25.667 17 35s23.333 14 36 14
c15.333 0 31.666 -7.33301 48.999 -22l86 -76c9.33301 -8.66699 14 -17.667 14 -27c0 -10.667 -3.83301 -19.334 -11.5 -26.001s-17.834 -10 -30.501 -10c-7.33301 0 -15 2 -23 6z" />
    <glyph glyph-name="oacute" unicode="&#xf3;" horiz-adv-x="614" 
d="M543 123.5c-24 -42.333 -56.833 -75.166 -98.5 -98.499s-87.5 -35 -137.5 -35c-50.667 0 -96.667 11.667 -138 35s-74 56.166 -98 98.499s-36 90.166 -36 143.499s12 101.166 36 143.499s56.667 75.333 98 99s87.333 35.5 138 35.5c50 0 95.833 -11.833 137.5 -35.5
s74.5 -56.667 98.5 -99s36 -90.166 36 -143.499s-12 -101.166 -36 -143.499zM438.5 354.5c-13.667 25.667 -32 45.5 -55 59.5s-48.5 21 -76.5 21s-53.5 -7 -76.5 -21s-41.333 -33.833 -55 -59.5s-20.5 -54.834 -20.5 -87.501s6.83301 -61.667 20.5 -87s32 -45 55 -59
s48.5 -21 76.5 -21s53.5 7 76.5 21s41.333 33.667 55 59s20.5 54.333 20.5 87s-6.83301 61.834 -20.5 87.501zM290.5 578c-7.66699 6 -11.166 13.999 -10.499 23.999c0 6 2 12.333 6 19l58 102c6.66699 12 14.667 21.667 24 29s19.666 11 30.999 11
c18 0 31.5 -4.66699 40.5 -14s13.167 -21.333 12.5 -36c-1.33301 -15.333 -7.66602 -29.666 -18.999 -42.999l-76 -84c-10.667 -11.333 -25.667 -17 -45 -17c-6.66699 0 -13.834 3 -21.501 9z" />
    <glyph glyph-name="ocircumflex" unicode="&#xf4;" horiz-adv-x="614" 
d="M543 123.5c-24 -42.333 -56.833 -75.166 -98.5 -98.499s-87.5 -35 -137.5 -35c-50.667 0 -96.667 11.667 -138 35s-74 56.166 -98 98.499s-36 90.166 -36 143.499s12 101.166 36 143.499s56.667 75.333 98 99s87.333 35.5 138 35.5c50 0 95.833 -11.833 137.5 -35.5
s74.5 -56.667 98.5 -99s36 -90.166 36 -143.499s-12 -101.166 -36 -143.499zM438.5 354.5c-13.667 25.667 -32 45.5 -55 59.5s-48.5 21 -76.5 21s-53.5 -7 -76.5 -21s-41.333 -33.833 -55 -59.5s-20.5 -54.834 -20.5 -87.501s6.83301 -61.667 20.5 -87s32 -45 55 -59
s48.5 -21 76.5 -21s53.5 7 76.5 21s41.333 33.667 55 59s20.5 54.333 20.5 87s-6.83301 61.834 -20.5 87.501zM439 639c1.33301 -4 2.00586 -9 2.00586 -15c0 -6.66699 -2.83301 -12.5 -8.5 -17.5s-12.834 -7.5 -21.501 -7.5c-10 0 -17.5 1.33301 -22.5 4
s-10 6.16699 -15 10.5s-8.83301 7.5 -11.5 9.5l-53 47l-57 -47c-2.66699 -2 -6.83398 -5.5 -12.501 -10.5s-11.167 -8.5 -16.5 -10.5s-12 -3 -20 -3c-8.66699 0 -15.834 2.5 -21.501 7.5s-8.5 10.833 -8.5 17.5c0 6 0.666992 11 2 15s4.66602 9.33301 9.99902 16l49 62
c15.333 19.333 35.666 29 60.999 29h36c13.333 0 23.833 -2 31.5 -6s15.167 -11.667 22.5 -23l44 -62c5.33301 -6.66699 8.66602 -12 9.99902 -16z" />
    <glyph glyph-name="otilde" unicode="&#xf5;" horiz-adv-x="614" 
d="M543 123.5c-24 -42.333 -56.833 -75.166 -98.5 -98.499s-87.5 -35 -137.5 -35c-50.667 0 -96.667 11.667 -138 35s-74 56.166 -98 98.499s-36 90.166 -36 143.499s12 101.166 36 143.499s56.667 75.333 98 99s87.333 35.5 138 35.5c50 0 95.833 -11.833 137.5 -35.5
s74.5 -56.667 98.5 -99s36 -90.166 36 -143.499s-12 -101.166 -36 -143.499zM438.5 354.5c-13.667 25.667 -32 45.5 -55 59.5s-48.5 21 -76.5 21s-53.5 -7 -76.5 -21s-41.333 -33.833 -55 -59.5s-20.5 -54.834 -20.5 -87.501s6.83301 -61.667 20.5 -87s32 -45 55 -59
s48.5 -21 76.5 -21s53.5 7 76.5 21s41.333 33.667 55 59s20.5 54.333 20.5 87s-6.83301 61.834 -20.5 87.501zM134 608.5c-10.667 12.333 -15.999 28.834 -15.999 49.501c0 23.333 10.667 43.833 32 61.5s51.666 26.5 90.999 26.5c17.333 0 33.166 -3.5 47.499 -10.5
s30.833 -16.833 49.5 -29.5c11.333 -8.66699 20.833 -15 28.5 -19s14.834 -6 21.501 -6c7.33301 0 13 2 17 6s5 9 3 15c-1.33301 3.33301 -2 8 -2 14c0 10.667 3.5 19.167 10.5 25.5s15.833 9.5 26.5 9.5c15.333 0 28.333 -6 39 -18s16 -28 16 -48c0 -12.667 -4 -26 -12 -40
s-20.5 -25.833 -37.5 -35.5s-38.5 -14.5 -64.5 -14.5c-13.333 0 -27.333 3.33301 -42 10s-32 16 -52 28c-16 9.33301 -28.5 16.166 -37.5 20.499s-17.167 6.5 -24.5 6.5s-13 -2 -17 -6s-5 -9 -3 -15c1.33301 -3.33301 2 -8 2 -14c0 -10.667 -3.5 -19.167 -10.5 -25.5
s-15.833 -9.5 -26.5 -9.5c-15.333 0 -28.333 6.16699 -39 18.5z" />
    <glyph glyph-name="odieresis" unicode="&#xf6;" horiz-adv-x="614" 
d="M543 123.5c-24 -42.333 -56.833 -75.166 -98.5 -98.499s-87.5 -35 -137.5 -35c-50.667 0 -96.667 11.667 -138 35s-74 56.166 -98 98.499s-36 90.166 -36 143.499s12 101.166 36 143.499s56.667 75.333 98 99s87.333 35.5 138 35.5c50 0 95.833 -11.833 137.5 -35.5
s74.5 -56.667 98.5 -99s36 -90.166 36 -143.499s-12 -101.166 -36 -143.499zM438.5 354.5c-13.667 25.667 -32 45.5 -55 59.5s-48.5 21 -76.5 21s-53.5 -7 -76.5 -21s-41.333 -33.833 -55 -59.5s-20.5 -54.834 -20.5 -87.501s6.83301 -61.667 20.5 -87s32 -45 55 -59
s48.5 -21 76.5 -21s53.5 7 76.5 21s41.333 33.667 55 59s20.5 54.333 20.5 87s-6.83301 61.834 -20.5 87.501zM160 611.5c-9.33301 7.66699 -14 20.5 -14 38.5v18c0 18 4.83301 30.833 14.5 38.5s24.5 11.5 44.5 11.5c24 0 40.667 -3.66699 50 -11s14 -20.333 14 -39v-18
c0 -19.333 -4.83301 -32.5 -14.5 -39.5s-26.167 -10.5 -49.5 -10.5c-20.667 0 -35.667 3.83301 -45 11.5zM359 611.5c-9.33301 7.66699 -14 20.5 -14 38.5v18c0 18.667 5 31.667 15 39s25.333 11 46 11c22 0 37.833 -3.83301 47.5 -11.5s14.5 -20.5 14.5 -38.5v-18
c0 -19.333 -4.83301 -32.5 -14.5 -39.5s-26.167 -10.5 -49.5 -10.5c-20.667 0 -35.667 3.83301 -45 11.5z" />
    <glyph glyph-name="divide" unicode="&#xf7;" horiz-adv-x="619" 
d="M248 520c15.333 15.333 33.666 23 54.999 23s39.5 -7.66699 54.5 -23s22.5 -33.666 22.5 -54.999c0 -20.667 -7.5 -38.667 -22.5 -54s-33.167 -23 -54.5 -23s-39.666 7.5 -54.999 22.5s-23 33.167 -23 54.5s7.66699 39.666 23 54.999zM67 246.5
c-11.333 11 -17 24.167 -17 39.5s5.66699 28.166 17 38.499s25.333 15.5 42 15.5h401c16.667 0 30.667 -5.16699 42 -15.5s17 -23.166 17 -38.499s-5.66699 -28.5 -17 -39.5s-25.333 -16.5 -42 -16.5h-401c-16.667 0 -30.667 5.5 -42 16.5zM248 157
c15.333 15.333 33.666 23 54.999 23s39.5 -7.66699 54.5 -23s22.5 -33.666 22.5 -54.999c0 -20.667 -7.5 -38.667 -22.5 -54s-33.167 -23 -54.5 -23s-39.666 7.5 -54.999 22.5s-23 33.167 -23 54.5s7.66699 39.666 23 54.999z" />
    <glyph glyph-name="oslash" unicode="&#xf8;" horiz-adv-x="614" 
d="M579 267c0 -53.333 -11.999 -101.166 -35.999 -143.499s-56.833 -75.166 -98.5 -98.499s-87.5 -35 -137.5 -35c-47.333 0 -92 11 -134 33l-32 -38c-10 -12 -22.667 -18 -38 -18c-14 0 -26 5 -36 15s-15 21.333 -15 34c0 13.333 4.33301 24.666 13 33.999l31 37
c-40.667 50 -61 110 -61 180c0 53.333 12 101.166 36 143.499s56.667 75.333 98 99s87.333 35.5 138 35.5c53.333 0 101.666 -13.333 144.999 -40l21 24c10 12 22.667 18 38 18c14 0 26 -4.83301 36 -14.5s15 -21.5 15 -35.5c0 -12 -4.33301 -23 -13 -33l-23 -27
c35.333 -49.333 53 -106 53 -170zM175.001 180l203.001 237.001c-20.667 12 -44.334 18 -71.001 18c-28 0 -53.5 -7 -76.5 -21s-41.333 -33.833 -55 -59.5s-20.5 -54.834 -20.5 -87.501c0 -33.333 6.66699 -62.333 20 -87zM383.502 121.001c23 14 41.333 33.667 55 59
s20.5 54.333 20.5 87c0 27.333 -4.66699 52.333 -14 75l-196 -230c18 -8 37.333 -12 58 -12c28 0 53.5 7 76.5 21z" />
    <glyph glyph-name="ugrave" unicode="&#xf9;" horiz-adv-x="587" 
d="M505 517.5c11.333 -11.667 17.0029 -26.167 17.0029 -43.5v-254c0 -72 -19.833 -128.333 -59.5 -169s-96.167 -61 -169.5 -61s-129.666 20.333 -168.999 61s-59 97 -59 169v254c0 17.333 5.66699 31.833 17 43.5s25.666 17.5 42.999 17.5s31.666 -5.83301 42.999 -17.5
s17 -26.167 17 -43.5v-254c0 -40.667 9 -70.834 27 -90.501s45 -29.5 81 -29.5c36.667 0 64 9.83301 82 29.5s27 49.834 27 90.501v254c0 17.333 5.66699 31.833 17 43.5s25.666 17.5 42.999 17.5s31.666 -5.83301 42.999 -17.5zM274.003 576l-99.998 53.001
c-12 6.66699 -21.167 14.667 -27.5 24s-9.5 19 -9.5 29c0 14 5.66699 25.667 17 35s23.333 14 36 14c15.333 0 31.666 -7.33301 48.999 -22l86 -76c9.33301 -8.66699 14 -17.667 14 -27c0 -10.667 -3.83301 -19.334 -11.5 -26.001s-17.834 -10 -30.501 -10
c-7.33301 0 -15 2 -23 6z" />
    <glyph glyph-name="uacute" unicode="&#xfa;" horiz-adv-x="587" 
d="M505 517.5c11.333 -11.667 17.0029 -26.167 17.0029 -43.5v-254c0 -72 -19.833 -128.333 -59.5 -169s-96.167 -61 -169.5 -61s-129.666 20.333 -168.999 61s-59 97 -59 169v254c0 17.333 5.66699 31.833 17 43.5s25.666 17.5 42.999 17.5s31.666 -5.83301 42.999 -17.5
s17 -26.167 17 -43.5v-254c0 -40.667 9 -70.834 27 -90.501s45 -29.5 81 -29.5c36.667 0 64 9.83301 82 29.5s27 49.834 27 90.501v254c0 17.333 5.66699 31.833 17 43.5s25.666 17.5 42.999 17.5s31.666 -5.83301 42.999 -17.5zM277.503 578
c-7.66699 6 -11.166 13.999 -10.499 23.999c0 6 2 12.333 6 19l58 102c6.66699 12 14.667 21.667 24 29s19.666 11 30.999 11c18 0 31.5 -4.66699 40.5 -14s13.167 -21.333 12.5 -36c-1.33301 -15.333 -7.66602 -29.666 -18.999 -42.999l-76 -84
c-10.667 -11.333 -25.667 -17 -45 -17c-6.66699 0 -13.834 3 -21.501 9z" />
    <glyph glyph-name="ucircumflex" unicode="&#xfb;" horiz-adv-x="587" 
d="M505 517.5c11.333 -11.667 17.0029 -26.167 17.0029 -43.5v-254c0 -72 -19.833 -128.333 -59.5 -169s-96.167 -61 -169.5 -61s-129.666 20.333 -168.999 61s-59 97 -59 169v254c0 17.333 5.66699 31.833 17 43.5s25.666 17.5 42.999 17.5s31.666 -5.83301 42.999 -17.5
s17 -26.167 17 -43.5v-254c0 -40.667 9 -70.834 27 -90.501s45 -29.5 81 -29.5c36.667 0 64 9.83301 82 29.5s27 49.834 27 90.501v254c0 17.333 5.66699 31.833 17 43.5s25.666 17.5 42.999 17.5s31.666 -5.83301 42.999 -17.5zM426.003 639
c1.33301 -4 2.00586 -9 2.00586 -15c0 -6.66699 -2.83301 -12.5 -8.5 -17.5s-12.834 -7.5 -21.501 -7.5c-10 0 -17.5 1.33301 -22.5 4s-10 6.16699 -15 10.5s-8.83301 7.5 -11.5 9.5l-53 47l-57 -47c-2.66699 -2 -6.83398 -5.5 -12.501 -10.5s-11.167 -8.5 -16.5 -10.5
s-12 -3 -20 -3c-8.66699 0 -15.834 2.5 -21.501 7.5s-8.5 10.833 -8.5 17.5c0 6 0.666992 11 2 15s4.66602 9.33301 9.99902 16l49 62c15.333 19.333 35.666 29 60.999 29h36c13.333 0 23.833 -2 31.5 -6s15.167 -11.667 22.5 -23l44 -62
c5.33301 -6.66699 8.66602 -12 9.99902 -16z" />
    <glyph glyph-name="udieresis" unicode="&#xfc;" horiz-adv-x="587" 
d="M505 517.5c11.333 -11.667 17.0029 -26.167 17.0029 -43.5v-254c0 -72 -19.833 -128.333 -59.5 -169s-96.167 -61 -169.5 -61s-129.666 20.333 -168.999 61s-59 97 -59 169v254c0 17.333 5.66699 31.833 17 43.5s25.666 17.5 42.999 17.5s31.666 -5.83301 42.999 -17.5
s17 -26.167 17 -43.5v-254c0 -40.667 9 -70.834 27 -90.501s45 -29.5 81 -29.5c36.667 0 64 9.83301 82 29.5s27 49.834 27 90.501v254c0 17.333 5.66699 31.833 17 43.5s25.666 17.5 42.999 17.5s31.666 -5.83301 42.999 -17.5zM147.003 611.5
c-9.33301 7.66699 -14 20.5 -14 38.5v18c0 18 4.83301 30.833 14.5 38.5s24.5 11.5 44.5 11.5c24 0 40.667 -3.66699 50 -11s14 -20.333 14 -39v-18c0 -19.333 -4.83301 -32.5 -14.5 -39.5s-26.167 -10.5 -49.5 -10.5c-20.667 0 -35.667 3.83301 -45 11.5zM346.003 611.5
c-9.33301 7.66699 -14 20.5 -14 38.5v18c0 18.667 5 31.667 15 39s25.333 11 46 11c22 0 37.833 -3.83301 47.5 -11.5s14.5 -20.5 14.5 -38.5v-18c0 -19.333 -4.83301 -32.5 -14.5 -39.5s-26.167 -10.5 -49.5 -10.5c-20.667 0 -35.667 3.83301 -45 11.5z" />
    <glyph glyph-name="yacute" unicode="&#xfd;" horiz-adv-x="587" 
d="M505 517.5c11.333 -11.667 17.0098 -26.166 17.0098 -43.499v-425c0 -86.667 -23.333 -149.834 -70 -189.501s-109 -59.5 -187 -59.5c-22.667 0 -45.834 1.83301 -69.501 5.5s-42.834 8.5 -57.501 14.5c-32.667 14 -49 33.333 -49 58c0 4.66699 1 10 3 16
c4 14.667 10.833 25.834 20.5 33.501s20.167 11.5 31.5 11.5c6.66699 0 13 -1 19 -3l24.5 -10c11.667 -4.66699 24 -8.5 37 -11.5s26.5 -4.5 40.5 -4.5c47.333 0 82.166 10.167 104.499 30.5s33.5 55.166 33.5 104.499v10c-34.667 -43.333 -88.667 -65 -162 -65
c-34.667 0 -65.334 8.16699 -92.001 24.5s-47.334 39 -62.001 68s-22 62.167 -22 99.5v292c0 17.333 5.66699 31.833 17 43.5s25.666 17.5 42.999 17.5s31.666 -5.83301 42.999 -17.5s17 -26.167 17 -43.5v-256c0 -42 9.16699 -72.167 27.5 -90.5s45.166 -27.5 80.499 -27.5
c34.667 0 61.5 10.167 80.5 30.5s28.5 49.5 28.5 87.5v256c0 17.333 5.66699 31.833 17 43.5s25.666 17.5 42.999 17.5s31.666 -5.83301 42.999 -17.5zM277.51 578.001c-7.66699 6 -11.166 13.999 -10.499 23.999c0 6 2 12.333 6 19l58 102c6.66699 12 14.667 21.667 24 29
s19.666 11 30.999 11c18 0 31.5 -4.66699 40.5 -14s13.167 -21.333 12.5 -36c-1.33301 -15.333 -7.66602 -29.666 -18.999 -42.999l-76 -84c-10.667 -11.333 -25.667 -17 -45 -17c-6.66699 0 -13.834 3 -21.501 9z" />
    <glyph glyph-name="thorn" unicode="&#xfe;" horiz-adv-x="623" 
d="M467 509.5c37.333 -23.667 66.833 -56.501 88.5 -98.501s32.5 -89.667 32.5 -143s-10.667 -101.166 -32 -143.499s-50.5 -75.333 -87.5 -99s-77.833 -35.5 -122.5 -35.5c-32 0 -62.167 6.5 -90.5 19.5s-51.833 28.833 -70.5 47.5v-196
c0 -17.333 -5.66699 -31.833 -17 -43.5s-25.666 -17.5 -42.999 -17.5s-31.666 5.66699 -42.999 17s-17 26 -17 44v818c0 17.333 5.66699 31.833 17 43.5s25.666 17.5 42.999 17.5s31.666 -5.83301 42.999 -17.5s17 -26.167 17 -43.5v-209c16 20 38.333 37.5 67 52.5
s58.667 22.5 90 22.5c46 0 87.667 -11.833 125 -35.5zM432 147.999c27.333 32 41 72 41 120s-13.5 87.833 -40.5 119.5s-62.167 47.5 -105.5 47.5s-78.666 -15.833 -105.999 -47.5s-41 -71.5 -41 -119.5s13.667 -88 41 -120s62.666 -48 105.999 -48
c42.667 0 77.667 16 105 48z" />
    <glyph glyph-name="ydieresis" unicode="&#xff;" horiz-adv-x="587" 
d="M505 517.5c11.333 -11.667 17.0098 -26.166 17.0098 -43.499v-425c0 -86.667 -23.333 -149.834 -70 -189.501s-109 -59.5 -187 -59.5c-22.667 0 -45.834 1.83301 -69.501 5.5s-42.834 8.5 -57.501 14.5c-32.667 14 -49 33.333 -49 58c0 4.66699 1 10 3 16
c4 14.667 10.833 25.834 20.5 33.501s20.167 11.5 31.5 11.5c6.66699 0 13 -1 19 -3l24.5 -10c11.667 -4.66699 24 -8.5 37 -11.5s26.5 -4.5 40.5 -4.5c47.333 0 82.166 10.167 104.499 30.5s33.5 55.166 33.5 104.499v10c-34.667 -43.333 -88.667 -65 -162 -65
c-34.667 0 -65.334 8.16699 -92.001 24.5s-47.334 39 -62.001 68s-22 62.167 -22 99.5v292c0 17.333 5.66699 31.833 17 43.5s25.666 17.5 42.999 17.5s31.666 -5.83301 42.999 -17.5s17 -26.167 17 -43.5v-256c0 -42 9.16699 -72.167 27.5 -90.5s45.166 -27.5 80.499 -27.5
c34.667 0 61.5 10.167 80.5 30.5s28.5 49.5 28.5 87.5v256c0 17.333 5.66699 31.833 17 43.5s25.666 17.5 42.999 17.5s31.666 -5.83301 42.999 -17.5zM147.01 611.501c-9.33301 7.66699 -14 20.5 -14 38.5v18c0 18 4.83301 30.833 14.5 38.5s24.5 11.5 44.5 11.5
c24 0 40.667 -3.66699 50 -11s14 -20.333 14 -39v-18c0 -19.333 -4.83301 -32.5 -14.5 -39.5s-26.167 -10.5 -49.5 -10.5c-20.667 0 -35.667 3.83301 -45 11.5zM346.01 611.501c-9.33301 7.66699 -14 20.5 -14 38.5v18c0 18.667 5 31.667 15 39s25.333 11 46 11
c22 0 37.833 -3.83301 47.5 -11.5s14.5 -20.5 14.5 -38.5v-18c0 -19.333 -4.83301 -32.5 -14.5 -39.5s-26.167 -10.5 -49.5 -10.5c-20.667 0 -35.667 3.83301 -45 11.5z" />
    <glyph glyph-name="Amacron" unicode="&#x100;" horiz-adv-x="639" 
d="M629 54c0 -17.333 -5.66602 -31.499 -16.999 -42.499s-24.333 -16.5 -39 -16.5c-12 0 -22.833 3.66699 -32.5 11s-17.167 17.333 -22.5 30l-52 121h-298l-52 -122c-4.66699 -12.667 -11.834 -22.5 -21.501 -29.5s-20.167 -10.5 -31.5 -10.5
c-17.333 0 -30.5 4.66699 -39.5 14s-13.5 22 -13.5 38c0 6 1 12.333 3 19l249 598c5.33301 13.333 13.333 23.666 24 30.999s22.667 10.333 36 9c12 0 23.167 -3.5 33.5 -10.5s17.833 -16.833 22.5 -29.5l246 -586c3.33301 -8.66699 5 -16.667 5 -24zM217.001 272.001h200
l-101 234zM164.001 761.501c-8.66699 7.66699 -13 18.833 -13 33.5c0 14 4.33301 24.833 13 32.5s21 11.5 37 11.5h242c16 0 28.333 -3.83301 37 -11.5s13 -18.5 13 -32.5c0 -30 -16.667 -45 -50 -45h-242c-16 0 -28.333 3.83301 -37 11.5z" />
    <glyph glyph-name="amacron" unicode="&#x101;" horiz-adv-x="623" 
d="M541 528c11.333 -11.333 17 -25.998 17 -43.998v-423c0 -17.333 -5.66699 -31.833 -17 -43.5s-25.666 -17.5 -42.999 -17.5s-31.5 5.66699 -42.5 17s-16.833 25.666 -17.5 42.999c-16.667 -19.333 -39.167 -35.833 -67.5 -49.5s-58.166 -20.5 -89.499 -20.5
c-46 0 -87.667 11.833 -125 35.5s-66.833 56.5 -88.5 98.5s-32.5 89.667 -32.5 143s10.667 101.166 32 143.499s50.5 75.333 87.5 99s77.833 35.5 122.5 35.5c32 0 62 -5.83301 90 -17.5s51.667 -26.5 71 -44.5v1c0 17.333 5.66699 31.833 17 43.5s25.666 17.5 42.999 17.5
s31.666 -5.66699 42.999 -17zM402 147.502c27.333 31.667 41 71.5 41 119.5s-13.667 88 -41 120s-62.666 48 -105.999 48c-42.667 0 -77.667 -16 -105 -48s-41 -72 -41 -120s13.5 -87.833 40.5 -119.5s62.167 -47.5 105.5 -47.5s78.666 15.833 105.999 47.5zM144 611.502
c-8.66699 7.66699 -13 18.833 -13 33.5c0 14 4.33301 24.833 13 32.5s21 11.5 37 11.5h242c16 0 28.333 -3.83301 37 -11.5s13 -18.5 13 -32.5c0 -30 -16.667 -45 -50 -45h-242c-16 0 -28.333 3.83301 -37 11.5z" />
    <glyph glyph-name="Abreve" unicode="&#x102;" horiz-adv-x="639" 
d="M629 54c0 -17.333 -5.66602 -31.499 -16.999 -42.499s-24.333 -16.5 -39 -16.5c-12 0 -22.833 3.66699 -32.5 11s-17.167 17.333 -22.5 30l-52 121h-298l-52 -122c-4.66699 -12.667 -11.834 -22.5 -21.501 -29.5s-20.167 -10.5 -31.5 -10.5
c-17.333 0 -30.5 4.66699 -39.5 14s-13.5 22 -13.5 38c0 6 1 12.333 3 19l249 598c5.33301 13.333 13.333 23.666 24 30.999s22.667 10.333 36 9c12 0 23.167 -3.5 33.5 -10.5s17.833 -16.833 22.5 -29.5l246 -586c3.33301 -8.66699 5 -16.667 5 -24zM217.001 272.001h200
l-101 234zM224.501 782.501c-27.667 16.333 -47.8311 39.165 -60.498 68.498c-3.33301 8.66699 -5 16 -5 22c0 10 3.16699 18 9.5 24s14.5 9 24.5 9c12.667 0 23 -2.66699 31 -8s17.667 -14.666 29 -27.999c16 -18 39 -27 69 -27c32 0 55 9 69 27
c10 12.667 19.167 21.834 27.5 27.501s19.166 8.5 32.499 8.5c10 0 18.167 -2.83301 24.5 -8.5s9.5 -13.5 9.5 -23.5c0 -6.66699 -1.33301 -13.667 -4 -21c-12.667 -30.667 -32.834 -54.167 -60.501 -70.5s-60.5 -24.5 -98.5 -24.5c-37.333 0 -69.833 8.16699 -97.5 24.5z
" />
    <glyph glyph-name="abreve" unicode="&#x103;" horiz-adv-x="623" 
d="M541 528c11.333 -11.333 17 -25.998 17 -43.998v-423c0 -17.333 -5.66699 -31.833 -17 -43.5s-25.666 -17.5 -42.999 -17.5s-31.5 5.66699 -42.5 17s-16.833 25.666 -17.5 42.999c-16.667 -19.333 -39.167 -35.833 -67.5 -49.5s-58.166 -20.5 -89.499 -20.5
c-46 0 -87.667 11.833 -125 35.5s-66.833 56.5 -88.5 98.5s-32.5 89.667 -32.5 143s10.667 101.166 32 143.499s50.5 75.333 87.5 99s77.833 35.5 122.5 35.5c32 0 62 -5.83301 90 -17.5s51.667 -26.5 71 -44.5v1c0 17.333 5.66699 31.833 17 43.5s25.666 17.5 42.999 17.5
s31.666 -5.66699 42.999 -17zM402 147.502c27.333 31.667 41 71.5 41 119.5s-13.667 88 -41 120s-62.666 48 -105.999 48c-42.667 0 -77.667 -16 -105 -48s-41 -72 -41 -120s13.5 -87.833 40.5 -119.5s62.167 -47.5 105.5 -47.5s78.666 15.833 105.999 47.5zM203.5 595.002
c-27.667 16 -47.4971 39 -59.4971 69c-3.33301 8.66699 -5 16 -5 22c0 10 3.16699 18 9.5 24s14.5 9 24.5 9c13.333 0 24.166 -2.83301 32.499 -8.5s17.5 -14.834 27.5 -27.501c16 -18 39 -27 69 -27s53 9 69 27c10 12.667 19.167 21.834 27.5 27.501s19.166 8.5 32.499 8.5
c10 0 18.167 -2.83301 24.5 -8.5s9.5 -13.5 9.5 -23.5c0 -6.66699 -1.33301 -13.667 -4 -21c-12.667 -30.667 -32.834 -54.167 -60.501 -70.5s-60.5 -24.5 -98.5 -24.5s-70.833 8 -98.5 24z" />
    <glyph glyph-name="Aogonek" unicode="&#x104;" horiz-adv-x="643" 
d="M629.5 -97c8.33301 -8.66699 12.501 -20.332 12.501 -34.999c0 -10.667 -5.5 -22 -16.5 -34s-25.5 -21.833 -43.5 -29.5s-36.667 -11.5 -56 -11.5c-35.333 0 -64.166 9 -86.499 27s-33.5 44.667 -33.5 80c0 34.667 10.167 63 30.5 85s47.166 40 80.499 54l-51 118h-298
l-52 -122c-4.66699 -12.667 -11.834 -22.5 -21.501 -29.5s-20.167 -10.5 -31.5 -10.5c-19.333 0 -32.833 4 -40.5 12s-11.5 20.667 -11.5 38c0 8.66699 1.33301 16.667 4 24l247 595c5.33301 13.333 13.333 23.666 24 30.999s22.667 10.333 36 9
c12 0 23.167 -3.5 33.5 -10.5s17.833 -16.833 22.5 -29.5l257 -612c2.66699 -5.33301 4 -11 4 -17c0 -8 -2.16699 -15.5 -6.5 -22.5s-11.5 -11.833 -21.5 -14.5c-31.333 -8.66699 -56.5 -19.667 -75.5 -33s-28.5 -28 -28.5 -44c0 -12 2.83301 -20.833 8.5 -26.5
s12.5 -8.5 20.5 -8.5s15 4 21 12c9.33301 12 23 18 41 18c12.667 0 23.167 -4.33301 31.5 -13zM217.001 272.002h200l-101 234z" />
    <glyph glyph-name="aogonek" unicode="&#x105;" horiz-adv-x="623" 
d="M549.5 -107c8.33301 -8.66699 12.499 -20.332 12.499 -34.999c0 -10.667 -5.5 -22 -16.5 -34s-25.5 -21.833 -43.5 -29.5s-36.667 -11.5 -56 -11.5c-35.333 0 -64.166 9 -86.499 27s-33.5 44.667 -33.5 80s10.167 64 30.5 86s47.5 40 81.5 54v29
c-16.667 -18.667 -39.167 -34.834 -67.5 -48.501s-58.166 -20.5 -89.499 -20.5c-46 0 -87.667 11.833 -125 35.5s-66.833 56.5 -88.5 98.5s-32.5 89.667 -32.5 143s10.667 101.166 32 143.499s50.5 75.333 87.5 99s77.833 35.5 122.5 35.5c32 0 62 -5.83301 90 -17.5
s51.667 -26.5 71 -44.5v1c0 17.333 5.66699 31.833 17 43.5s25.666 17.5 42.999 17.5s31.666 -5.66699 42.999 -17s17 -26 17 -44v-459c0 -8 -2.16699 -15.5 -6.5 -22.5s-11.166 -11.833 -20.499 -14.5c-32 -9.33301 -57.667 -20.333 -77 -33s-29 -27 -29 -43
c0 -11.333 3 -20.166 9 -26.499s13.333 -9.5 22 -9.5c8 0 15 4 21 12c9.33301 12 23 18 41 18c12.667 0 23.167 -4.33301 31.5 -13zM401.999 147.502c27.333 31.667 41 71.5 41 119.5s-13.667 88 -41 120s-62.666 48 -105.999 48c-42.667 0 -77.667 -16 -105 -48
s-41 -72 -41 -120s13.5 -87.833 40.5 -119.5s62.167 -47.5 105.5 -47.5s78.666 15.833 105.999 47.5z" />
    <glyph glyph-name="Cacute" unicode="&#x106;" horiz-adv-x="627" 
d="M596 615c0 -14 -4.99805 -27.6621 -14.998 -40.9951c-10.667 -14 -24.334 -21 -41.001 -21c-11.333 0 -22.666 3 -33.999 9c-32.667 15.333 -68 23 -106 23c-46.667 0 -87.334 -9.83301 -122.001 -29.5s-61.334 -47.334 -80.001 -83.001s-28 -76.5 -28 -122.5
c0 -78.667 21.167 -138.334 63.5 -179.001s97.833 -61 166.5 -61c40.667 0 76 7.66699 106 23c12 5.33301 22.667 8 32 8c17.333 0 32 -7.33301 44 -22c10 -12.667 15 -26.334 15 -41.001c0 -10.667 -2.66699 -20.334 -8 -29.001s-13 -15.334 -23 -20.001
c-52 -26 -107.333 -39 -166 -39c-65.333 0 -125.333 13.833 -180 41.5s-98.334 68.5 -131.001 122.5s-49 119.333 -49 196c0 68 15.5 129 46.5 183s73.833 96.167 128.5 126.5s116.334 45.5 185.001 45.5c59.333 0 114.333 -13 165 -39c20.667 -10.667 31 -27.667 31 -51z
M334.502 748.005c-7.66699 6.66699 -11.4971 15.333 -11.4971 26c0 9.33301 4.66699 18.333 14 27l86 76c17.333 14.667 33.666 22 48.999 22c12.667 0 24.667 -4.66699 36 -14s17 -21 17 -35c0 -10 -3.16699 -19.833 -9.5 -29.5s-15.5 -17.5 -27.5 -23.5l-100 -53
c-6.66699 -4 -14.334 -6 -23.001 -6c-12.667 0 -22.834 3.33301 -30.501 10z" />
    <glyph glyph-name="cacute" unicode="&#x107;" horiz-adv-x="515" 
d="M435 518.5c34.667 -17.667 52 -41.166 52 -70.499c0 -14.667 -4.33301 -27.5 -13 -38.5s-20 -16.5 -34 -16.5c-10.667 0 -19.334 1.5 -26.001 4.5s-13.167 7 -19.5 12s-12.5 9.16699 -18.5 12.5c-6.66699 3.33301 -16.5 6.33301 -29.5 9s-23.5 4 -31.5 4
c-50 0 -89.167 -15.5 -117.5 -46.5s-42.5 -71.5 -42.5 -121.5c0 -48 14.333 -87.833 43 -119.5s65.334 -47.5 110.001 -47.5c32.667 0 57 4 73 12c4 2 9.5 5.5 16.5 10.5s13.5 8.83301 19.5 11.5s13.333 4 22 4c16.667 0 29.834 -5.33301 39.501 -16
s14.5 -24.334 14.5 -41.001c0 -16 -9.33301 -31 -28 -45s-43.334 -25.167 -74.001 -33.5s-63.334 -12.5 -98.001 -12.5c-51.333 0 -96.5 12 -135.5 36s-69.167 57.167 -90.5 99.5s-32 89.5 -32 141.5c0 54 11.167 102 33.5 144s53.5 74.833 93.5 98.5s85.333 35.5 136 35.5
c56.667 0 102.334 -8.83301 137.001 -26.5zM281.5 578.001c-7.66699 6 -11.166 13.999 -10.499 23.999c0 6 2 12.333 6 19l58 102c6.66699 12 14.667 21.667 24 29s19.666 11 30.999 11c18 0 31.5 -4.66699 40.5 -14s13.167 -21.333 12.5 -36
c-1.33301 -15.333 -7.66602 -29.666 -18.999 -42.999l-76 -84c-10.667 -11.333 -25.667 -17 -45 -17c-6.66699 0 -13.834 3 -21.501 9z" />
    <glyph glyph-name="Ccircumflex" unicode="&#x108;" horiz-adv-x="627" 
d="M596 615c0 -14 -4.99805 -27.6621 -14.998 -40.9951c-10.667 -14 -24.334 -21 -41.001 -21c-11.333 0 -22.666 3 -33.999 9c-32.667 15.333 -68 23 -106 23c-46.667 0 -87.334 -9.83301 -122.001 -29.5s-61.334 -47.334 -80.001 -83.001s-28 -76.5 -28 -122.5
c0 -78.667 21.167 -138.334 63.5 -179.001s97.833 -61 166.5 -61c40.667 0 76 7.66699 106 23c12 5.33301 22.667 8 32 8c17.333 0 32 -7.33301 44 -22c10 -12.667 15 -26.334 15 -41.001c0 -10.667 -2.66699 -20.334 -8 -29.001s-13 -15.334 -23 -20.001
c-52 -26 -107.333 -39 -166 -39c-65.333 0 -125.333 13.833 -180 41.5s-98.334 68.5 -131.001 122.5s-49 119.333 -49 196c0 68 15.5 129 46.5 183s73.833 96.167 128.5 126.5s116.334 45.5 185.001 45.5c59.333 0 114.333 -13 165 -39c20.667 -10.667 31 -27.667 31 -51z
M507.002 779.005c2 -4 2.99902 -8.66699 2.99902 -14c0 -6 -3 -11.667 -9 -17s-13.333 -8 -22 -8c-6 0 -12.667 1.66699 -20 5s-17.666 9 -30.999 17l-65 38l-65 -38c-10.667 -6 -20.334 -11.167 -29.001 -15.5s-16 -6.5 -22 -6.5c-8.66699 0 -16 2.66699 -22 8s-9 11 -9 17
c0 5.33301 1 10 3 14s6 9.33301 12 16l63 72c8.66699 10 17.667 17.333 27 22s20.666 7 33.999 7h16c12.667 0 23.834 -2.33301 33.501 -7s18.834 -12 27.501 -22l63 -72c6 -6.66699 10 -12 12 -16z" />
    <glyph glyph-name="ccircumflex" unicode="&#x109;" horiz-adv-x="515" 
d="M435 518.5c34.667 -17.667 52 -41.166 52 -70.499c0 -14.667 -4.33301 -27.5 -13 -38.5s-20 -16.5 -34 -16.5c-10.667 0 -19.334 1.5 -26.001 4.5s-13.167 7 -19.5 12s-12.5 9.16699 -18.5 12.5c-6.66699 3.33301 -16.5 6.33301 -29.5 9s-23.5 4 -31.5 4
c-50 0 -89.167 -15.5 -117.5 -46.5s-42.5 -71.5 -42.5 -121.5c0 -48 14.333 -87.833 43 -119.5s65.334 -47.5 110.001 -47.5c32.667 0 57 4 73 12c4 2 9.5 5.5 16.5 10.5s13.5 8.83301 19.5 11.5s13.333 4 22 4c16.667 0 29.834 -5.33301 39.501 -16
s14.5 -24.334 14.5 -41.001c0 -16 -9.33301 -31 -28 -45s-43.334 -25.167 -74.001 -33.5s-63.334 -12.5 -98.001 -12.5c-51.333 0 -96.5 12 -135.5 36s-69.167 57.167 -90.5 99.5s-32 89.5 -32 141.5c0 54 11.167 102 33.5 144s53.5 74.833 93.5 98.5s85.333 35.5 136 35.5
c56.667 0 102.334 -8.83301 137.001 -26.5zM430 639.001c1.33301 -4 2.00586 -9 2.00586 -15c0 -6.66699 -2.83301 -12.5 -8.5 -17.5s-12.834 -7.5 -21.501 -7.5c-10 0 -17.5 1.33301 -22.5 4s-10 6.16699 -15 10.5s-8.83301 7.5 -11.5 9.5l-53 47l-57 -47
c-2.66699 -2 -6.83398 -5.5 -12.501 -10.5s-11.167 -8.5 -16.5 -10.5s-12 -3 -20 -3c-8.66699 0 -15.834 2.5 -21.501 7.5s-8.5 10.833 -8.5 17.5c0 6 0.666992 11 2 15s4.66602 9.33301 9.99902 16l49 62c15.333 19.333 35.666 29 60.999 29h36c13.333 0 23.833 -2 31.5 -6
s15.167 -11.667 22.5 -23l44 -62c5.33301 -6.66699 8.66602 -12 9.99902 -16z" />
    <glyph glyph-name="Cdotaccent" unicode="&#x10a;" horiz-adv-x="627" 
d="M596 615c0 -14 -4.99805 -27.6621 -14.998 -40.9951c-10.667 -14 -24.334 -21 -41.001 -21c-11.333 0 -22.666 3 -33.999 9c-32.667 15.333 -68 23 -106 23c-46.667 0 -87.334 -9.83301 -122.001 -29.5s-61.334 -47.334 -80.001 -83.001s-28 -76.5 -28 -122.5
c0 -78.667 21.167 -138.334 63.5 -179.001s97.833 -61 166.5 -61c40.667 0 76 7.66699 106 23c12 5.33301 22.667 8 32 8c17.333 0 32 -7.33301 44 -22c10 -12.667 15 -26.334 15 -41.001c0 -10.667 -2.66699 -20.334 -8 -29.001s-13 -15.334 -23 -20.001
c-52 -26 -107.333 -39 -166 -39c-65.333 0 -125.333 13.833 -180 41.5s-98.334 68.5 -131.001 122.5s-49 119.333 -49 196c0 68 15.5 129 46.5 183s73.833 96.167 128.5 126.5s116.334 45.5 185.001 45.5c59.333 0 114.333 -13 165 -39c20.667 -10.667 31 -27.667 31 -51z
M315.002 751.005c-9.33301 7.33301 -14 20.333 -14 39v19c0 18.667 4.83301 31.667 14.5 39s25.5 11 47.5 11c24 0 40.667 -3.66699 50 -11s14 -20.333 14 -39v-19c0 -19.333 -5 -32.5 -15 -39.5s-26.667 -10.5 -50 -10.5c-22 0 -37.667 3.66699 -47 11z" />
    <glyph glyph-name="cdotaccent" unicode="&#x10b;" horiz-adv-x="515" 
d="M435 518.5c34.667 -17.667 52 -41.166 52 -70.499c0 -14.667 -4.33301 -27.5 -13 -38.5s-20 -16.5 -34 -16.5c-10.667 0 -19.334 1.5 -26.001 4.5s-13.167 7 -19.5 12s-12.5 9.16699 -18.5 12.5c-6.66699 3.33301 -16.5 6.33301 -29.5 9s-23.5 4 -31.5 4
c-50 0 -89.167 -15.5 -117.5 -46.5s-42.5 -71.5 -42.5 -121.5c0 -48 14.333 -87.833 43 -119.5s65.334 -47.5 110.001 -47.5c32.667 0 57 4 73 12c4 2 9.5 5.5 16.5 10.5s13.5 8.83301 19.5 11.5s13.333 4 22 4c16.667 0 29.834 -5.33301 39.501 -16
s14.5 -24.334 14.5 -41.001c0 -16 -9.33301 -31 -28 -45s-43.334 -25.167 -74.001 -33.5s-63.334 -12.5 -98.001 -12.5c-51.333 0 -96.5 12 -135.5 36s-69.167 57.167 -90.5 99.5s-32 89.5 -32 141.5c0 54 11.167 102 33.5 144s53.5 74.833 93.5 98.5s85.333 35.5 136 35.5
c56.667 0 102.334 -8.83301 137.001 -26.5zM249 611.001c-9.33301 7.33301 -13.999 20.333 -13.999 39v19c0 18.667 5 31.667 15 39s26 11 48 11c23.333 0 39.666 -3.66699 48.999 -11s14 -20.333 14 -39v-19c0 -19.333 -4.83301 -32.5 -14.5 -39.5
s-26.167 -10.5 -49.5 -10.5c-22.667 0 -38.667 3.66699 -48 11z" />
    <glyph glyph-name="Ccaron" unicode="&#x10c;" horiz-adv-x="627" 
d="M596 615c0 -14 -4.99805 -27.6621 -14.998 -40.9951c-10.667 -14 -24.334 -21 -41.001 -21c-11.333 0 -22.666 3 -33.999 9c-32.667 15.333 -68 23 -106 23c-46.667 0 -87.334 -9.83301 -122.001 -29.5s-61.334 -47.334 -80.001 -83.001s-28 -76.5 -28 -122.5
c0 -78.667 21.167 -138.334 63.5 -179.001s97.833 -61 166.5 -61c40.667 0 76 7.66699 106 23c12 5.33301 22.667 8 32 8c17.333 0 32 -7.33301 44 -22c10 -12.667 15 -26.334 15 -41.001c0 -10.667 -2.66699 -20.334 -8 -29.001s-13 -15.334 -23 -20.001
c-52 -26 -107.333 -39 -166 -39c-65.333 0 -125.333 13.833 -180 41.5s-98.334 68.5 -131.001 122.5s-49 119.333 -49 196c0 68 15.5 129 46.5 183s73.833 96.167 128.5 126.5s116.334 45.5 185.001 45.5c59.333 0 114.333 -13 165 -39c20.667 -10.667 31 -27.667 31 -51z
M503.002 888.005c6 -5.33301 9.00098 -11 9.00098 -17c0 -4.66699 -1 -9 -3 -13s-6 -9.66699 -12 -17l-63 -72c-8.66699 -10 -17.834 -17.333 -27.501 -22s-20.834 -7 -33.501 -7h-16c-13.333 0 -24.666 2.33301 -33.999 7s-18.333 12 -27 22l-63 72
c-6 7.33301 -10 13 -12 17s-3 8.33301 -3 13c0 6 3 11.667 9 17s13.333 8 22 8c13.333 0 30.333 -6.66699 51 -20l65 -42l65 42c20.667 13.333 37.667 20 51 20c8.66699 0 16 -2.66699 22 -8z" />
    <glyph glyph-name="ccaron" unicode="&#x10d;" horiz-adv-x="515" 
d="M435 518.5c34.667 -17.667 52 -41.166 52 -70.499c0 -14.667 -4.33301 -27.5 -13 -38.5s-20 -16.5 -34 -16.5c-10.667 0 -19.334 1.5 -26.001 4.5s-13.167 7 -19.5 12s-12.5 9.16699 -18.5 12.5c-6.66699 3.33301 -16.5 6.33301 -29.5 9s-23.5 4 -31.5 4
c-50 0 -89.167 -15.5 -117.5 -46.5s-42.5 -71.5 -42.5 -121.5c0 -48 14.333 -87.833 43 -119.5s65.334 -47.5 110.001 -47.5c32.667 0 57 4 73 12c4 2 9.5 5.5 16.5 10.5s13.5 8.83301 19.5 11.5s13.333 4 22 4c16.667 0 29.834 -5.33301 39.501 -16
s14.5 -24.334 14.5 -41.001c0 -16 -9.33301 -31 -28 -45s-43.334 -25.167 -74.001 -33.5s-63.334 -12.5 -98.001 -12.5c-51.333 0 -96.5 12 -135.5 36s-69.167 57.167 -90.5 99.5s-32 89.5 -32 141.5c0 54 11.167 102 33.5 144s53.5 74.833 93.5 98.5s85.333 35.5 136 35.5
c56.667 0 102.334 -8.83301 137.001 -26.5zM425 738.501c6.66699 -5 9.99902 -11.167 9.99902 -18.5c0 -10.667 -5.33301 -22.334 -16 -35.001l-44 -55c-8 -10.667 -16.833 -18.334 -26.5 -23.001s-21.167 -7 -34.5 -7h-36c-13.333 0 -24.833 2.33301 -34.5 7
s-18.5 12.334 -26.5 23.001l-44 55c-8 10.667 -12 21.334 -12 32.001c0 8.66699 3.5 15.667 10.5 21s17.167 8 30.5 8c12 0 27 -7.66699 45 -23l50 -43l50 43c10.667 8.66699 19.5 14.667 26.5 18s16.5 5 28.5 5c8.66699 0 16.334 -2.5 23.001 -7.5z" />
    <glyph glyph-name="Dcaron" unicode="&#x10e;" horiz-adv-x="715" 
d="M536.5 653.5c45 -31 79.333 -73 103 -126s35.5 -112.167 35.5 -177.5s-11.833 -124.5 -35.5 -177.5s-58 -95 -103 -126s-98.833 -46.5 -161.5 -46.5h-239c-17.333 -0 -31.833 5.83301 -43.5 17.5s-17.5 26.167 -17.5 43.5v578c0 17.333 5.83301 31.833 17.5 43.5
s26.167 17.5 43.5 17.5h239c62.667 0 116.5 -15.5 161.5 -46.5zM500 181.5c30 44.333 44.999 100.5 44.999 168.5s-15.167 124.167 -45.5 168.5s-75.166 66.5 -134.499 66.5h-165v-470h165c60 0 105 22.167 135 66.5zM446.999 888c6 -5.33301 9.00098 -11 9.00098 -17
c0 -4.66699 -1 -9 -3 -13s-6 -9.66699 -12 -17l-63 -72c-8.66699 -10 -17.834 -17.333 -27.501 -22s-20.834 -7 -33.501 -7h-16c-13.333 0 -24.666 2.33301 -33.999 7s-18.333 12 -27 22l-63 72c-6 7.33301 -10 13 -12 17s-3 8.33301 -3 13c0 6 3 11.667 9 17s13.333 8 22 8
c13.333 0 30.333 -6.66699 51 -20l65 -42l65 42c20.667 13.333 37.667 20 51 20c8.66699 0 16 -2.66699 22 -8z" />
    <glyph glyph-name="dcaron" unicode="&#x10f;" horiz-adv-x="816" 
d="M541 723c11.333 -11.333 17 -25.998 17 -43.998v-618c0 -17.333 -5.66699 -31.833 -17 -43.5s-25.666 -17.5 -42.999 -17.5s-31.5 5.66699 -42.5 17s-16.833 25.666 -17.5 42.999c-16.667 -19.333 -39.167 -35.833 -67.5 -49.5s-58.166 -20.5 -89.499 -20.5
c-46 0 -87.667 11.833 -125 35.5s-66.833 56.5 -88.5 98.5s-32.5 89.667 -32.5 143s10.667 101.166 32 143.499s50.5 75.333 87.5 99s77.833 35.5 122.5 35.5c32 0 62 -5.83301 90 -17.5s51.667 -26.5 71 -44.5v196c0 17.333 5.66699 31.833 17 43.5
s25.666 17.5 42.999 17.5s31.666 -5.66699 42.999 -17zM402 147.502c27.333 31.667 41 71.5 41 119.5s-13.667 88 -41 120s-62.666 48 -105.999 48c-42.667 0 -77.667 -16 -105 -48s-41 -72 -41 -120s13.5 -87.833 40.5 -119.5s62.167 -47.5 105.5 -47.5
s78.666 15.833 105.999 47.5zM789 520.002c-11.333 -23.333 -25.999 -43.667 -43.999 -61s-36.667 -26 -56 -26c-14.667 0 -26.334 3.16699 -35.001 9.5s-13 16.5 -13 30.5c0 10.667 2.66699 18.167 8 22.5s11.166 7.5 17.499 9.5s10.833 3.66699 13.5 5
c18.667 10 28 23.333 28 40c0 7.33301 -3.5 13.833 -10.5 19.5s-16.167 8.5 -27.5 8.5s-20.666 -2.33301 -27.999 -7c-8 3.33301 -14.167 7.66602 -18.5 12.999s-6.5 13.333 -6.5 24c0 13.333 5 25.833 15 37.5s22.333 21 37 28s29 10.5 43 10.5
c29.333 0 52.333 -9.16699 69 -27.5s25 -44.5 25 -78.5c0 -15.333 -5.66699 -34.666 -17 -57.999z" />
    <glyph glyph-name="Dcroat" unicode="&#x110;" horiz-adv-x="715" 
d="M536.5 653.5c45 -31 79.333 -72.999 103 -125.999s35.5 -112.167 35.5 -177.5s-11.833 -124.5 -35.5 -177.5s-58 -95 -103 -126s-98.833 -46.5 -161.5 -46.5h-239c-17.333 0 -31.833 5.83301 -43.5 17.5s-17.5 26.167 -17.5 43.5v236h-18
c-17.333 0 -31.833 5.16699 -43.5 15.5s-17.5 23.833 -17.5 40.5c0 15.333 5.83301 28.166 17.5 38.499s26.167 15.5 43.5 15.5h18v232c0 17.333 5.83301 31.833 17.5 43.5s26.167 17.5 43.5 17.5h239c62.667 0 116.5 -15.5 161.5 -46.5zM500 181.501
c30 44.333 44.999 100.499 44.999 168.499s-15.167 124.167 -45.5 168.5s-75.166 66.5 -134.499 66.5h-165v-178h31c17.333 0 31.833 -5.16699 43.5 -15.5s17.5 -23.166 17.5 -38.499c0 -16.667 -5.83301 -30.167 -17.5 -40.5s-26.167 -15.5 -43.5 -15.5h-31v-182h165
c60 0 105 22.167 135 66.5z" />
    <glyph glyph-name="dcroat" unicode="&#x111;" horiz-adv-x="623" 
d="M615.5 655.5c11.667 -10.333 17.5 -23.1641 17.5 -38.4971c0 -16.667 -5.83301 -30.167 -17.5 -40.5s-26.167 -15.5 -43.5 -15.5h-14v-500c0 -17.333 -5.66699 -31.833 -17 -43.5s-25.666 -17.5 -42.999 -17.5s-31.5 5.66699 -42.5 17s-16.833 25.666 -17.5 42.999
c-16.667 -19.333 -39.167 -35.833 -67.5 -49.5s-58.166 -20.5 -89.499 -20.5c-46 0 -87.667 11.833 -125 35.5s-66.833 56.5 -88.5 98.5s-32.5 89.667 -32.5 143s10.667 101.166 32 143.499s50.5 75.333 87.5 99s77.833 35.5 122.5 35.5c32 0 62 -5.83301 90 -17.5
s51.667 -26.5 71 -44.5v78h-40c-17.333 0 -31.833 5.16699 -43.5 15.5s-17.5 23.833 -17.5 40.5c0 15.333 5.83301 28.166 17.5 38.499s26.167 15.5 43.5 15.5h40v8c0 17.333 5.66699 31.833 17 43.5s25.666 17.5 42.999 17.5s31.666 -5.66699 42.999 -17s17 -26 17 -44v-8
h14c17.333 0 31.833 -5.16699 43.5 -15.5zM402 147.502c27.333 31.667 41 71.5 41 119.5s-13.667 88 -41 120s-62.666 48 -105.999 48c-42.667 0 -77.667 -16 -105 -48s-41 -72 -41 -120s13.5 -87.833 40.5 -119.5s62.167 -47.5 105.5 -47.5s78.666 15.833 105.999 47.5z
" />
    <glyph glyph-name="Emacron" unicode="&#x112;" horiz-adv-x="572" 
d="M514.5 97.5c11.667 -11.667 17.5 -25.166 17.5 -40.499c0 -16.667 -5.83301 -30.334 -17.5 -41.001s-26.167 -16 -43.5 -16h-335c-17.333 -0 -31.833 5.83301 -43.5 17.5s-17.5 26.167 -17.5 43.5v578c0 17.333 5.83301 31.833 17.5 43.5s26.167 17.5 43.5 17.5h335
c17.333 0 31.833 -5.5 43.5 -16.5s17.5 -25.167 17.5 -42.5c0 -16.667 -5.66699 -30.167 -17 -40.5s-26 -15.5 -44 -15.5h-271v-170h226c17.333 0 31.833 -5.5 43.5 -16.5s17.5 -25.167 17.5 -42.5c0 -16.667 -5.66699 -30.167 -17 -40.5s-26 -15.5 -44 -15.5h-226v-185h271
c17.333 0 31.833 -5.83301 43.5 -17.5zM148 761.501c-8.66699 7.66699 -13 18.833 -13 33.5c0 14 4.33301 24.833 13 32.5s21 11.5 37 11.5h242c16 0 28.333 -3.83301 37 -11.5s13 -18.5 13 -32.5c0 -30 -16.667 -45 -50 -45h-242c-16 0 -28.333 3.83301 -37 11.5z" />
    <glyph glyph-name="emacron" unicode="&#x113;" horiz-adv-x="580" 
d="M526 241c-12 -10 -25.998 -15 -41.998 -15h-330c8 -39.333 26.333 -70.166 55 -92.499s61 -33.5 97 -33.5c27.333 0 48.666 2.5 63.999 7.5s27.5 10.333 36.5 16l18.5 11.5c12 6 23.333 9 34 9c14 0 26 -5 36 -15s15 -21.667 15 -35c0 -18 -9.33301 -34.333 -28 -49
c-18.667 -15.333 -43.667 -28.333 -75 -39s-63 -16 -95 -16c-56 0 -104.833 11.667 -146.5 35s-73.834 55.5 -96.501 96.5s-34 87.167 -34 138.5c0 57.333 12 107.666 36 150.999s55.667 76.5 95 99.5s81.333 34.5 126 34.5c44 0 85.5 -12 124.5 -36
s70.167 -56.333 93.5 -97s35 -84.667 35 -132c-0.666992 -16 -7 -29 -19 -39zM155.002 326h262.001v7c-2.66699 28 -16.334 52 -41.001 72s-52.667 30 -84 30c-77.333 0 -123 -36.333 -137 -109zM130.003 611.5c-8.66699 7.66699 -13 18.833 -13 33.5
c0 14 4.33301 24.833 13 32.5s21 11.5 37 11.5h242c16 0 28.333 -3.83301 37 -11.5s13 -18.5 13 -32.5c0 -30 -16.667 -45 -50 -45h-242c-16 0 -28.333 3.83301 -37 11.5z" />
    <glyph glyph-name="Ebreve" unicode="&#x114;" horiz-adv-x="572" 
d="M514.5 97.5c11.667 -11.667 17.5 -25.166 17.5 -40.499c0 -16.667 -5.83301 -30.334 -17.5 -41.001s-26.167 -16 -43.5 -16h-335c-17.333 -0 -31.833 5.83301 -43.5 17.5s-17.5 26.167 -17.5 43.5v578c0 17.333 5.83301 31.833 17.5 43.5s26.167 17.5 43.5 17.5h335
c17.333 0 31.833 -5.5 43.5 -16.5s17.5 -25.167 17.5 -42.5c0 -16.667 -5.66699 -30.167 -17 -40.5s-26 -15.5 -44 -15.5h-271v-170h226c17.333 0 31.833 -5.5 43.5 -16.5s17.5 -25.167 17.5 -42.5c0 -16.667 -5.66699 -30.167 -17 -40.5s-26 -15.5 -44 -15.5h-226v-185h271
c17.333 0 31.833 -5.83301 43.5 -17.5zM208.5 782.501c-27.667 16.333 -47.8311 39.165 -60.498 68.498c-3.33301 8.66699 -5 16 -5 22c0 10 3.16699 18 9.5 24s14.5 9 24.5 9c12.667 0 23 -2.66699 31 -8s17.667 -14.666 29 -27.999c16 -18 39 -27 69 -27c32 0 55 9 69 27
c10 12.667 19.167 21.834 27.5 27.501s19.166 8.5 32.499 8.5c10 0 18.167 -2.83301 24.5 -8.5s9.5 -13.5 9.5 -23.5c0 -6.66699 -1.33301 -13.667 -4 -21c-12.667 -30.667 -32.834 -54.167 -60.501 -70.5s-60.5 -24.5 -98.5 -24.5c-37.333 0 -69.833 8.16699 -97.5 24.5z
" />
    <glyph glyph-name="ebreve" unicode="&#x115;" horiz-adv-x="580" 
d="M526 241c-12 -10 -25.998 -15 -41.998 -15h-330c8 -39.333 26.333 -70.166 55 -92.499s61 -33.5 97 -33.5c27.333 0 48.666 2.5 63.999 7.5s27.5 10.333 36.5 16l18.5 11.5c12 6 23.333 9 34 9c14 0 26 -5 36 -15s15 -21.667 15 -35c0 -18 -9.33301 -34.333 -28 -49
c-18.667 -15.333 -43.667 -28.333 -75 -39s-63 -16 -95 -16c-56 0 -104.833 11.667 -146.5 35s-73.834 55.5 -96.501 96.5s-34 87.167 -34 138.5c0 57.333 12 107.666 36 150.999s55.667 76.5 95 99.5s81.333 34.5 126 34.5c44 0 85.5 -12 124.5 -36
s70.167 -56.333 93.5 -97s35 -84.667 35 -132c-0.666992 -16 -7 -29 -19 -39zM155.002 326h262.001v7c-2.66699 28 -16.334 52 -41.001 72s-52.667 30 -84 30c-77.333 0 -123 -36.333 -137 -109zM189.503 595c-27.667 16 -47.4971 39 -59.4971 69
c-3.33301 8.66699 -5 16 -5 22c0 10 3.16699 18 9.5 24s14.5 9 24.5 9c13.333 0 24.166 -2.83301 32.499 -8.5s17.5 -14.834 27.5 -27.501c16 -18 39 -27 69 -27s53 9 69 27c10 12.667 19.167 21.834 27.5 27.501s19.166 8.5 32.499 8.5c10 0 18.167 -2.83301 24.5 -8.5
s9.5 -13.5 9.5 -23.5c0 -6.66699 -1.33301 -13.667 -4 -21c-12.667 -30.667 -32.834 -54.167 -60.501 -70.5s-60.5 -24.5 -98.5 -24.5s-70.833 8 -98.5 24z" />
    <glyph glyph-name="Edotaccent" unicode="&#x116;" horiz-adv-x="572" 
d="M514.5 97.5c11.667 -11.667 17.5 -25.166 17.5 -40.499c0 -16.667 -5.83301 -30.334 -17.5 -41.001s-26.167 -16 -43.5 -16h-335c-17.333 -0 -31.833 5.83301 -43.5 17.5s-17.5 26.167 -17.5 43.5v578c0 17.333 5.83301 31.833 17.5 43.5s26.167 17.5 43.5 17.5h335
c17.333 0 31.833 -5.5 43.5 -16.5s17.5 -25.167 17.5 -42.5c0 -16.667 -5.66699 -30.167 -17 -40.5s-26 -15.5 -44 -15.5h-271v-170h226c17.333 0 31.833 -5.5 43.5 -16.5s17.5 -25.167 17.5 -42.5c0 -16.667 -5.66699 -30.167 -17 -40.5s-26 -15.5 -44 -15.5h-226v-185h271
c17.333 0 31.833 -5.83301 43.5 -17.5zM257 751.001c-9.33301 7.33301 -14 20.333 -14 39v19c0 18.667 4.83301 31.667 14.5 39s25.5 11 47.5 11c24 0 40.667 -3.66699 50 -11s14 -20.333 14 -39v-19c0 -19.333 -5 -32.5 -15 -39.5s-26.667 -10.5 -50 -10.5
c-22 0 -37.667 3.66699 -47 11z" />
    <glyph glyph-name="edotaccent" unicode="&#x117;" horiz-adv-x="580" 
d="M526 241c-12 -10 -25.998 -15 -41.998 -15h-330c8 -39.333 26.333 -70.166 55 -92.499s61 -33.5 97 -33.5c27.333 0 48.666 2.5 63.999 7.5s27.5 10.333 36.5 16l18.5 11.5c12 6 23.333 9 34 9c14 0 26 -5 36 -15s15 -21.667 15 -35c0 -18 -9.33301 -34.333 -28 -49
c-18.667 -15.333 -43.667 -28.333 -75 -39s-63 -16 -95 -16c-56 0 -104.833 11.667 -146.5 35s-73.834 55.5 -96.501 96.5s-34 87.167 -34 138.5c0 57.333 12 107.666 36 150.999s55.667 76.5 95 99.5s81.333 34.5 126 34.5c44 0 85.5 -12 124.5 -36
s70.167 -56.333 93.5 -97s35 -84.667 35 -132c-0.666992 -16 -7 -29 -19 -39zM155.002 326h262.001v7c-2.66699 28 -16.334 52 -41.001 72s-52.667 30 -84 30c-77.333 0 -123 -36.333 -137 -109zM239.003 611c-9.33301 7.33301 -13.999 20.333 -13.999 39v19
c0 18.667 5 31.667 15 39s26 11 48 11c23.333 0 39.666 -3.66699 48.999 -11s14 -20.333 14 -39v-19c0 -19.333 -4.83301 -32.5 -14.5 -39.5s-26.167 -10.5 -49.5 -10.5c-22.667 0 -38.667 3.66699 -48 11z" />
    <glyph glyph-name="Eogonek" unicode="&#x118;" horiz-adv-x="572" 
d="M515 99.5c11.333 -10.333 16.999 -24.498 16.999 -42.498c0 -16 -5 -28.333 -15 -37s-24.667 -15.334 -44 -20.001c-30 -7.33301 -54.5 -18 -73.5 -32s-28.5 -29.333 -28.5 -46c0 -11.333 3 -20.166 9 -26.499s13.333 -9.5 22 -9.5c8 0 15 4 21 12
c9.33301 12 23 18 41 18c12.667 0 23.167 -4.33301 31.5 -13s12.5 -20.334 12.5 -35.001c0 -10.667 -5.5 -22 -16.5 -34s-25.5 -21.833 -43.5 -29.5s-36.667 -11.5 -56 -11.5c-35.333 0 -64.166 9 -86.499 27s-33.5 44.667 -33.5 80c0 37.333 20.333 70.666 61 99.999h-197
c-17.333 -0 -31.833 5.83301 -43.5 17.5s-17.5 26.167 -17.5 43.5v578c0 17.333 5.83301 31.833 17.5 43.5s26.167 17.5 43.5 17.5h335c17.333 0 31.833 -5.5 43.5 -16.5s17.5 -25.167 17.5 -42.5c0 -14.667 -5.83301 -27.5 -17.5 -38.5s-26.167 -16.5 -43.5 -16.5h-271
v-171h226c17.333 0 31.833 -5.5 43.5 -16.5s17.5 -25.167 17.5 -42.5c0 -14 -6 -26.833 -18 -38.5s-26.333 -17.5 -43 -17.5h-226v-185h271c18 0 32.667 -5.16699 44 -15.5z" />
    <glyph glyph-name="eogonek" unicode="&#x119;" horiz-adv-x="580" 
d="M526 241c-12 -10 -26 -15 -42 -15h-330c8 -39.333 26.333 -70.166 55 -92.499s61 -33.5 97 -33.5c27.333 0 48.666 2.5 63.999 7.5s27.5 10.333 36.5 16l18.5 11.5c12 6.66699 23.333 10 34 10c16 0 29 -6 39 -18s15 -24.333 15 -37c0 -18 -9.66699 -33.333 -29 -46
c-29.333 -19.333 -52.333 -39 -69 -59s-25 -41 -25 -63c0 -11.333 3 -20.166 9 -26.499s13.333 -9.5 22 -9.5c8 0 15 4 21 12c8.66699 12 22.334 18 41.001 18c12.667 0 23.167 -4.33301 31.5 -13s12.5 -20.334 12.5 -35.001c0 -10.667 -5.5 -22 -16.5 -34
s-25.5 -21.833 -43.5 -29.5s-36.667 -11.5 -56 -11.5c-35.333 0 -64.166 9 -86.499 27s-33.5 44.667 -33.5 80c0 36 11.333 66 34 90h-13c-56 0 -104.833 11.667 -146.5 35s-73.834 55.5 -96.501 96.5s-34 87.167 -34 138.5c0 57.333 12 107.666 36 150.999
s55.667 76.5 95 99.5s81.333 34.5 126 34.5c44 0 85.5 -12 124.5 -36s70.167 -56.333 93.5 -97s35 -84.667 35 -132c-0.666992 -16 -7 -29 -19 -39zM155 326h262.001v7c-2.66699 28 -16.334 52 -41.001 72s-52.667 30 -84 30c-77.333 0 -123 -36.333 -137 -109z" />
    <glyph glyph-name="Ecaron" unicode="&#x11a;" horiz-adv-x="572" 
d="M514.5 97.5c11.667 -11.667 17.5 -25.166 17.5 -40.499c0 -16.667 -5.83301 -30.334 -17.5 -41.001s-26.167 -16 -43.5 -16h-335c-17.333 -0 -31.833 5.83301 -43.5 17.5s-17.5 26.167 -17.5 43.5v578c0 17.333 5.83301 31.833 17.5 43.5s26.167 17.5 43.5 17.5h335
c17.333 0 31.833 -5.5 43.5 -16.5s17.5 -25.167 17.5 -42.5c0 -16.667 -5.66699 -30.167 -17 -40.5s-26 -15.5 -44 -15.5h-271v-170h226c17.333 0 31.833 -5.5 43.5 -16.5s17.5 -25.167 17.5 -42.5c0 -16.667 -5.66699 -30.167 -17 -40.5s-26 -15.5 -44 -15.5h-226v-185h271
c17.333 0 31.833 -5.83301 43.5 -17.5zM445 888.001c6 -5.33301 9.00098 -11 9.00098 -17c0 -4.66699 -1 -9 -3 -13s-6 -9.66699 -12 -17l-63 -72c-8.66699 -10 -17.834 -17.333 -27.501 -22s-20.834 -7 -33.501 -7h-16c-13.333 0 -24.666 2.33301 -33.999 7
s-18.333 12 -27 22l-63 72c-6 7.33301 -10 13 -12 17s-3 8.33301 -3 13c0 6 3 11.667 9 17s13.333 8 22 8c13.333 0 30.333 -6.66699 51 -20l65 -42l65 42c20.667 13.333 37.667 20 51 20c8.66699 0 16 -2.66699 22 -8z" />
    <glyph glyph-name="ecaron" unicode="&#x11b;" horiz-adv-x="580" 
d="M526 241c-12 -10 -25.998 -15 -41.998 -15h-330c8 -39.333 26.333 -70.166 55 -92.499s61 -33.5 97 -33.5c27.333 0 48.666 2.5 63.999 7.5s27.5 10.333 36.5 16l18.5 11.5c12 6 23.333 9 34 9c14 0 26 -5 36 -15s15 -21.667 15 -35c0 -18 -9.33301 -34.333 -28 -49
c-18.667 -15.333 -43.667 -28.333 -75 -39s-63 -16 -95 -16c-56 0 -104.833 11.667 -146.5 35s-73.834 55.5 -96.501 96.5s-34 87.167 -34 138.5c0 57.333 12 107.666 36 150.999s55.667 76.5 95 99.5s81.333 34.5 126 34.5c44 0 85.5 -12 124.5 -36
s70.167 -56.333 93.5 -97s35 -84.667 35 -132c-0.666992 -16 -7 -29 -19 -39zM155.002 326h262.001v7c-2.66699 28 -16.334 52 -41.001 72s-52.667 30 -84 30c-77.333 0 -123 -36.333 -137 -109zM415.003 738.5c6.66699 -5 9.99902 -11.167 9.99902 -18.5
c0 -10.667 -5.33301 -22.334 -16 -35.001l-44 -55c-8 -10.667 -16.833 -18.334 -26.5 -23.001s-21.167 -7 -34.5 -7h-36c-13.333 0 -24.833 2.33301 -34.5 7s-18.5 12.334 -26.5 23.001l-44 55c-8 10.667 -12 21.334 -12 32.001c0 8.66699 3.5 15.667 10.5 21
s17.167 8 30.5 8c12 0 27 -7.66699 45 -23l50 -43l50 43c10.667 8.66699 19.5 14.667 26.5 18s16.5 5 28.5 5c8.66699 0 16.334 -2.5 23.001 -7.5z" />
    <glyph glyph-name="Gcircumflex" unicode="&#x11c;" horiz-adv-x="696" 
d="M634 360.5c11.333 -11.667 17.001 -26.1621 17.001 -43.4951v-212c0 -23.333 -10.333 -41.333 -31 -54c-65.333 -40.667 -137 -61 -215 -61c-66 0 -127 16.167 -183 48.5s-100.333 76 -133 131s-49 115.167 -49 180.5s16.333 125.5 49 180.5s77 98.667 133 131
s117 48.5 183 48.5s123.333 -13.333 172 -40c10 -5.33301 17.5 -12.333 22.5 -21s7.5 -18 7.5 -28c0 -16.667 -5.5 -31.167 -16.5 -43.5s-24.5 -18.5 -40.5 -18.5c-10 0 -21 2.66699 -33 8c-36 15.333 -73.333 23 -112 23c-42.667 0 -82 -10.833 -118 -32.5
s-64.5 -50.834 -85.5 -87.501s-31.5 -76.667 -31.5 -120s10.5 -83.333 31.5 -120s49.5 -65.834 85.5 -87.501s75.333 -32.5 118 -32.5c18.667 0 38.667 1.66699 60 5s40 7.66602 56 12.999v130h-94c-17.333 0 -31.833 5.66699 -43.5 17s-17.5 25.666 -17.5 42.999
s5.83301 31.666 17.5 42.999s26.167 17 43.5 17h164c17.333 0 31.666 -5.83301 42.999 -17.5zM531.001 779.005c2 -4 2.99902 -8.66699 2.99902 -14c0 -6 -3 -11.667 -9 -17s-13.333 -8 -22 -8c-6 0 -12.667 1.66699 -20 5s-17.666 9 -30.999 17l-65 38l-65 -38
c-10.667 -6 -20.334 -11.167 -29.001 -15.5s-16 -6.5 -22 -6.5c-8.66699 0 -16 2.66699 -22 8s-9 11 -9 17c0 5.33301 1 10 3 14s6 9.33301 12 16l63 72c8.66699 10 17.667 17.333 27 22s20.666 7 33.999 7h16c12.667 0 23.834 -2.33301 33.501 -7s18.834 -12 27.501 -22
l63 -72c6 -6.66699 10 -12 12 -16z" />
    <glyph glyph-name="gcircumflex" unicode="&#x11d;" horiz-adv-x="633" 
d="M551 528c11.333 -11.333 17.002 -25.999 17.002 -43.999v-445c0 -81.333 -25.167 -141.5 -75.5 -180.5s-114.166 -58.5 -191.499 -58.5c-20 0 -47.5 3.33301 -82.5 10s-59.833 13.334 -74.5 20.001c-32.667 14 -49 33.333 -49 58c0 4.66699 1 10 3 16
c4 14.667 10.833 25.834 20.5 33.501s20.167 11.5 31.5 11.5c6.66699 0 13 -1 19 -3c2.66699 -0.666992 19.167 -6.83398 49.5 -18.501s57.833 -17.5 82.5 -17.5c49.333 0 86.166 9.83301 110.499 29.5s36.5 47.5 36.5 83.5v48
c-14.667 -20.667 -36.834 -39.334 -66.501 -56.001s-61.5 -25 -95.5 -25c-46.667 0 -89.167 11.833 -127.5 35.5s-68.5 56.5 -90.5 98.5s-33 89.667 -33 143s10.833 101.166 32.5 143.499s51.334 75.333 89.001 99s79.5 35.5 125.5 35.5c34 0 65.667 -7 95 -21
s53 -31 71 -51v11c0 17.333 5.66699 31.833 17 43.5s25.666 17.5 42.999 17.5s31.666 -5.66699 42.999 -17zM410.502 147.501c28.333 31.667 42.5 71.5 42.5 119.5s-14.167 88 -42.5 120s-64.833 48 -109.5 48s-81 -16 -109 -48s-42 -72 -42 -120s14 -87.833 42 -119.5
s64.333 -47.5 109 -47.5s81.167 15.833 109.5 47.5zM449.002 639.001c1.33301 -4 2.00586 -9 2.00586 -15c0 -6.66699 -2.83301 -12.5 -8.5 -17.5s-12.834 -7.5 -21.501 -7.5c-10 0 -17.5 1.33301 -22.5 4s-10 6.16699 -15 10.5s-8.83301 7.5 -11.5 9.5l-53 47l-57 -47
c-2.66699 -2 -6.83398 -5.5 -12.501 -10.5s-11.167 -8.5 -16.5 -10.5s-12 -3 -20 -3c-8.66699 0 -15.834 2.5 -21.501 7.5s-8.5 10.833 -8.5 17.5c0 6 0.666992 11 2 15s4.66602 9.33301 9.99902 16l49 62c15.333 19.333 35.666 29 60.999 29h36c13.333 0 23.833 -2 31.5 -6
s15.167 -11.667 22.5 -23l44 -62c5.33301 -6.66699 8.66602 -12 9.99902 -16z" />
    <glyph glyph-name="Gbreve" unicode="&#x11e;" horiz-adv-x="696" 
d="M634 360.5c11.333 -11.667 17.001 -26.1621 17.001 -43.4951v-212c0 -23.333 -10.333 -41.333 -31 -54c-65.333 -40.667 -137 -61 -215 -61c-66 0 -127 16.167 -183 48.5s-100.333 76 -133 131s-49 115.167 -49 180.5s16.333 125.5 49 180.5s77 98.667 133 131
s117 48.5 183 48.5s123.333 -13.333 172 -40c10 -5.33301 17.5 -12.333 22.5 -21s7.5 -18 7.5 -28c0 -16.667 -5.5 -31.167 -16.5 -43.5s-24.5 -18.5 -40.5 -18.5c-10 0 -21 2.66699 -33 8c-36 15.333 -73.333 23 -112 23c-42.667 0 -82 -10.833 -118 -32.5
s-64.5 -50.834 -85.5 -87.501s-31.5 -76.667 -31.5 -120s10.5 -83.333 31.5 -120s49.5 -65.834 85.5 -87.501s75.333 -32.5 118 -32.5c18.667 0 38.667 1.66699 60 5s40 7.66602 56 12.999v130h-94c-17.333 0 -31.833 5.66699 -43.5 17s-17.5 25.666 -17.5 42.999
s5.83301 31.666 17.5 42.999s26.167 17 43.5 17h164c17.333 0 31.666 -5.83301 42.999 -17.5zM290.501 782.505c-27.667 16.333 -47.8311 39.165 -60.498 68.498c-3.33301 8.66699 -5 16 -5 22c0 10 3.16699 18 9.5 24s14.5 9 24.5 9c12.667 0 23 -2.66699 31 -8
s17.667 -14.666 29 -27.999c16 -18 39 -27 69 -27c32 0 55 9 69 27c10 12.667 19.167 21.834 27.5 27.501s19.166 8.5 32.499 8.5c10 0 18.167 -2.83301 24.5 -8.5s9.5 -13.5 9.5 -23.5c0 -6.66699 -1.33301 -13.667 -4 -21c-12.667 -30.667 -32.834 -54.167 -60.501 -70.5
s-60.5 -24.5 -98.5 -24.5c-37.333 0 -69.833 8.16699 -97.5 24.5z" />
    </font>
</defs>
</svg>
